<?xml version="1.0" encoding="UTF-8" standalone="no"?>
<!DOCTYPE svg PUBLIC "-//W3C//DTD SVG 1.1//EN"
 "http://www.w3.org/Graphics/SVG/1.1/DTD/svg11.dtd">
<!-- Generated by graphviz version 2.40.1 (20161225.0304)
 -->
<!-- Title: oneDegreeRelationshipsDiagram Pages: 1 -->
<svg width="485pt" height="294pt"
 viewBox="0.00 0.00 485.00 294.20" xmlns="http://www.w3.org/2000/svg" xmlns:xlink="http://www.w3.org/1999/xlink">
<g id="graph0" class="graph" transform="scale(1 1) rotate(0) translate(4 290.2)">
<title>oneDegreeRelationshipsDiagram</title>
<polygon fill="#ffffff" stroke="transparent" points="-4,4 -4,-290.2 481,-290.2 481,4 -4,4"/>
<text text-anchor="middle" x="72.4936" y="-7.3" font-family="Helvetica,sans-Serif" font-size="11.00" fill="#000000">Generated by SchemaSpy</text>
<!-- diagnoses -->
<g id="node1" class="node">
<title>diagnoses</title>
<g id="a_node1"><a xlink:href="../../tables/diagnoses.html" xlink:title="diagnoses" target="_top">
<polygon fill="#ffffff" stroke="transparent" points="251,-38.2 251,-282.2 469,-282.2 469,-38.2 251,-38.2"/>
<polygon fill="#f5f5f5" stroke="transparent" points="253,-257.2 253,-280.2 467,-280.2 467,-257.2 253,-257.2"/>
<polygon fill="none" stroke="#000000" points="253,-257.2 253,-280.2 467,-280.2 467,-257.2 253,-257.2"/>
<text text-anchor="start" x="258" y="-265.8" font-family="Helvetica,sans-Serif" font-weight="bold" font-size="11.00" fill="#000000">diagnoses</text>
<text text-anchor="start" x="432.0437" y="-265.3" font-family="Helvetica,sans-Serif" font-size="11.00" fill="#000000">[table]</text>
<polygon fill="none" stroke="#000000" points="253,-235.2 253,-257.2 377,-257.2 377,-235.2 253,-235.2"/>
<image xlink:href="../../images/primaryKeys.png" width="11px" height="12px" preserveAspectRatio="xMinYMin meet" x="258" y="-252.2"/>
<text text-anchor="start" x="273" y="-242.3" font-family="Helvetica,sans-Serif" font-size="11.00" fill="#000000">id</text>
<polygon fill="none" stroke="#000000" points="377,-235.2 377,-257.2 467,-257.2 467,-235.2 377,-235.2"/>
<text text-anchor="start" x="380" y="-242.9" font-family="Helvetica,sans-Serif" font-size="11.00" fill="#000000">bigserial[19]</text>
<polygon fill="#ffffff" stroke="transparent" points="253,-213.2 253,-235.2 377,-235.2 377,-213.2 253,-213.2"/>
<polygon fill="none" stroke="#000000" points="253,-213.2 253,-235.2 377,-235.2 377,-213.2 253,-213.2"/>
<image xlink:href="../../images/foreignKeys.png" width="11px" height="12px" preserveAspectRatio="xMinYMin meet" x="258" y="-230.2"/>
<text text-anchor="start" x="273" y="-220.3" font-family="Helvetica,sans-Serif" font-size="11.00" fill="#000000">patient_id</text>
<polygon fill="none" stroke="#000000" points="377,-213.2 377,-235.2 467,-235.2 467,-213.2 377,-213.2"/>
<text text-anchor="start" x="380" y="-220.9" font-family="Helvetica,sans-Serif" font-size="11.00" fill="#000000">int8[19]</text>
<polygon fill="none" stroke="#000000" points="253,-191.2 253,-213.2 377,-213.2 377,-191.2 253,-191.2"/>
<text text-anchor="start" x="273" y="-198.3" font-family="Helvetica,sans-Serif" font-size="11.00" fill="#000000">diagnosis_code</text>
<polygon fill="none" stroke="#000000" points="377,-191.2 377,-213.2 467,-213.2 467,-191.2 377,-191.2"/>
<text text-anchor="start" x="380" y="-198.9" font-family="Helvetica,sans-Serif" font-size="11.00" fill="#000000">varchar[20]</text>
<polygon fill="none" stroke="#000000" points="253,-169.2 253,-191.2 377,-191.2 377,-169.2 253,-169.2"/>
<text text-anchor="start" x="273" y="-176.3" font-family="Helvetica,sans-Serif" font-size="11.00" fill="#000000">diagnosis_name</text>
<polygon fill="none" stroke="#000000" points="377,-169.2 377,-191.2 467,-191.2 467,-169.2 377,-169.2"/>
<text text-anchor="start" x="380" y="-176.9" font-family="Helvetica,sans-Serif" font-size="11.00" fill="#000000">varchar[200]</text>
<polygon fill="none" stroke="#000000" points="253,-147.2 253,-169.2 377,-169.2 377,-147.2 253,-147.2"/>
<text text-anchor="start" x="273" y="-154.3" font-family="Helvetica,sans-Serif" font-size="11.00" fill="#000000">diagnosis_date</text>
<polygon fill="none" stroke="#000000" points="377,-147.2 377,-169.2 467,-169.2 467,-147.2 377,-147.2"/>
<text text-anchor="start" x="380" y="-154.9" font-family="Helvetica,sans-Serif" font-size="11.00" fill="#000000">timestamp[29,6]</text>
<polygon fill="none" stroke="#000000" points="253,-125.2 253,-147.2 377,-147.2 377,-125.2 253,-125.2"/>
<text text-anchor="start" x="273" y="-132.3" font-family="Helvetica,sans-Serif" font-size="11.00" fill="#000000">doctor_name</text>
<polygon fill="none" stroke="#000000" points="377,-125.2 377,-147.2 467,-147.2 467,-125.2 377,-125.2"/>
<text text-anchor="start" x="380" y="-132.9" font-family="Helvetica,sans-Serif" font-size="11.00" fill="#000000">varchar[100]</text>
<polygon fill="none" stroke="#000000" points="253,-103.2 253,-125.2 377,-125.2 377,-103.2 253,-103.2"/>
<text text-anchor="start" x="273" y="-110.3" font-family="Helvetica,sans-Serif" font-size="11.00" fill="#000000">notes</text>
<polygon fill="none" stroke="#000000" points="377,-103.2 377,-125.2 467,-125.2 467,-103.2 377,-103.2"/>
<text text-anchor="start" x="379.5043" y="-110.9" font-family="Helvetica,sans-Serif" font-size="11.00" fill="#000000">text[2147483647]</text>
<polygon fill="none" stroke="#000000" points="253,-81.2 253,-103.2 377,-103.2 377,-81.2 253,-81.2"/>
<text text-anchor="start" x="273" y="-88.3" font-family="Helvetica,sans-Serif" font-size="11.00" fill="#000000">created_at</text>
<polygon fill="none" stroke="#000000" points="377,-81.2 377,-103.2 467,-103.2 467,-81.2 377,-81.2"/>
<text text-anchor="start" x="380" y="-88.9" font-family="Helvetica,sans-Serif" font-size="11.00" fill="#000000">timestamp[29,6]</text>
<polygon fill="none" stroke="#000000" points="253,-59.2 253,-81.2 377,-81.2 377,-59.2 253,-59.2"/>
<text text-anchor="start" x="273" y="-66.3" font-family="Helvetica,sans-Serif" font-size="11.00" fill="#000000">description</text>
<polygon fill="none" stroke="#000000" points="377,-59.2 377,-81.2 467,-81.2 467,-59.2 377,-59.2"/>
<text text-anchor="start" x="379.5043" y="-66.9" font-family="Helvetica,sans-Serif" font-size="11.00" fill="#000000">text[2147483647]</text>
<polygon fill="#ffffff" stroke="transparent" points="253,-40.2 253,-59.2 467,-59.2 467,-40.2 253,-40.2"/>
<polygon fill="none" stroke="#000000" points="253,-40.2 253,-59.2 467,-59.2 467,-40.2 253,-40.2"/>
<polygon fill="#ffffff" stroke="transparent" points="254,-41.2 254,-58.2 328,-58.2 328,-41.2 254,-41.2"/>
<text text-anchor="start" x="256" y="-46.3" font-family="Helvetica,sans-Serif" font-size="11.00" fill="#000000">&lt; 1</text>
<polygon fill="#ffffff" stroke="transparent" points="328,-41.2 328,-58.2 393,-58.2 393,-41.2 328,-41.2"/>
<text text-anchor="start" x="357.4431" y="-46.3" font-family="Helvetica,sans-Serif" font-size="11.00" fill="#000000"> &#160;</text>
<polygon fill="#ffffff" stroke="transparent" points="393,-41.2 393,-58.2 466,-58.2 466,-41.2 393,-41.2"/>
<text text-anchor="start" x="448.4053" y="-46.3" font-family="Helvetica,sans-Serif" font-size="11.00" fill="#000000">0 &gt;</text>
<polygon fill="#000000" stroke="#000000" points="328,-41.2 328,-58.2 328,-58.2 328,-41.2 328,-41.2"/>
<polygon fill="#000000" stroke="#000000" points="393,-41.2 393,-58.2 393,-58.2 393,-41.2 393,-41.2"/>
<polygon fill="none" stroke="#000000" stroke-width="2" points="252,-39.2 252,-281.2 468,-281.2 468,-39.2 252,-39.2"/>
</a>
</g>
</g>
<!-- patients -->
<g id="node2" class="node">
<title>patients</title>
<g id="a_node2"><a xlink:href="../../tables/patients.html" xlink:title="patients" target="_top">
<polygon fill="#ffffff" stroke="transparent" points="8,-65.7 8,-258.7 202,-258.7 202,-65.7 8,-65.7"/>
<polygon fill="#f5f5f5" stroke="transparent" points="8,-235.2 8,-258.2 202,-258.2 202,-235.2 8,-235.2"/>
<polygon fill="none" stroke="#000000" points="8,-235.2 8,-258.2 202,-258.2 202,-235.2 8,-235.2"/>
<text text-anchor="start" x="13" y="-243.8" font-family="Helvetica,sans-Serif" font-weight="bold" font-size="11.00" fill="#000000">patients</text>
<text text-anchor="start" x="167.0437" y="-243.3" font-family="Helvetica,sans-Serif" font-size="11.00" fill="#000000">[table]</text>
<polygon fill="none" stroke="#000000" points="8,-213.2 8,-235.2 202,-235.2 202,-213.2 8,-213.2"/>
<image xlink:href="../../images/primaryKeys.png" width="11px" height="12px" preserveAspectRatio="xMinYMin meet" x="13" y="-230.2"/>
<text text-anchor="start" x="28" y="-220.3" font-family="Helvetica,sans-Serif" font-size="11.00" fill="#000000">id</text>
<polygon fill="#ffffff" stroke="transparent" points="8,-191.2 8,-213.2 202,-213.2 202,-191.2 8,-191.2"/>
<polygon fill="none" stroke="#000000" points="8,-191.2 8,-213.2 202,-213.2 202,-191.2 8,-191.2"/>
<text text-anchor="start" x="28" y="-198.3" font-family="Helvetica,sans-Serif" font-size="11.00" fill="#000000">last_name</text>
<polygon fill="#ffffff" stroke="transparent" points="8,-169.2 8,-191.2 202,-191.2 202,-169.2 8,-169.2"/>
<polygon fill="none" stroke="#000000" points="8,-169.2 8,-191.2 202,-191.2 202,-169.2 8,-169.2"/>
<text text-anchor="start" x="28" y="-176.3" font-family="Helvetica,sans-Serif" font-size="11.00" fill="#000000">insurance_number</text>
<polygon fill="#ffffff" stroke="transparent" points="8,-147.2 8,-169.2 202,-169.2 202,-147.2 8,-147.2"/>
<polygon fill="none" stroke="#000000" points="8,-147.2 8,-169.2 202,-169.2 202,-147.2 8,-147.2"/>
<text text-anchor="start" x="28" y="-154.3" font-family="Helvetica,sans-Serif" font-size="11.00" fill="#000000">epa_id</text>
<polygon fill="#ffffff" stroke="transparent" points="8,-125.2 8,-147.2 202,-147.2 202,-125.2 8,-125.2"/>
<polygon fill="none" stroke="#000000" points="8,-125.2 8,-147.2 202,-147.2 202,-125.2 8,-125.2"/>
<text text-anchor="start" x="28" y="-132.3" font-family="Helvetica,sans-Serif" font-size="11.00" fill="#000000">epa_sync_status</text>
<polygon fill="#ffffff" stroke="transparent" points="8,-103.2 8,-125.2 202,-125.2 202,-103.2 8,-103.2"/>
<polygon fill="none" stroke="#000000" points="8,-103.2 8,-125.2 202,-125.2 202,-103.2 8,-103.2"/>
<text text-anchor="start" x="28" y="-110.3" font-family="Helvetica,sans-Serif" font-size="11.00" fill="#000000">epa_enabled</text>
<polygon fill="none" stroke="#000000" points="8,-84.2 8,-103.2 202,-103.2 202,-84.2 8,-84.2"/>
<text text-anchor="start" x="11" y="-90.3" font-family="Helvetica,sans-Serif" font-size="11.00" fill="#000000">...</text>
<polygon fill="#ffffff" stroke="transparent" points="8,-65.2 8,-84.2 202,-84.2 202,-65.2 8,-65.2"/>
<polygon fill="none" stroke="#000000" points="8,-65.2 8,-84.2 202,-84.2 202,-65.2 8,-65.2"/>
<polygon fill="#ffffff" stroke="transparent" points="9,-66.2 9,-83.2 62,-83.2 62,-66.2 9,-66.2"/>
<text text-anchor="start" x="11" y="-71.3" font-family="Helvetica,sans-Serif" font-size="11.00" fill="#000000"> &#160;</text>
<polygon fill="#ffffff" stroke="transparent" points="62,-66.2 62,-83.2 140,-83.2 140,-66.2 62,-66.2"/>
<text text-anchor="start" x="84.8053" y="-71.3" font-family="Helvetica,sans-Serif" font-size="11.00" fill="#000000">3 rows</text>
<polygon fill="#ffffff" stroke="transparent" points="140,-66.2 140,-83.2 201,-83.2 201,-66.2 140,-66.2"/>
<text text-anchor="start" x="183.4053" y="-71.3" font-family="Helvetica,sans-Serif" font-size="11.00" fill="#000000">3 &gt;</text>
<polygon fill="#000000" stroke="#000000" points="62,-66.2 62,-83.2 62,-83.2 62,-66.2 62,-66.2"/>
<polygon fill="#000000" stroke="#000000" points="140,-66.2 140,-83.2 140,-83.2 140,-66.2 140,-66.2"/>
</a>
</g>
</g>
<!-- diagnoses&#45;&gt;patients -->
<g id="edge1" class="edge">
<title>diagnoses:w&#45;&gt;patients:e</title>
<path fill="none" stroke="#000000" d="M238.276,-224.2C226.2815,-224.2 218.8229,-224.2 202,-224.2"/>
<polygon fill="#000000" stroke="#000000" points="245,-224.2001 253,-227.8 249,-224.2 253,-224.2 253,-224.2 253,-224.2 249,-224.2 253,-220.6 245,-224.2001 245,-224.2001"/>
<ellipse fill="none" stroke="#000000" cx="241.8" cy="-224.2001" rx="3.2" ry="3.2"/>
</g>
</g>
</svg>
