<?xml version="1.0" encoding="UTF-8" standalone="no"?>
<!DOCTYPE svg PUBLIC "-//W3C//DTD SVG 1.1//EN"
 "http://www.w3.org/Graphics/SVG/1.1/DTD/svg11.dtd">
<!-- Generated by graphviz version 2.40.1 (20161225.0304)
 -->
<!-- Title: twoDegreesRelationshipsDiagram Pages: 1 -->
<svg width="485pt" height="508pt"
 viewBox="0.00 0.00 485.00 507.70" xmlns="http://www.w3.org/2000/svg" xmlns:xlink="http://www.w3.org/1999/xlink">
<g id="graph0" class="graph" transform="scale(1 1) rotate(0) translate(4 503.7)">
<title>twoDegreesRelationshipsDiagram</title>
<polygon fill="#ffffff" stroke="transparent" points="-4,4 -4,-503.7 481,-503.7 481,4 -4,4"/>
<text text-anchor="middle" x="72.4936" y="-7.3" font-family="Helvetica,sans-Serif" font-size="11.00" fill="#000000">Generated by SchemaSpy</text>
<!-- diagnoses -->
<g id="node1" class="node">
<title>diagnoses</title>
<g id="a_node1"><a xlink:href="../../tables/diagnoses.html" xlink:title="diagnoses" target="_top">
<polygon fill="#ffffff" stroke="transparent" points="251,-251.7 251,-495.7 469,-495.7 469,-251.7 251,-251.7"/>
<polygon fill="#f5f5f5" stroke="transparent" points="253,-470.7 253,-493.7 467,-493.7 467,-470.7 253,-470.7"/>
<polygon fill="none" stroke="#000000" points="253,-470.7 253,-493.7 467,-493.7 467,-470.7 253,-470.7"/>
<text text-anchor="start" x="258" y="-479.3" font-family="Helvetica,sans-Serif" font-weight="bold" font-size="11.00" fill="#000000">diagnoses</text>
<text text-anchor="start" x="432.0437" y="-478.8" font-family="Helvetica,sans-Serif" font-size="11.00" fill="#000000">[table]</text>
<polygon fill="none" stroke="#000000" points="253,-448.7 253,-470.7 377,-470.7 377,-448.7 253,-448.7"/>
<image xlink:href="../../images/primaryKeys.png" width="11px" height="12px" preserveAspectRatio="xMinYMin meet" x="258" y="-465.7"/>
<text text-anchor="start" x="273" y="-455.8" font-family="Helvetica,sans-Serif" font-size="11.00" fill="#000000">id</text>
<polygon fill="none" stroke="#000000" points="377,-448.7 377,-470.7 467,-470.7 467,-448.7 377,-448.7"/>
<text text-anchor="start" x="380" y="-456.4" font-family="Helvetica,sans-Serif" font-size="11.00" fill="#000000">bigserial[19]</text>
<polygon fill="#ffffff" stroke="transparent" points="253,-426.7 253,-448.7 377,-448.7 377,-426.7 253,-426.7"/>
<polygon fill="none" stroke="#000000" points="253,-426.7 253,-448.7 377,-448.7 377,-426.7 253,-426.7"/>
<image xlink:href="../../images/foreignKeys.png" width="11px" height="12px" preserveAspectRatio="xMinYMin meet" x="258" y="-443.7"/>
<text text-anchor="start" x="273" y="-433.8" font-family="Helvetica,sans-Serif" font-size="11.00" fill="#000000">patient_id</text>
<polygon fill="none" stroke="#000000" points="377,-426.7 377,-448.7 467,-448.7 467,-426.7 377,-426.7"/>
<text text-anchor="start" x="380" y="-434.4" font-family="Helvetica,sans-Serif" font-size="11.00" fill="#000000">int8[19]</text>
<polygon fill="none" stroke="#000000" points="253,-404.7 253,-426.7 377,-426.7 377,-404.7 253,-404.7"/>
<text text-anchor="start" x="273" y="-411.8" font-family="Helvetica,sans-Serif" font-size="11.00" fill="#000000">diagnosis_code</text>
<polygon fill="none" stroke="#000000" points="377,-404.7 377,-426.7 467,-426.7 467,-404.7 377,-404.7"/>
<text text-anchor="start" x="380" y="-412.4" font-family="Helvetica,sans-Serif" font-size="11.00" fill="#000000">varchar[20]</text>
<polygon fill="none" stroke="#000000" points="253,-382.7 253,-404.7 377,-404.7 377,-382.7 253,-382.7"/>
<text text-anchor="start" x="273" y="-389.8" font-family="Helvetica,sans-Serif" font-size="11.00" fill="#000000">diagnosis_name</text>
<polygon fill="none" stroke="#000000" points="377,-382.7 377,-404.7 467,-404.7 467,-382.7 377,-382.7"/>
<text text-anchor="start" x="380" y="-390.4" font-family="Helvetica,sans-Serif" font-size="11.00" fill="#000000">varchar[200]</text>
<polygon fill="none" stroke="#000000" points="253,-360.7 253,-382.7 377,-382.7 377,-360.7 253,-360.7"/>
<text text-anchor="start" x="273" y="-367.8" font-family="Helvetica,sans-Serif" font-size="11.00" fill="#000000">diagnosis_date</text>
<polygon fill="none" stroke="#000000" points="377,-360.7 377,-382.7 467,-382.7 467,-360.7 377,-360.7"/>
<text text-anchor="start" x="380" y="-368.4" font-family="Helvetica,sans-Serif" font-size="11.00" fill="#000000">timestamp[29,6]</text>
<polygon fill="none" stroke="#000000" points="253,-338.7 253,-360.7 377,-360.7 377,-338.7 253,-338.7"/>
<text text-anchor="start" x="273" y="-345.8" font-family="Helvetica,sans-Serif" font-size="11.00" fill="#000000">doctor_name</text>
<polygon fill="none" stroke="#000000" points="377,-338.7 377,-360.7 467,-360.7 467,-338.7 377,-338.7"/>
<text text-anchor="start" x="380" y="-346.4" font-family="Helvetica,sans-Serif" font-size="11.00" fill="#000000">varchar[100]</text>
<polygon fill="none" stroke="#000000" points="253,-316.7 253,-338.7 377,-338.7 377,-316.7 253,-316.7"/>
<text text-anchor="start" x="273" y="-323.8" font-family="Helvetica,sans-Serif" font-size="11.00" fill="#000000">notes</text>
<polygon fill="none" stroke="#000000" points="377,-316.7 377,-338.7 467,-338.7 467,-316.7 377,-316.7"/>
<text text-anchor="start" x="379.5043" y="-324.4" font-family="Helvetica,sans-Serif" font-size="11.00" fill="#000000">text[2147483647]</text>
<polygon fill="none" stroke="#000000" points="253,-294.7 253,-316.7 377,-316.7 377,-294.7 253,-294.7"/>
<text text-anchor="start" x="273" y="-301.8" font-family="Helvetica,sans-Serif" font-size="11.00" fill="#000000">created_at</text>
<polygon fill="none" stroke="#000000" points="377,-294.7 377,-316.7 467,-316.7 467,-294.7 377,-294.7"/>
<text text-anchor="start" x="380" y="-302.4" font-family="Helvetica,sans-Serif" font-size="11.00" fill="#000000">timestamp[29,6]</text>
<polygon fill="none" stroke="#000000" points="253,-272.7 253,-294.7 377,-294.7 377,-272.7 253,-272.7"/>
<text text-anchor="start" x="273" y="-279.8" font-family="Helvetica,sans-Serif" font-size="11.00" fill="#000000">description</text>
<polygon fill="none" stroke="#000000" points="377,-272.7 377,-294.7 467,-294.7 467,-272.7 377,-272.7"/>
<text text-anchor="start" x="379.5043" y="-280.4" font-family="Helvetica,sans-Serif" font-size="11.00" fill="#000000">text[2147483647]</text>
<polygon fill="#ffffff" stroke="transparent" points="253,-253.7 253,-272.7 467,-272.7 467,-253.7 253,-253.7"/>
<polygon fill="none" stroke="#000000" points="253,-253.7 253,-272.7 467,-272.7 467,-253.7 253,-253.7"/>
<polygon fill="#ffffff" stroke="transparent" points="254,-254.7 254,-271.7 328,-271.7 328,-254.7 254,-254.7"/>
<text text-anchor="start" x="256" y="-259.8" font-family="Helvetica,sans-Serif" font-size="11.00" fill="#000000">&lt; 1</text>
<polygon fill="#ffffff" stroke="transparent" points="328,-254.7 328,-271.7 393,-271.7 393,-254.7 328,-254.7"/>
<text text-anchor="start" x="357.4431" y="-259.8" font-family="Helvetica,sans-Serif" font-size="11.00" fill="#000000"> &#160;</text>
<polygon fill="#ffffff" stroke="transparent" points="393,-254.7 393,-271.7 466,-271.7 466,-254.7 393,-254.7"/>
<text text-anchor="start" x="448.4053" y="-259.8" font-family="Helvetica,sans-Serif" font-size="11.00" fill="#000000">0 &gt;</text>
<polygon fill="#000000" stroke="#000000" points="328,-254.7 328,-271.7 328,-271.7 328,-254.7 328,-254.7"/>
<polygon fill="#000000" stroke="#000000" points="393,-254.7 393,-271.7 393,-271.7 393,-254.7 393,-254.7"/>
<polygon fill="none" stroke="#000000" stroke-width="2" points="252,-252.7 252,-494.7 468,-494.7 468,-252.7 252,-252.7"/>
</a>
</g>
</g>
<!-- patients -->
<g id="node2" class="node">
<title>patients</title>
<g id="a_node2"><a xlink:href="../../tables/patients.html" xlink:title="patients" target="_top">
<polygon fill="#ffffff" stroke="transparent" points="8,-38.2 8,-231.2 202,-231.2 202,-38.2 8,-38.2"/>
<polygon fill="#f5f5f5" stroke="transparent" points="8,-207.7 8,-230.7 202,-230.7 202,-207.7 8,-207.7"/>
<polygon fill="none" stroke="#000000" points="8,-207.7 8,-230.7 202,-230.7 202,-207.7 8,-207.7"/>
<text text-anchor="start" x="13" y="-216.3" font-family="Helvetica,sans-Serif" font-weight="bold" font-size="11.00" fill="#000000">patients</text>
<text text-anchor="start" x="167.0437" y="-215.8" font-family="Helvetica,sans-Serif" font-size="11.00" fill="#000000">[table]</text>
<polygon fill="none" stroke="#000000" points="8,-185.7 8,-207.7 202,-207.7 202,-185.7 8,-185.7"/>
<image xlink:href="../../images/primaryKeys.png" width="11px" height="12px" preserveAspectRatio="xMinYMin meet" x="13" y="-202.7"/>
<text text-anchor="start" x="28" y="-192.8" font-family="Helvetica,sans-Serif" font-size="11.00" fill="#000000">id</text>
<polygon fill="#ffffff" stroke="transparent" points="8,-163.7 8,-185.7 202,-185.7 202,-163.7 8,-163.7"/>
<polygon fill="none" stroke="#000000" points="8,-163.7 8,-185.7 202,-185.7 202,-163.7 8,-163.7"/>
<text text-anchor="start" x="28" y="-170.8" font-family="Helvetica,sans-Serif" font-size="11.00" fill="#000000">last_name</text>
<polygon fill="#ffffff" stroke="transparent" points="8,-141.7 8,-163.7 202,-163.7 202,-141.7 8,-141.7"/>
<polygon fill="none" stroke="#000000" points="8,-141.7 8,-163.7 202,-163.7 202,-141.7 8,-141.7"/>
<text text-anchor="start" x="28" y="-148.8" font-family="Helvetica,sans-Serif" font-size="11.00" fill="#000000">insurance_number</text>
<polygon fill="#ffffff" stroke="transparent" points="8,-119.7 8,-141.7 202,-141.7 202,-119.7 8,-119.7"/>
<polygon fill="none" stroke="#000000" points="8,-119.7 8,-141.7 202,-141.7 202,-119.7 8,-119.7"/>
<text text-anchor="start" x="28" y="-126.8" font-family="Helvetica,sans-Serif" font-size="11.00" fill="#000000">epa_id</text>
<polygon fill="#ffffff" stroke="transparent" points="8,-97.7 8,-119.7 202,-119.7 202,-97.7 8,-97.7"/>
<polygon fill="none" stroke="#000000" points="8,-97.7 8,-119.7 202,-119.7 202,-97.7 8,-97.7"/>
<text text-anchor="start" x="28" y="-104.8" font-family="Helvetica,sans-Serif" font-size="11.00" fill="#000000">epa_sync_status</text>
<polygon fill="#ffffff" stroke="transparent" points="8,-75.7 8,-97.7 202,-97.7 202,-75.7 8,-75.7"/>
<polygon fill="none" stroke="#000000" points="8,-75.7 8,-97.7 202,-97.7 202,-75.7 8,-75.7"/>
<text text-anchor="start" x="28" y="-82.8" font-family="Helvetica,sans-Serif" font-size="11.00" fill="#000000">epa_enabled</text>
<polygon fill="none" stroke="#000000" points="8,-56.7 8,-75.7 202,-75.7 202,-56.7 8,-56.7"/>
<text text-anchor="start" x="11" y="-62.8" font-family="Helvetica,sans-Serif" font-size="11.00" fill="#000000">...</text>
<polygon fill="#ffffff" stroke="transparent" points="8,-37.7 8,-56.7 202,-56.7 202,-37.7 8,-37.7"/>
<polygon fill="none" stroke="#000000" points="8,-37.7 8,-56.7 202,-56.7 202,-37.7 8,-37.7"/>
<polygon fill="#ffffff" stroke="transparent" points="9,-38.7 9,-55.7 55,-55.7 55,-38.7 9,-38.7"/>
<text text-anchor="start" x="11" y="-43.8" font-family="Helvetica,sans-Serif" font-size="11.00" fill="#000000"> &#160;</text>
<polygon fill="#ffffff" stroke="transparent" points="55,-38.7 55,-55.7 147,-55.7 147,-38.7 55,-38.7"/>
<text text-anchor="start" x="74.1045" y="-43.8" font-family="Helvetica,sans-Serif" font-size="11.00" fill="#000000">1,003 rows</text>
<polygon fill="#ffffff" stroke="transparent" points="147,-38.7 147,-55.7 201,-55.7 201,-38.7 147,-38.7"/>
<text text-anchor="start" x="183.4053" y="-43.8" font-family="Helvetica,sans-Serif" font-size="11.00" fill="#000000">3 &gt;</text>
<polygon fill="#000000" stroke="#000000" points="55,-38.7 55,-55.7 55,-55.7 55,-38.7 55,-38.7"/>
<polygon fill="#000000" stroke="#000000" points="147,-38.7 147,-55.7 147,-55.7 147,-38.7 147,-38.7"/>
</a>
</g>
</g>
<!-- diagnoses&#45;&gt;patients -->
<g id="edge1" class="edge">
<title>diagnoses:w&#45;&gt;patients:e</title>
<path fill="none" stroke="#000000" d="M238.3947,-435.8987C159.8604,-413.8449 305.9235,-196.7 202,-196.7"/>
<polygon fill="#000000" stroke="#000000" points="245.0602,-436.7207 252.5593,-441.2729 249.0301,-437.2104 253,-437.7 253,-437.7 253,-437.7 249.0301,-437.2104 253.4407,-434.1271 245.0602,-436.7207 245.0602,-436.7207"/>
<ellipse fill="none" stroke="#000000" cx="241.8842" cy="-436.329" rx="3.2" ry="3.2"/>
</g>
<!-- epa_sync_log -->
<g id="node3" class="node">
<title>epa_sync_log</title>
<g id="a_node3"><a xlink:href="../../tables/epa_sync_log.html" xlink:title="epa_sync_log" target="_top">
<polygon fill="#ffffff" stroke="transparent" points="299,-169.2 299,-230.2 421,-230.2 421,-169.2 299,-169.2"/>
<polygon fill="#f5f5f5" stroke="transparent" points="299,-206.7 299,-229.7 421,-229.7 421,-206.7 299,-206.7"/>
<polygon fill="none" stroke="#000000" points="299,-206.7 299,-229.7 421,-229.7 421,-206.7 299,-206.7"/>
<text text-anchor="start" x="304" y="-215.3" font-family="Helvetica,sans-Serif" font-weight="bold" font-size="11.00" fill="#000000">epa_sync_log</text>
<text text-anchor="start" x="386.5219" y="-214.8" font-family="Helvetica,sans-Serif" font-size="11.00" fill="#000000">[table]</text>
<polygon fill="none" stroke="#000000" points="299,-187.7 299,-206.7 421,-206.7 421,-187.7 299,-187.7"/>
<text text-anchor="start" x="302" y="-193.8" font-family="Helvetica,sans-Serif" font-size="11.00" fill="#000000">...</text>
<polygon fill="#ffffff" stroke="transparent" points="299,-168.7 299,-187.7 421,-187.7 421,-168.7 299,-168.7"/>
<polygon fill="none" stroke="#000000" points="299,-168.7 299,-187.7 421,-187.7 421,-168.7 299,-168.7"/>
<polygon fill="#ffffff" stroke="transparent" points="300,-169.7 300,-186.7 346,-186.7 346,-169.7 300,-169.7"/>
<text text-anchor="start" x="302" y="-174.8" font-family="Helvetica,sans-Serif" font-size="11.00" fill="#000000">&lt; 1</text>
<polygon fill="#ffffff" stroke="transparent" points="346,-169.7 346,-186.7 383,-186.7 383,-169.7 346,-169.7"/>
<text text-anchor="start" x="361.4431" y="-174.8" font-family="Helvetica,sans-Serif" font-size="11.00" fill="#000000"> &#160;</text>
<polygon fill="#ffffff" stroke="transparent" points="383,-169.7 383,-186.7 420,-186.7 420,-169.7 383,-169.7"/>
<text text-anchor="start" x="411.8862" y="-174.8" font-family="Helvetica,sans-Serif" font-size="11.00" fill="#000000"> &#160;</text>
<polygon fill="#000000" stroke="#000000" points="346,-169.7 346,-186.7 346,-186.7 346,-169.7 346,-169.7"/>
<polygon fill="#000000" stroke="#000000" points="383,-169.7 383,-186.7 383,-186.7 383,-169.7 383,-169.7"/>
</a>
</g>
</g>
<!-- epa_sync_log&#45;&gt;patients -->
<g id="edge2" class="edge">
<title>epa_sync_log:w&#45;&gt;patients:e</title>
<path fill="none" stroke="#000000" d="M284.2227,-196.7C252.6892,-196.7 239.7222,-196.7 202,-196.7"/>
<polygon fill="#000000" stroke="#000000" points="291,-196.7001 299,-200.3 295,-196.7 299,-196.7 299,-196.7 299,-196.7 295,-196.7 299,-193.1 291,-196.7001 291,-196.7001"/>
<ellipse fill="none" stroke="#000000" cx="287.8" cy="-196.7001" rx="3.2" ry="3.2"/>
</g>
<!-- medications -->
<g id="node4" class="node">
<title>medications</title>
<g id="a_node4"><a xlink:href="../../tables/medications.html" xlink:title="medications" target="_top">
<polygon fill="#ffffff" stroke="transparent" points="301,-87.2 301,-148.2 419,-148.2 419,-87.2 301,-87.2"/>
<polygon fill="#f5f5f5" stroke="transparent" points="301,-124.7 301,-147.7 419,-147.7 419,-124.7 301,-124.7"/>
<polygon fill="none" stroke="#000000" points="301,-124.7 301,-147.7 419,-147.7 419,-124.7 301,-124.7"/>
<text text-anchor="start" x="306" y="-133.3" font-family="Helvetica,sans-Serif" font-weight="bold" font-size="11.00" fill="#000000">medications</text>
<text text-anchor="start" x="384.5219" y="-132.8" font-family="Helvetica,sans-Serif" font-size="11.00" fill="#000000">[table]</text>
<polygon fill="none" stroke="#000000" points="301,-105.7 301,-124.7 419,-124.7 419,-105.7 301,-105.7"/>
<text text-anchor="start" x="304" y="-111.8" font-family="Helvetica,sans-Serif" font-size="11.00" fill="#000000">...</text>
<polygon fill="#ffffff" stroke="transparent" points="301,-86.7 301,-105.7 419,-105.7 419,-86.7 301,-86.7"/>
<polygon fill="none" stroke="#000000" points="301,-86.7 301,-105.7 419,-105.7 419,-86.7 301,-86.7"/>
<polygon fill="#ffffff" stroke="transparent" points="302,-87.7 302,-104.7 347,-104.7 347,-87.7 302,-87.7"/>
<text text-anchor="start" x="304" y="-92.8" font-family="Helvetica,sans-Serif" font-size="11.00" fill="#000000">&lt; 1</text>
<polygon fill="#ffffff" stroke="transparent" points="347,-87.7 347,-104.7 383,-104.7 383,-87.7 347,-87.7"/>
<text text-anchor="start" x="361.9431" y="-92.8" font-family="Helvetica,sans-Serif" font-size="11.00" fill="#000000"> &#160;</text>
<polygon fill="#ffffff" stroke="transparent" points="383,-87.7 383,-104.7 418,-104.7 418,-87.7 383,-87.7"/>
<text text-anchor="start" x="409.8862" y="-92.8" font-family="Helvetica,sans-Serif" font-size="11.00" fill="#000000"> &#160;</text>
<polygon fill="#000000" stroke="#000000" points="347,-87.7 347,-104.7 347,-104.7 347,-87.7 347,-87.7"/>
<polygon fill="#000000" stroke="#000000" points="383,-87.7 383,-104.7 383,-104.7 383,-87.7 383,-87.7"/>
</a>
</g>
</g>
<!-- medications&#45;&gt;patients -->
<g id="edge3" class="edge">
<title>medications:w&#45;&gt;patients:e</title>
<path fill="none" stroke="#000000" d="M286.5559,-116.7115C267.6025,-122.782 263.4277,-141.5561 243,-158.7 223.9689,-174.6718 226.8452,-196.7 202,-196.7"/>
<polygon fill="#000000" stroke="#000000" points="293.0765,-115.8035 301.4966,-118.2656 297.0382,-115.2517 301,-114.7 301,-114.7 301,-114.7 297.0382,-115.2517 300.5034,-111.1344 293.0765,-115.8035 293.0765,-115.8035"/>
<ellipse fill="none" stroke="#000000" cx="289.907" cy="-116.2449" rx="3.2" ry="3.2"/>
</g>
</g>
</svg>
