<?xml version="1.0" encoding="UTF-8" standalone="no"?>
<!DOCTYPE svg PUBLIC "-//W3C//DTD SVG 1.1//EN"
 "http://www.w3.org/Graphics/SVG/1.1/DTD/svg11.dtd">
<!-- Generated by graphviz version 2.40.1 (20161225.0304)
 -->
<!-- Title: twoDegreesRelationshipsDiagram Pages: 1 -->
<svg width="497pt" height="481pt"
 viewBox="0.00 0.00 497.00 481.20" xmlns="http://www.w3.org/2000/svg" xmlns:xlink="http://www.w3.org/1999/xlink">
<g id="graph0" class="graph" transform="scale(1 1) rotate(0) translate(4 477.2)">
<title>twoDegreesRelationshipsDiagram</title>
<polygon fill="#ffffff" stroke="transparent" points="-4,4 -4,-477.2 493,-477.2 493,4 -4,4"/>
<text text-anchor="middle" x="72.4936" y="-7.3" font-family="Helvetica,sans-Serif" font-size="11.00" fill="#000000">Generated by SchemaSpy</text>
<!-- diagnoses -->
<g id="node1" class="node">
<title>diagnoses</title>
<g id="a_node1"><a xlink:href="../../tables/diagnoses.html" xlink:title="diagnoses" target="_top">
<polygon fill="#ffffff" stroke="transparent" points="314,-408.2 314,-469.2 418,-469.2 418,-408.2 314,-408.2"/>
<polygon fill="#f5f5f5" stroke="transparent" points="314,-445.7 314,-468.7 418,-468.7 418,-445.7 314,-445.7"/>
<polygon fill="none" stroke="#000000" points="314,-445.7 314,-468.7 418,-468.7 418,-445.7 314,-445.7"/>
<text text-anchor="start" x="319" y="-454.3" font-family="Helvetica,sans-Serif" font-weight="bold" font-size="11.00" fill="#000000">diagnoses</text>
<text text-anchor="start" x="383.5219" y="-453.8" font-family="Helvetica,sans-Serif" font-size="11.00" fill="#000000">[table]</text>
<polygon fill="none" stroke="#000000" points="314,-426.7 314,-445.7 418,-445.7 418,-426.7 314,-426.7"/>
<text text-anchor="start" x="317" y="-432.8" font-family="Helvetica,sans-Serif" font-size="11.00" fill="#000000">...</text>
<polygon fill="#ffffff" stroke="transparent" points="314,-407.7 314,-426.7 418,-426.7 418,-407.7 314,-407.7"/>
<polygon fill="none" stroke="#000000" points="314,-407.7 314,-426.7 418,-426.7 418,-407.7 314,-407.7"/>
<polygon fill="#ffffff" stroke="transparent" points="315,-408.7 315,-425.7 355,-425.7 355,-408.7 315,-408.7"/>
<text text-anchor="start" x="317" y="-413.8" font-family="Helvetica,sans-Serif" font-size="11.00" fill="#000000">&lt; 1</text>
<polygon fill="#ffffff" stroke="transparent" points="355,-408.7 355,-425.7 386,-425.7 386,-408.7 355,-408.7"/>
<text text-anchor="start" x="367.4431" y="-413.8" font-family="Helvetica,sans-Serif" font-size="11.00" fill="#000000"> &#160;</text>
<polygon fill="#ffffff" stroke="transparent" points="386,-408.7 386,-425.7 417,-425.7 417,-408.7 386,-408.7"/>
<text text-anchor="start" x="408.8862" y="-413.8" font-family="Helvetica,sans-Serif" font-size="11.00" fill="#000000"> &#160;</text>
<polygon fill="#000000" stroke="#000000" points="355,-408.7 355,-425.7 355,-425.7 355,-408.7 355,-408.7"/>
<polygon fill="#000000" stroke="#000000" points="386,-408.7 386,-425.7 386,-425.7 386,-408.7 386,-408.7"/>
</a>
</g>
</g>
<!-- patients -->
<g id="node2" class="node">
<title>patients</title>
<g id="a_node2"><a xlink:href="../../tables/patients.html" xlink:title="patients" target="_top">
<polygon fill="#ffffff" stroke="transparent" points="8,-170.2 8,-363.2 202,-363.2 202,-170.2 8,-170.2"/>
<polygon fill="#f5f5f5" stroke="transparent" points="8,-339.7 8,-362.7 202,-362.7 202,-339.7 8,-339.7"/>
<polygon fill="none" stroke="#000000" points="8,-339.7 8,-362.7 202,-362.7 202,-339.7 8,-339.7"/>
<text text-anchor="start" x="13" y="-348.3" font-family="Helvetica,sans-Serif" font-weight="bold" font-size="11.00" fill="#000000">patients</text>
<text text-anchor="start" x="167.0437" y="-347.8" font-family="Helvetica,sans-Serif" font-size="11.00" fill="#000000">[table]</text>
<polygon fill="none" stroke="#000000" points="8,-317.7 8,-339.7 202,-339.7 202,-317.7 8,-317.7"/>
<image xlink:href="../../images/primaryKeys.png" width="11px" height="12px" preserveAspectRatio="xMinYMin meet" x="13" y="-334.7"/>
<text text-anchor="start" x="28" y="-324.8" font-family="Helvetica,sans-Serif" font-size="11.00" fill="#000000">id</text>
<polygon fill="#ffffff" stroke="transparent" points="8,-295.7 8,-317.7 202,-317.7 202,-295.7 8,-295.7"/>
<polygon fill="none" stroke="#000000" points="8,-295.7 8,-317.7 202,-317.7 202,-295.7 8,-295.7"/>
<text text-anchor="start" x="28" y="-302.8" font-family="Helvetica,sans-Serif" font-size="11.00" fill="#000000">last_name</text>
<polygon fill="#ffffff" stroke="transparent" points="8,-273.7 8,-295.7 202,-295.7 202,-273.7 8,-273.7"/>
<polygon fill="none" stroke="#000000" points="8,-273.7 8,-295.7 202,-295.7 202,-273.7 8,-273.7"/>
<text text-anchor="start" x="28" y="-280.8" font-family="Helvetica,sans-Serif" font-size="11.00" fill="#000000">insurance_number</text>
<polygon fill="#ffffff" stroke="transparent" points="8,-251.7 8,-273.7 202,-273.7 202,-251.7 8,-251.7"/>
<polygon fill="none" stroke="#000000" points="8,-251.7 8,-273.7 202,-273.7 202,-251.7 8,-251.7"/>
<text text-anchor="start" x="28" y="-258.8" font-family="Helvetica,sans-Serif" font-size="11.00" fill="#000000">epa_id</text>
<polygon fill="#ffffff" stroke="transparent" points="8,-229.7 8,-251.7 202,-251.7 202,-229.7 8,-229.7"/>
<polygon fill="none" stroke="#000000" points="8,-229.7 8,-251.7 202,-251.7 202,-229.7 8,-229.7"/>
<text text-anchor="start" x="28" y="-236.8" font-family="Helvetica,sans-Serif" font-size="11.00" fill="#000000">epa_sync_status</text>
<polygon fill="#ffffff" stroke="transparent" points="8,-207.7 8,-229.7 202,-229.7 202,-207.7 8,-207.7"/>
<polygon fill="none" stroke="#000000" points="8,-207.7 8,-229.7 202,-229.7 202,-207.7 8,-207.7"/>
<text text-anchor="start" x="28" y="-214.8" font-family="Helvetica,sans-Serif" font-size="11.00" fill="#000000">epa_enabled</text>
<polygon fill="none" stroke="#000000" points="8,-188.7 8,-207.7 202,-207.7 202,-188.7 8,-188.7"/>
<text text-anchor="start" x="11" y="-194.8" font-family="Helvetica,sans-Serif" font-size="11.00" fill="#000000">...</text>
<polygon fill="#ffffff" stroke="transparent" points="8,-169.7 8,-188.7 202,-188.7 202,-169.7 8,-169.7"/>
<polygon fill="none" stroke="#000000" points="8,-169.7 8,-188.7 202,-188.7 202,-169.7 8,-169.7"/>
<polygon fill="#ffffff" stroke="transparent" points="9,-170.7 9,-187.7 62,-187.7 62,-170.7 9,-170.7"/>
<text text-anchor="start" x="11" y="-175.8" font-family="Helvetica,sans-Serif" font-size="11.00" fill="#000000"> &#160;</text>
<polygon fill="#ffffff" stroke="transparent" points="62,-170.7 62,-187.7 140,-187.7 140,-170.7 62,-170.7"/>
<text text-anchor="start" x="84.8053" y="-175.8" font-family="Helvetica,sans-Serif" font-size="11.00" fill="#000000">3 rows</text>
<polygon fill="#ffffff" stroke="transparent" points="140,-170.7 140,-187.7 201,-187.7 201,-170.7 140,-170.7"/>
<text text-anchor="start" x="183.4053" y="-175.8" font-family="Helvetica,sans-Serif" font-size="11.00" fill="#000000">3 &gt;</text>
<polygon fill="#000000" stroke="#000000" points="62,-170.7 62,-187.7 62,-187.7 62,-170.7 62,-170.7"/>
<polygon fill="#000000" stroke="#000000" points="140,-170.7 140,-187.7 140,-187.7 140,-170.7 140,-170.7"/>
</a>
</g>
</g>
<!-- diagnoses&#45;&gt;patients -->
<g id="edge1" class="edge">
<title>diagnoses:w&#45;&gt;patients:e</title>
<path fill="none" stroke="#000000" d="M299.3321,-434.7828C274.9793,-431.3923 264.9268,-418.6674 243,-397.7 217.2183,-373.0464 237.672,-328.7 202,-328.7"/>
<polygon fill="#000000" stroke="#000000" points="306.0156,-435.2007 313.7753,-439.293 310.0078,-435.4503 314,-435.7 314,-435.7 314,-435.7 310.0078,-435.4503 314.2247,-432.107 306.0156,-435.2007 306.0156,-435.2007"/>
<ellipse fill="none" stroke="#000000" cx="302.8218" cy="-435.0009" rx="3.2" ry="3.2"/>
</g>
<!-- epa_sync_log -->
<g id="node3" class="node">
<title>epa_sync_log</title>
<g id="a_node3"><a xlink:href="../../tables/epa_sync_log.html" xlink:title="epa_sync_log" target="_top">
<polygon fill="#ffffff" stroke="transparent" points="251,-120.7 251,-386.7 481,-386.7 481,-120.7 251,-120.7"/>
<polygon fill="#f5f5f5" stroke="transparent" points="253,-361.7 253,-384.7 479,-384.7 479,-361.7 253,-361.7"/>
<polygon fill="none" stroke="#000000" points="253,-361.7 253,-384.7 479,-384.7 479,-361.7 253,-361.7"/>
<text text-anchor="start" x="258" y="-370.3" font-family="Helvetica,sans-Serif" font-weight="bold" font-size="11.00" fill="#000000">epa_sync_log</text>
<text text-anchor="start" x="444.0437" y="-369.8" font-family="Helvetica,sans-Serif" font-size="11.00" fill="#000000">[table]</text>
<polygon fill="none" stroke="#000000" points="253,-339.7 253,-361.7 389,-361.7 389,-339.7 253,-339.7"/>
<image xlink:href="../../images/primaryKeys.png" width="11px" height="12px" preserveAspectRatio="xMinYMin meet" x="258" y="-356.7"/>
<text text-anchor="start" x="273" y="-346.8" font-family="Helvetica,sans-Serif" font-size="11.00" fill="#000000">id</text>
<polygon fill="none" stroke="#000000" points="389,-339.7 389,-361.7 479,-361.7 479,-339.7 389,-339.7"/>
<text text-anchor="start" x="392" y="-347.4" font-family="Helvetica,sans-Serif" font-size="11.00" fill="#000000">serial[10]</text>
<polygon fill="#ffffff" stroke="transparent" points="253,-317.7 253,-339.7 389,-339.7 389,-317.7 253,-317.7"/>
<polygon fill="none" stroke="#000000" points="253,-317.7 253,-339.7 389,-339.7 389,-317.7 253,-317.7"/>
<image xlink:href="../../images/foreignKeys.png" width="11px" height="12px" preserveAspectRatio="xMinYMin meet" x="258" y="-334.7"/>
<text text-anchor="start" x="273" y="-324.8" font-family="Helvetica,sans-Serif" font-size="11.00" fill="#000000">patient_id</text>
<polygon fill="none" stroke="#000000" points="389,-317.7 389,-339.7 479,-339.7 479,-317.7 389,-317.7"/>
<text text-anchor="start" x="392" y="-325.4" font-family="Helvetica,sans-Serif" font-size="11.00" fill="#000000">int4[10]</text>
<polygon fill="none" stroke="#000000" points="253,-295.7 253,-317.7 389,-317.7 389,-295.7 253,-295.7"/>
<text text-anchor="start" x="273" y="-302.8" font-family="Helvetica,sans-Serif" font-size="11.00" fill="#000000">sync_type</text>
<polygon fill="none" stroke="#000000" points="389,-295.7 389,-317.7 479,-317.7 479,-295.7 389,-295.7"/>
<text text-anchor="start" x="392" y="-303.4" font-family="Helvetica,sans-Serif" font-size="11.00" fill="#000000">varchar[20]</text>
<polygon fill="#ffffff" stroke="transparent" points="253,-273.7 253,-295.7 389,-295.7 389,-273.7 253,-273.7"/>
<polygon fill="none" stroke="#000000" points="253,-273.7 253,-295.7 389,-295.7 389,-273.7 253,-273.7"/>
<text text-anchor="start" x="273" y="-280.8" font-family="Helvetica,sans-Serif" font-size="11.00" fill="#000000">sync_status</text>
<polygon fill="none" stroke="#000000" points="389,-273.7 389,-295.7 479,-295.7 479,-273.7 389,-273.7"/>
<text text-anchor="start" x="392" y="-281.4" font-family="Helvetica,sans-Serif" font-size="11.00" fill="#000000">varchar[20]</text>
<polygon fill="none" stroke="#000000" points="253,-251.7 253,-273.7 389,-273.7 389,-251.7 253,-251.7"/>
<text text-anchor="start" x="273" y="-258.8" font-family="Helvetica,sans-Serif" font-size="11.00" fill="#000000">epa_id</text>
<polygon fill="none" stroke="#000000" points="389,-251.7 389,-273.7 479,-273.7 479,-251.7 389,-251.7"/>
<text text-anchor="start" x="392" y="-259.4" font-family="Helvetica,sans-Serif" font-size="11.00" fill="#000000">varchar[100]</text>
<polygon fill="none" stroke="#000000" points="253,-229.7 253,-251.7 389,-251.7 389,-229.7 253,-229.7"/>
<text text-anchor="start" x="273" y="-236.8" font-family="Helvetica,sans-Serif" font-size="11.00" fill="#000000">fhir_payload</text>
<polygon fill="none" stroke="#000000" points="389,-229.7 389,-251.7 479,-251.7 479,-229.7 389,-229.7"/>
<text text-anchor="start" x="391.5043" y="-237.4" font-family="Helvetica,sans-Serif" font-size="11.00" fill="#000000">text[2147483647]</text>
<polygon fill="none" stroke="#000000" points="253,-207.7 253,-229.7 389,-229.7 389,-207.7 253,-207.7"/>
<text text-anchor="start" x="273" y="-214.8" font-family="Helvetica,sans-Serif" font-size="11.00" fill="#000000">error_message</text>
<polygon fill="none" stroke="#000000" points="389,-207.7 389,-229.7 479,-229.7 479,-207.7 389,-207.7"/>
<text text-anchor="start" x="391.5043" y="-215.4" font-family="Helvetica,sans-Serif" font-size="11.00" fill="#000000">text[2147483647]</text>
<polygon fill="#ffffff" stroke="transparent" points="253,-185.7 253,-207.7 389,-207.7 389,-185.7 253,-185.7"/>
<polygon fill="none" stroke="#000000" points="253,-185.7 253,-207.7 389,-207.7 389,-185.7 253,-185.7"/>
<text text-anchor="start" x="273" y="-192.8" font-family="Helvetica,sans-Serif" font-size="11.00" fill="#000000">sync_timestamp</text>
<polygon fill="none" stroke="#000000" points="389,-185.7 389,-207.7 479,-207.7 479,-185.7 389,-185.7"/>
<text text-anchor="start" x="392" y="-193.4" font-family="Helvetica,sans-Serif" font-size="11.00" fill="#000000">timestamp[29,6]</text>
<polygon fill="none" stroke="#000000" points="253,-163.7 253,-185.7 389,-185.7 389,-163.7 253,-163.7"/>
<text text-anchor="start" x="273" y="-170.8" font-family="Helvetica,sans-Serif" font-size="11.00" fill="#000000">sync_duration_ms</text>
<polygon fill="none" stroke="#000000" points="389,-163.7 389,-185.7 479,-185.7 479,-163.7 389,-163.7"/>
<text text-anchor="start" x="392" y="-171.4" font-family="Helvetica,sans-Serif" font-size="11.00" fill="#000000">int4[10]</text>
<polygon fill="none" stroke="#000000" points="253,-141.7 253,-163.7 389,-163.7 389,-141.7 253,-141.7"/>
<text text-anchor="start" x="273" y="-148.8" font-family="Helvetica,sans-Serif" font-size="11.00" fill="#000000">user_id</text>
<polygon fill="none" stroke="#000000" points="389,-141.7 389,-163.7 479,-163.7 479,-141.7 389,-141.7"/>
<text text-anchor="start" x="392" y="-149.4" font-family="Helvetica,sans-Serif" font-size="11.00" fill="#000000">varchar[100]</text>
<polygon fill="#ffffff" stroke="transparent" points="253,-122.7 253,-141.7 479,-141.7 479,-122.7 253,-122.7"/>
<polygon fill="none" stroke="#000000" points="253,-122.7 253,-141.7 479,-141.7 479,-122.7 253,-122.7"/>
<polygon fill="#ffffff" stroke="transparent" points="254,-123.7 254,-140.7 332,-140.7 332,-123.7 254,-123.7"/>
<text text-anchor="start" x="256" y="-128.8" font-family="Helvetica,sans-Serif" font-size="11.00" fill="#000000">&lt; 1</text>
<polygon fill="#ffffff" stroke="transparent" points="332,-123.7 332,-140.7 401,-140.7 401,-123.7 332,-123.7"/>
<text text-anchor="start" x="363.4431" y="-128.8" font-family="Helvetica,sans-Serif" font-size="11.00" fill="#000000"> &#160;</text>
<polygon fill="#ffffff" stroke="transparent" points="401,-123.7 401,-140.7 478,-140.7 478,-123.7 401,-123.7"/>
<text text-anchor="start" x="460.4053" y="-128.8" font-family="Helvetica,sans-Serif" font-size="11.00" fill="#000000">0 &gt;</text>
<polygon fill="#000000" stroke="#000000" points="332,-123.7 332,-140.7 332,-140.7 332,-123.7 332,-123.7"/>
<polygon fill="#000000" stroke="#000000" points="401,-123.7 401,-140.7 401,-140.7 401,-123.7 401,-123.7"/>
<polygon fill="none" stroke="#000000" stroke-width="2" points="252,-121.7 252,-385.7 480,-385.7 480,-121.7 252,-121.7"/>
</a>
</g>
</g>
<!-- epa_sync_log&#45;&gt;patients -->
<g id="edge2" class="edge">
<title>epa_sync_log:w&#45;&gt;patients:e</title>
<path fill="none" stroke="#000000" d="M238.276,-328.7C226.2815,-328.7 218.8229,-328.7 202,-328.7"/>
<polygon fill="#000000" stroke="#000000" points="245,-328.7001 253,-332.3 249,-328.7 253,-328.7 253,-328.7 253,-328.7 249,-328.7 253,-325.1 245,-328.7001 245,-328.7001"/>
<ellipse fill="none" stroke="#000000" cx="241.8" cy="-328.7001" rx="3.2" ry="3.2"/>
</g>
<!-- medications -->
<g id="node4" class="node">
<title>medications</title>
<g id="a_node4"><a xlink:href="../../tables/medications.html" xlink:title="medications" target="_top">
<polygon fill="#ffffff" stroke="transparent" points="307,-38.2 307,-99.2 425,-99.2 425,-38.2 307,-38.2"/>
<polygon fill="#f5f5f5" stroke="transparent" points="307,-75.7 307,-98.7 425,-98.7 425,-75.7 307,-75.7"/>
<polygon fill="none" stroke="#000000" points="307,-75.7 307,-98.7 425,-98.7 425,-75.7 307,-75.7"/>
<text text-anchor="start" x="312" y="-84.3" font-family="Helvetica,sans-Serif" font-weight="bold" font-size="11.00" fill="#000000">medications</text>
<text text-anchor="start" x="390.5219" y="-83.8" font-family="Helvetica,sans-Serif" font-size="11.00" fill="#000000">[table]</text>
<polygon fill="none" stroke="#000000" points="307,-56.7 307,-75.7 425,-75.7 425,-56.7 307,-56.7"/>
<text text-anchor="start" x="310" y="-62.8" font-family="Helvetica,sans-Serif" font-size="11.00" fill="#000000">...</text>
<polygon fill="#ffffff" stroke="transparent" points="307,-37.7 307,-56.7 425,-56.7 425,-37.7 307,-37.7"/>
<polygon fill="none" stroke="#000000" points="307,-37.7 307,-56.7 425,-56.7 425,-37.7 307,-37.7"/>
<polygon fill="#ffffff" stroke="transparent" points="308,-38.7 308,-55.7 353,-55.7 353,-38.7 308,-38.7"/>
<text text-anchor="start" x="310" y="-43.8" font-family="Helvetica,sans-Serif" font-size="11.00" fill="#000000">&lt; 1</text>
<polygon fill="#ffffff" stroke="transparent" points="353,-38.7 353,-55.7 389,-55.7 389,-38.7 353,-38.7"/>
<text text-anchor="start" x="367.9431" y="-43.8" font-family="Helvetica,sans-Serif" font-size="11.00" fill="#000000"> &#160;</text>
<polygon fill="#ffffff" stroke="transparent" points="389,-38.7 389,-55.7 424,-55.7 424,-38.7 389,-38.7"/>
<text text-anchor="start" x="415.8862" y="-43.8" font-family="Helvetica,sans-Serif" font-size="11.00" fill="#000000"> &#160;</text>
<polygon fill="#000000" stroke="#000000" points="353,-38.7 353,-55.7 353,-55.7 353,-38.7 353,-38.7"/>
<polygon fill="#000000" stroke="#000000" points="389,-38.7 389,-55.7 389,-55.7 389,-38.7 389,-38.7"/>
</a>
</g>
</g>
<!-- medications&#45;&gt;patients -->
<g id="edge3" class="edge">
<title>medications:w&#45;&gt;patients:e</title>
<path fill="none" stroke="#000000" d="M292.3601,-66.8457C268.7704,-70.9546 258.88,-86.0304 243,-110.7 216.3191,-152.1488 251.2938,-328.7 202,-328.7"/>
<polygon fill="#000000" stroke="#000000" points="299.0244,-66.3242 307.2809,-69.289 303.0122,-66.0121 307,-65.7 307,-65.7 307,-65.7 303.0122,-66.0121 306.7191,-62.111 299.0244,-66.3242 299.0244,-66.3242"/>
<ellipse fill="none" stroke="#000000" cx="295.8341" cy="-66.5739" rx="3.2" ry="3.2"/>
</g>
</g>
</svg>
