<?xml version="1.0" encoding="UTF-8" standalone="no"?>
<!DOCTYPE svg PUBLIC "-//W3C//DTD SVG 1.1//EN"
 "http://www.w3.org/Graphics/SVG/1.1/DTD/svg11.dtd">
<!-- Generated by graphviz version 2.40.1 (20161225.0304)
 -->
<!-- Title: oneDegreeRelationshipsDiagram Pages: 1 -->
<svg width="263pt" height="209pt"
 viewBox="0.00 0.00 263.00 209.20" xmlns="http://www.w3.org/2000/svg" xmlns:xlink="http://www.w3.org/1999/xlink">
<g id="graph0" class="graph" transform="scale(1 1) rotate(0) translate(4 205.2)">
<title>oneDegreeRelationshipsDiagram</title>
<polygon fill="#ffffff" stroke="transparent" points="-4,4 -4,-205.2 259,-205.2 259,4 -4,4"/>
<text text-anchor="middle" x="72.4936" y="-7.3" font-family="Helvetica,sans-Serif" font-size="11.00" fill="#000000">Generated by SchemaSpy</text>
<!-- epa_statistics -->
<g id="node1" class="node">
<title>epa_statistics</title>
<g id="a_node1"><a xlink:href="../../tables/epa_statistics.html" xlink:title="epa_statistics" target="_top">
<polygon fill="#ffffff" stroke="transparent" points="8,-38.2 8,-197.2 247,-197.2 247,-38.2 8,-38.2"/>
<polygon fill="#f5f5f5" stroke="transparent" points="10.5,-171.7 10.5,-194.7 245.5,-194.7 245.5,-171.7 10.5,-171.7"/>
<polygon fill="none" stroke="#000000" points="10.5,-171.7 10.5,-194.7 245.5,-194.7 245.5,-171.7 10.5,-171.7"/>
<text text-anchor="start" x="15.5" y="-180.3" font-family="Helvetica,sans-Serif" font-weight="bold" font-size="11.00" fill="#000000">epa_statistics</text>
<text text-anchor="start" x="212.3895" y="-179.8" font-family="Helvetica,sans-Serif" font-size="11.00" fill="#000000">[view]</text>
<polygon fill="none" stroke="#000000" points="10.5,-149.7 10.5,-171.7 161.5,-171.7 161.5,-149.7 10.5,-149.7"/>
<text text-anchor="start" x="30.5" y="-156.8" font-family="Helvetica,sans-Serif" font-size="11.00" fill="#000000">total_patients</text>
<polygon fill="none" stroke="#000000" points="161.5,-149.7 161.5,-171.7 245.5,-171.7 245.5,-149.7 161.5,-149.7"/>
<text text-anchor="start" x="164.5" y="-157.4" font-family="Helvetica,sans-Serif" font-size="11.00" fill="#000000">int8[19]</text>
<polygon fill="none" stroke="#000000" points="10.5,-127.7 10.5,-149.7 161.5,-149.7 161.5,-127.7 10.5,-127.7"/>
<text text-anchor="start" x="30.5" y="-134.8" font-family="Helvetica,sans-Serif" font-size="11.00" fill="#000000">epa_enabled_count</text>
<polygon fill="none" stroke="#000000" points="161.5,-127.7 161.5,-149.7 245.5,-149.7 245.5,-127.7 161.5,-127.7"/>
<text text-anchor="start" x="164.5" y="-135.4" font-family="Helvetica,sans-Serif" font-size="11.00" fill="#000000">int8[19]</text>
<polygon fill="none" stroke="#000000" points="10.5,-105.7 10.5,-127.7 161.5,-127.7 161.5,-105.7 10.5,-105.7"/>
<text text-anchor="start" x="30.5" y="-112.8" font-family="Helvetica,sans-Serif" font-size="11.00" fill="#000000">synced_count</text>
<polygon fill="none" stroke="#000000" points="161.5,-105.7 161.5,-127.7 245.5,-127.7 245.5,-105.7 161.5,-105.7"/>
<text text-anchor="start" x="164.5" y="-113.4" font-family="Helvetica,sans-Serif" font-size="11.00" fill="#000000">int8[19]</text>
<polygon fill="none" stroke="#000000" points="10.5,-83.7 10.5,-105.7 161.5,-105.7 161.5,-83.7 10.5,-83.7"/>
<text text-anchor="start" x="30.5" y="-90.8" font-family="Helvetica,sans-Serif" font-size="11.00" fill="#000000">pending_count</text>
<polygon fill="none" stroke="#000000" points="161.5,-83.7 161.5,-105.7 245.5,-105.7 245.5,-83.7 161.5,-83.7"/>
<text text-anchor="start" x="164.5" y="-91.4" font-family="Helvetica,sans-Serif" font-size="11.00" fill="#000000">int8[19]</text>
<polygon fill="none" stroke="#000000" points="10.5,-61.7 10.5,-83.7 161.5,-83.7 161.5,-61.7 10.5,-61.7"/>
<text text-anchor="start" x="30.5" y="-68.8" font-family="Helvetica,sans-Serif" font-size="11.00" fill="#000000">error_count</text>
<polygon fill="none" stroke="#000000" points="161.5,-61.7 161.5,-83.7 245.5,-83.7 245.5,-61.7 161.5,-61.7"/>
<text text-anchor="start" x="164.5" y="-69.4" font-family="Helvetica,sans-Serif" font-size="11.00" fill="#000000">int8[19]</text>
<polygon fill="none" stroke="#000000" points="10.5,-39.7 10.5,-61.7 161.5,-61.7 161.5,-39.7 10.5,-39.7"/>
<text text-anchor="start" x="30.5" y="-46.8" font-family="Helvetica,sans-Serif" font-size="11.00" fill="#000000">last_successful_sync</text>
<polygon fill="none" stroke="#000000" points="161.5,-39.7 161.5,-61.7 245.5,-61.7 245.5,-39.7 161.5,-39.7"/>
<text text-anchor="start" x="164.3807" y="-47.4" font-family="Helvetica,sans-Serif" font-size="11.00" fill="#000000">timestamp[29,6]</text>
<polygon fill="none" stroke="#000000" stroke-width="2" points="9,-39.2 9,-196.2 246,-196.2 246,-39.2 9,-39.2"/>
</a>
</g>
</g>
</g>
</svg>
