<?xml version="1.0" encoding="UTF-8" standalone="no"?>
<!DOCTYPE svg PUBLIC "-//W3C//DTD SVG 1.1//EN"
 "http://www.w3.org/Graphics/SVG/1.1/DTD/svg11.dtd">
<!-- Generated by graphviz version 2.40.1 (20161225.0304)
 -->
<!-- Title: oneDegreeRelationshipsDiagram Pages: 1 -->
<svg width="497pt" height="316pt"
 viewBox="0.00 0.00 497.00 316.20" xmlns="http://www.w3.org/2000/svg" xmlns:xlink="http://www.w3.org/1999/xlink">
<g id="graph0" class="graph" transform="scale(1 1) rotate(0) translate(4 312.2)">
<title>oneDegreeRelationshipsDiagram</title>
<polygon fill="#ffffff" stroke="transparent" points="-4,4 -4,-312.2 493,-312.2 493,4 -4,4"/>
<text text-anchor="middle" x="72.4936" y="-7.3" font-family="Helvetica,sans-Serif" font-size="11.00" fill="#000000">Generated by SchemaSpy</text>
<!-- epa_sync_log -->
<g id="node1" class="node">
<title>epa_sync_log</title>
<g id="a_node1"><a xlink:href="../../tables/epa_sync_log.html" xlink:title="epa_sync_log" target="_top">
<polygon fill="#ffffff" stroke="transparent" points="251,-38.2 251,-304.2 481,-304.2 481,-38.2 251,-38.2"/>
<polygon fill="#f5f5f5" stroke="transparent" points="253,-279.2 253,-302.2 479,-302.2 479,-279.2 253,-279.2"/>
<polygon fill="none" stroke="#000000" points="253,-279.2 253,-302.2 479,-302.2 479,-279.2 253,-279.2"/>
<text text-anchor="start" x="258" y="-287.8" font-family="Helvetica,sans-Serif" font-weight="bold" font-size="11.00" fill="#000000">epa_sync_log</text>
<text text-anchor="start" x="444.0437" y="-287.3" font-family="Helvetica,sans-Serif" font-size="11.00" fill="#000000">[table]</text>
<polygon fill="none" stroke="#000000" points="253,-257.2 253,-279.2 389,-279.2 389,-257.2 253,-257.2"/>
<image xlink:href="../../images/primaryKeys.png" width="11px" height="12px" preserveAspectRatio="xMinYMin meet" x="258" y="-274.2"/>
<text text-anchor="start" x="273" y="-264.3" font-family="Helvetica,sans-Serif" font-size="11.00" fill="#000000">id</text>
<polygon fill="none" stroke="#000000" points="389,-257.2 389,-279.2 479,-279.2 479,-257.2 389,-257.2"/>
<text text-anchor="start" x="392" y="-264.9" font-family="Helvetica,sans-Serif" font-size="11.00" fill="#000000">serial[10]</text>
<polygon fill="#ffffff" stroke="transparent" points="253,-235.2 253,-257.2 389,-257.2 389,-235.2 253,-235.2"/>
<polygon fill="none" stroke="#000000" points="253,-235.2 253,-257.2 389,-257.2 389,-235.2 253,-235.2"/>
<image xlink:href="../../images/foreignKeys.png" width="11px" height="12px" preserveAspectRatio="xMinYMin meet" x="258" y="-252.2"/>
<text text-anchor="start" x="273" y="-242.3" font-family="Helvetica,sans-Serif" font-size="11.00" fill="#000000">patient_id</text>
<polygon fill="none" stroke="#000000" points="389,-235.2 389,-257.2 479,-257.2 479,-235.2 389,-235.2"/>
<text text-anchor="start" x="392" y="-242.9" font-family="Helvetica,sans-Serif" font-size="11.00" fill="#000000">int4[10]</text>
<polygon fill="none" stroke="#000000" points="253,-213.2 253,-235.2 389,-235.2 389,-213.2 253,-213.2"/>
<text text-anchor="start" x="273" y="-220.3" font-family="Helvetica,sans-Serif" font-size="11.00" fill="#000000">sync_type</text>
<polygon fill="none" stroke="#000000" points="389,-213.2 389,-235.2 479,-235.2 479,-213.2 389,-213.2"/>
<text text-anchor="start" x="392" y="-220.9" font-family="Helvetica,sans-Serif" font-size="11.00" fill="#000000">varchar[20]</text>
<polygon fill="#ffffff" stroke="transparent" points="253,-191.2 253,-213.2 389,-213.2 389,-191.2 253,-191.2"/>
<polygon fill="none" stroke="#000000" points="253,-191.2 253,-213.2 389,-213.2 389,-191.2 253,-191.2"/>
<text text-anchor="start" x="273" y="-198.3" font-family="Helvetica,sans-Serif" font-size="11.00" fill="#000000">sync_status</text>
<polygon fill="none" stroke="#000000" points="389,-191.2 389,-213.2 479,-213.2 479,-191.2 389,-191.2"/>
<text text-anchor="start" x="392" y="-198.9" font-family="Helvetica,sans-Serif" font-size="11.00" fill="#000000">varchar[20]</text>
<polygon fill="none" stroke="#000000" points="253,-169.2 253,-191.2 389,-191.2 389,-169.2 253,-169.2"/>
<text text-anchor="start" x="273" y="-176.3" font-family="Helvetica,sans-Serif" font-size="11.00" fill="#000000">epa_id</text>
<polygon fill="none" stroke="#000000" points="389,-169.2 389,-191.2 479,-191.2 479,-169.2 389,-169.2"/>
<text text-anchor="start" x="392" y="-176.9" font-family="Helvetica,sans-Serif" font-size="11.00" fill="#000000">varchar[100]</text>
<polygon fill="none" stroke="#000000" points="253,-147.2 253,-169.2 389,-169.2 389,-147.2 253,-147.2"/>
<text text-anchor="start" x="273" y="-154.3" font-family="Helvetica,sans-Serif" font-size="11.00" fill="#000000">fhir_payload</text>
<polygon fill="none" stroke="#000000" points="389,-147.2 389,-169.2 479,-169.2 479,-147.2 389,-147.2"/>
<text text-anchor="start" x="391.5043" y="-154.9" font-family="Helvetica,sans-Serif" font-size="11.00" fill="#000000">text[2147483647]</text>
<polygon fill="none" stroke="#000000" points="253,-125.2 253,-147.2 389,-147.2 389,-125.2 253,-125.2"/>
<text text-anchor="start" x="273" y="-132.3" font-family="Helvetica,sans-Serif" font-size="11.00" fill="#000000">error_message</text>
<polygon fill="none" stroke="#000000" points="389,-125.2 389,-147.2 479,-147.2 479,-125.2 389,-125.2"/>
<text text-anchor="start" x="391.5043" y="-132.9" font-family="Helvetica,sans-Serif" font-size="11.00" fill="#000000">text[2147483647]</text>
<polygon fill="#ffffff" stroke="transparent" points="253,-103.2 253,-125.2 389,-125.2 389,-103.2 253,-103.2"/>
<polygon fill="none" stroke="#000000" points="253,-103.2 253,-125.2 389,-125.2 389,-103.2 253,-103.2"/>
<text text-anchor="start" x="273" y="-110.3" font-family="Helvetica,sans-Serif" font-size="11.00" fill="#000000">sync_timestamp</text>
<polygon fill="none" stroke="#000000" points="389,-103.2 389,-125.2 479,-125.2 479,-103.2 389,-103.2"/>
<text text-anchor="start" x="392" y="-110.9" font-family="Helvetica,sans-Serif" font-size="11.00" fill="#000000">timestamp[29,6]</text>
<polygon fill="none" stroke="#000000" points="253,-81.2 253,-103.2 389,-103.2 389,-81.2 253,-81.2"/>
<text text-anchor="start" x="273" y="-88.3" font-family="Helvetica,sans-Serif" font-size="11.00" fill="#000000">sync_duration_ms</text>
<polygon fill="none" stroke="#000000" points="389,-81.2 389,-103.2 479,-103.2 479,-81.2 389,-81.2"/>
<text text-anchor="start" x="392" y="-88.9" font-family="Helvetica,sans-Serif" font-size="11.00" fill="#000000">int4[10]</text>
<polygon fill="none" stroke="#000000" points="253,-59.2 253,-81.2 389,-81.2 389,-59.2 253,-59.2"/>
<text text-anchor="start" x="273" y="-66.3" font-family="Helvetica,sans-Serif" font-size="11.00" fill="#000000">user_id</text>
<polygon fill="none" stroke="#000000" points="389,-59.2 389,-81.2 479,-81.2 479,-59.2 389,-59.2"/>
<text text-anchor="start" x="392" y="-66.9" font-family="Helvetica,sans-Serif" font-size="11.00" fill="#000000">varchar[100]</text>
<polygon fill="#ffffff" stroke="transparent" points="253,-40.2 253,-59.2 479,-59.2 479,-40.2 253,-40.2"/>
<polygon fill="none" stroke="#000000" points="253,-40.2 253,-59.2 479,-59.2 479,-40.2 253,-40.2"/>
<polygon fill="#ffffff" stroke="transparent" points="254,-41.2 254,-58.2 332,-58.2 332,-41.2 254,-41.2"/>
<text text-anchor="start" x="256" y="-46.3" font-family="Helvetica,sans-Serif" font-size="11.00" fill="#000000">&lt; 1</text>
<polygon fill="#ffffff" stroke="transparent" points="332,-41.2 332,-58.2 401,-58.2 401,-41.2 332,-41.2"/>
<text text-anchor="start" x="363.4431" y="-46.3" font-family="Helvetica,sans-Serif" font-size="11.00" fill="#000000"> &#160;</text>
<polygon fill="#ffffff" stroke="transparent" points="401,-41.2 401,-58.2 478,-58.2 478,-41.2 401,-41.2"/>
<text text-anchor="start" x="460.4053" y="-46.3" font-family="Helvetica,sans-Serif" font-size="11.00" fill="#000000">0 &gt;</text>
<polygon fill="#000000" stroke="#000000" points="332,-41.2 332,-58.2 332,-58.2 332,-41.2 332,-41.2"/>
<polygon fill="#000000" stroke="#000000" points="401,-41.2 401,-58.2 401,-58.2 401,-41.2 401,-41.2"/>
<polygon fill="none" stroke="#000000" stroke-width="2" points="252,-39.2 252,-303.2 480,-303.2 480,-39.2 252,-39.2"/>
</a>
</g>
</g>
<!-- patients -->
<g id="node2" class="node">
<title>patients</title>
<g id="a_node2"><a xlink:href="../../tables/patients.html" xlink:title="patients" target="_top">
<polygon fill="#ffffff" stroke="transparent" points="8,-87.7 8,-280.7 202,-280.7 202,-87.7 8,-87.7"/>
<polygon fill="#f5f5f5" stroke="transparent" points="8,-257.2 8,-280.2 202,-280.2 202,-257.2 8,-257.2"/>
<polygon fill="none" stroke="#000000" points="8,-257.2 8,-280.2 202,-280.2 202,-257.2 8,-257.2"/>
<text text-anchor="start" x="13" y="-265.8" font-family="Helvetica,sans-Serif" font-weight="bold" font-size="11.00" fill="#000000">patients</text>
<text text-anchor="start" x="167.0437" y="-265.3" font-family="Helvetica,sans-Serif" font-size="11.00" fill="#000000">[table]</text>
<polygon fill="none" stroke="#000000" points="8,-235.2 8,-257.2 202,-257.2 202,-235.2 8,-235.2"/>
<image xlink:href="../../images/primaryKeys.png" width="11px" height="12px" preserveAspectRatio="xMinYMin meet" x="13" y="-252.2"/>
<text text-anchor="start" x="28" y="-242.3" font-family="Helvetica,sans-Serif" font-size="11.00" fill="#000000">id</text>
<polygon fill="#ffffff" stroke="transparent" points="8,-213.2 8,-235.2 202,-235.2 202,-213.2 8,-213.2"/>
<polygon fill="none" stroke="#000000" points="8,-213.2 8,-235.2 202,-235.2 202,-213.2 8,-213.2"/>
<text text-anchor="start" x="28" y="-220.3" font-family="Helvetica,sans-Serif" font-size="11.00" fill="#000000">last_name</text>
<polygon fill="#ffffff" stroke="transparent" points="8,-191.2 8,-213.2 202,-213.2 202,-191.2 8,-191.2"/>
<polygon fill="none" stroke="#000000" points="8,-191.2 8,-213.2 202,-213.2 202,-191.2 8,-191.2"/>
<text text-anchor="start" x="28" y="-198.3" font-family="Helvetica,sans-Serif" font-size="11.00" fill="#000000">insurance_number</text>
<polygon fill="#ffffff" stroke="transparent" points="8,-169.2 8,-191.2 202,-191.2 202,-169.2 8,-169.2"/>
<polygon fill="none" stroke="#000000" points="8,-169.2 8,-191.2 202,-191.2 202,-169.2 8,-169.2"/>
<text text-anchor="start" x="28" y="-176.3" font-family="Helvetica,sans-Serif" font-size="11.00" fill="#000000">epa_id</text>
<polygon fill="#ffffff" stroke="transparent" points="8,-147.2 8,-169.2 202,-169.2 202,-147.2 8,-147.2"/>
<polygon fill="none" stroke="#000000" points="8,-147.2 8,-169.2 202,-169.2 202,-147.2 8,-147.2"/>
<text text-anchor="start" x="28" y="-154.3" font-family="Helvetica,sans-Serif" font-size="11.00" fill="#000000">epa_sync_status</text>
<polygon fill="#ffffff" stroke="transparent" points="8,-125.2 8,-147.2 202,-147.2 202,-125.2 8,-125.2"/>
<polygon fill="none" stroke="#000000" points="8,-125.2 8,-147.2 202,-147.2 202,-125.2 8,-125.2"/>
<text text-anchor="start" x="28" y="-132.3" font-family="Helvetica,sans-Serif" font-size="11.00" fill="#000000">epa_enabled</text>
<polygon fill="none" stroke="#000000" points="8,-106.2 8,-125.2 202,-125.2 202,-106.2 8,-106.2"/>
<text text-anchor="start" x="11" y="-112.3" font-family="Helvetica,sans-Serif" font-size="11.00" fill="#000000">...</text>
<polygon fill="#ffffff" stroke="transparent" points="8,-87.2 8,-106.2 202,-106.2 202,-87.2 8,-87.2"/>
<polygon fill="none" stroke="#000000" points="8,-87.2 8,-106.2 202,-106.2 202,-87.2 8,-87.2"/>
<polygon fill="#ffffff" stroke="transparent" points="9,-88.2 9,-105.2 55,-105.2 55,-88.2 9,-88.2"/>
<text text-anchor="start" x="11" y="-93.3" font-family="Helvetica,sans-Serif" font-size="11.00" fill="#000000"> &#160;</text>
<polygon fill="#ffffff" stroke="transparent" points="55,-88.2 55,-105.2 147,-105.2 147,-88.2 55,-88.2"/>
<text text-anchor="start" x="74.1045" y="-93.3" font-family="Helvetica,sans-Serif" font-size="11.00" fill="#000000">1,003 rows</text>
<polygon fill="#ffffff" stroke="transparent" points="147,-88.2 147,-105.2 201,-105.2 201,-88.2 147,-88.2"/>
<text text-anchor="start" x="183.4053" y="-93.3" font-family="Helvetica,sans-Serif" font-size="11.00" fill="#000000">3 &gt;</text>
<polygon fill="#000000" stroke="#000000" points="55,-88.2 55,-105.2 55,-105.2 55,-88.2 55,-88.2"/>
<polygon fill="#000000" stroke="#000000" points="147,-88.2 147,-105.2 147,-105.2 147,-88.2 147,-88.2"/>
</a>
</g>
</g>
<!-- epa_sync_log&#45;&gt;patients -->
<g id="edge1" class="edge">
<title>epa_sync_log:w&#45;&gt;patients:e</title>
<path fill="none" stroke="#000000" d="M238.276,-246.2C226.2815,-246.2 218.8229,-246.2 202,-246.2"/>
<polygon fill="#000000" stroke="#000000" points="245,-246.2001 253,-249.8 249,-246.2 253,-246.2 253,-246.2 253,-246.2 249,-246.2 253,-242.6 245,-246.2001 245,-246.2001"/>
<ellipse fill="none" stroke="#000000" cx="241.8" cy="-246.2001" rx="3.2" ry="3.2"/>
</g>
</g>
</svg>
