<?xml version="1.0" encoding="UTF-8" standalone="no"?>
<!DOCTYPE svg PUBLIC "-//W3C//DTD SVG 1.1//EN"
 "http://www.w3.org/Graphics/SVG/1.1/DTD/svg11.dtd">
<!-- Generated by graphviz version 2.40.1 (20161225.0304)
 -->
<!-- Title: twoDegreesRelationshipsDiagram Pages: 1 -->
<svg width="497pt" height="503pt"
 viewBox="0.00 0.00 497.00 502.70" xmlns="http://www.w3.org/2000/svg" xmlns:xlink="http://www.w3.org/1999/xlink">
<g id="graph0" class="graph" transform="scale(1 1) rotate(0) translate(4 498.7)">
<title>twoDegreesRelationshipsDiagram</title>
<polygon fill="#ffffff" stroke="transparent" points="-4,4 -4,-498.7 493,-498.7 493,4 -4,4"/>
<text text-anchor="middle" x="72.4936" y="-7.3" font-family="Helvetica,sans-Serif" font-size="11.00" fill="#000000">Generated by SchemaSpy</text>
<!-- diagnoses -->
<g id="node1" class="node">
<title>diagnoses</title>
<g id="a_node1"><a xlink:href="../../tables/diagnoses.html" xlink:title="diagnoses" target="_top">
<polygon fill="#ffffff" stroke="transparent" points="314,-429.7 314,-490.7 418,-490.7 418,-429.7 314,-429.7"/>
<polygon fill="#f5f5f5" stroke="transparent" points="314,-467.2 314,-490.2 418,-490.2 418,-467.2 314,-467.2"/>
<polygon fill="none" stroke="#000000" points="314,-467.2 314,-490.2 418,-490.2 418,-467.2 314,-467.2"/>
<text text-anchor="start" x="319" y="-475.8" font-family="Helvetica,sans-Serif" font-weight="bold" font-size="11.00" fill="#000000">diagnoses</text>
<text text-anchor="start" x="383.5219" y="-475.3" font-family="Helvetica,sans-Serif" font-size="11.00" fill="#000000">[table]</text>
<polygon fill="none" stroke="#000000" points="314,-448.2 314,-467.2 418,-467.2 418,-448.2 314,-448.2"/>
<text text-anchor="start" x="317" y="-454.3" font-family="Helvetica,sans-Serif" font-size="11.00" fill="#000000">...</text>
<polygon fill="#ffffff" stroke="transparent" points="314,-429.2 314,-448.2 418,-448.2 418,-429.2 314,-429.2"/>
<polygon fill="none" stroke="#000000" points="314,-429.2 314,-448.2 418,-448.2 418,-429.2 314,-429.2"/>
<polygon fill="#ffffff" stroke="transparent" points="315,-430.2 315,-447.2 355,-447.2 355,-430.2 315,-430.2"/>
<text text-anchor="start" x="317" y="-435.3" font-family="Helvetica,sans-Serif" font-size="11.00" fill="#000000">&lt; 1</text>
<polygon fill="#ffffff" stroke="transparent" points="355,-430.2 355,-447.2 386,-447.2 386,-430.2 355,-430.2"/>
<text text-anchor="start" x="367.4431" y="-435.3" font-family="Helvetica,sans-Serif" font-size="11.00" fill="#000000"> &#160;</text>
<polygon fill="#ffffff" stroke="transparent" points="386,-430.2 386,-447.2 417,-447.2 417,-430.2 386,-430.2"/>
<text text-anchor="start" x="408.8862" y="-435.3" font-family="Helvetica,sans-Serif" font-size="11.00" fill="#000000"> &#160;</text>
<polygon fill="#000000" stroke="#000000" points="355,-430.2 355,-447.2 355,-447.2 355,-430.2 355,-430.2"/>
<polygon fill="#000000" stroke="#000000" points="386,-430.2 386,-447.2 386,-447.2 386,-430.2 386,-430.2"/>
</a>
</g>
</g>
<!-- patients -->
<g id="node2" class="node">
<title>patients</title>
<g id="a_node2"><a xlink:href="../../tables/patients.html" xlink:title="patients" target="_top">
<polygon fill="#ffffff" stroke="transparent" points="8,-216.7 8,-409.7 202,-409.7 202,-216.7 8,-216.7"/>
<polygon fill="#f5f5f5" stroke="transparent" points="8,-386.2 8,-409.2 202,-409.2 202,-386.2 8,-386.2"/>
<polygon fill="none" stroke="#000000" points="8,-386.2 8,-409.2 202,-409.2 202,-386.2 8,-386.2"/>
<text text-anchor="start" x="13" y="-394.8" font-family="Helvetica,sans-Serif" font-weight="bold" font-size="11.00" fill="#000000">patients</text>
<text text-anchor="start" x="167.0437" y="-394.3" font-family="Helvetica,sans-Serif" font-size="11.00" fill="#000000">[table]</text>
<polygon fill="none" stroke="#000000" points="8,-364.2 8,-386.2 202,-386.2 202,-364.2 8,-364.2"/>
<image xlink:href="../../images/primaryKeys.png" width="11px" height="12px" preserveAspectRatio="xMinYMin meet" x="13" y="-381.2"/>
<text text-anchor="start" x="28" y="-371.3" font-family="Helvetica,sans-Serif" font-size="11.00" fill="#000000">id</text>
<polygon fill="#ffffff" stroke="transparent" points="8,-342.2 8,-364.2 202,-364.2 202,-342.2 8,-342.2"/>
<polygon fill="none" stroke="#000000" points="8,-342.2 8,-364.2 202,-364.2 202,-342.2 8,-342.2"/>
<text text-anchor="start" x="28" y="-349.3" font-family="Helvetica,sans-Serif" font-size="11.00" fill="#000000">last_name</text>
<polygon fill="#ffffff" stroke="transparent" points="8,-320.2 8,-342.2 202,-342.2 202,-320.2 8,-320.2"/>
<polygon fill="none" stroke="#000000" points="8,-320.2 8,-342.2 202,-342.2 202,-320.2 8,-320.2"/>
<text text-anchor="start" x="28" y="-327.3" font-family="Helvetica,sans-Serif" font-size="11.00" fill="#000000">insurance_number</text>
<polygon fill="#ffffff" stroke="transparent" points="8,-298.2 8,-320.2 202,-320.2 202,-298.2 8,-298.2"/>
<polygon fill="none" stroke="#000000" points="8,-298.2 8,-320.2 202,-320.2 202,-298.2 8,-298.2"/>
<text text-anchor="start" x="28" y="-305.3" font-family="Helvetica,sans-Serif" font-size="11.00" fill="#000000">epa_id</text>
<polygon fill="#ffffff" stroke="transparent" points="8,-276.2 8,-298.2 202,-298.2 202,-276.2 8,-276.2"/>
<polygon fill="none" stroke="#000000" points="8,-276.2 8,-298.2 202,-298.2 202,-276.2 8,-276.2"/>
<text text-anchor="start" x="28" y="-283.3" font-family="Helvetica,sans-Serif" font-size="11.00" fill="#000000">epa_sync_status</text>
<polygon fill="#ffffff" stroke="transparent" points="8,-254.2 8,-276.2 202,-276.2 202,-254.2 8,-254.2"/>
<polygon fill="none" stroke="#000000" points="8,-254.2 8,-276.2 202,-276.2 202,-254.2 8,-254.2"/>
<text text-anchor="start" x="28" y="-261.3" font-family="Helvetica,sans-Serif" font-size="11.00" fill="#000000">epa_enabled</text>
<polygon fill="none" stroke="#000000" points="8,-235.2 8,-254.2 202,-254.2 202,-235.2 8,-235.2"/>
<text text-anchor="start" x="11" y="-241.3" font-family="Helvetica,sans-Serif" font-size="11.00" fill="#000000">...</text>
<polygon fill="#ffffff" stroke="transparent" points="8,-216.2 8,-235.2 202,-235.2 202,-216.2 8,-216.2"/>
<polygon fill="none" stroke="#000000" points="8,-216.2 8,-235.2 202,-235.2 202,-216.2 8,-216.2"/>
<polygon fill="#ffffff" stroke="transparent" points="9,-217.2 9,-234.2 55,-234.2 55,-217.2 9,-217.2"/>
<text text-anchor="start" x="11" y="-222.3" font-family="Helvetica,sans-Serif" font-size="11.00" fill="#000000"> &#160;</text>
<polygon fill="#ffffff" stroke="transparent" points="55,-217.2 55,-234.2 147,-234.2 147,-217.2 55,-217.2"/>
<text text-anchor="start" x="74.1045" y="-222.3" font-family="Helvetica,sans-Serif" font-size="11.00" fill="#000000">1,003 rows</text>
<polygon fill="#ffffff" stroke="transparent" points="147,-217.2 147,-234.2 201,-234.2 201,-217.2 147,-217.2"/>
<text text-anchor="start" x="183.4053" y="-222.3" font-family="Helvetica,sans-Serif" font-size="11.00" fill="#000000">3 &gt;</text>
<polygon fill="#000000" stroke="#000000" points="55,-217.2 55,-234.2 55,-234.2 55,-217.2 55,-217.2"/>
<polygon fill="#000000" stroke="#000000" points="147,-217.2 147,-234.2 147,-234.2 147,-217.2 147,-217.2"/>
</a>
</g>
</g>
<!-- diagnoses&#45;&gt;patients -->
<g id="edge1" class="edge">
<title>diagnoses:w&#45;&gt;patients:e</title>
<path fill="none" stroke="#000000" d="M299.4792,-456.1114C275.6233,-452.1424 267.0404,-437.7061 243,-419.2 221.8193,-402.8952 228.7296,-375.2 202,-375.2"/>
<polygon fill="#000000" stroke="#000000" points="306.0224,-456.6019 313.7309,-460.7899 310.0112,-456.9009 314,-457.2 314,-457.2 314,-457.2 310.0112,-456.9009 314.2691,-453.6101 306.0224,-456.6019 306.0224,-456.6019"/>
<ellipse fill="none" stroke="#000000" cx="302.8313" cy="-456.3627" rx="3.2" ry="3.2"/>
</g>
<!-- epa_sync_log -->
<g id="node3" class="node">
<title>epa_sync_log</title>
<g id="a_node3"><a xlink:href="../../tables/epa_sync_log.html" xlink:title="epa_sync_log" target="_top">
<polygon fill="#ffffff" stroke="transparent" points="305,-347.7 305,-408.7 427,-408.7 427,-347.7 305,-347.7"/>
<polygon fill="#f5f5f5" stroke="transparent" points="305,-385.2 305,-408.2 427,-408.2 427,-385.2 305,-385.2"/>
<polygon fill="none" stroke="#000000" points="305,-385.2 305,-408.2 427,-408.2 427,-385.2 305,-385.2"/>
<text text-anchor="start" x="310" y="-393.8" font-family="Helvetica,sans-Serif" font-weight="bold" font-size="11.00" fill="#000000">epa_sync_log</text>
<text text-anchor="start" x="392.5219" y="-393.3" font-family="Helvetica,sans-Serif" font-size="11.00" fill="#000000">[table]</text>
<polygon fill="none" stroke="#000000" points="305,-366.2 305,-385.2 427,-385.2 427,-366.2 305,-366.2"/>
<text text-anchor="start" x="308" y="-372.3" font-family="Helvetica,sans-Serif" font-size="11.00" fill="#000000">...</text>
<polygon fill="#ffffff" stroke="transparent" points="305,-347.2 305,-366.2 427,-366.2 427,-347.2 305,-347.2"/>
<polygon fill="none" stroke="#000000" points="305,-347.2 305,-366.2 427,-366.2 427,-347.2 305,-347.2"/>
<polygon fill="#ffffff" stroke="transparent" points="306,-348.2 306,-365.2 352,-365.2 352,-348.2 306,-348.2"/>
<text text-anchor="start" x="308" y="-353.3" font-family="Helvetica,sans-Serif" font-size="11.00" fill="#000000">&lt; 1</text>
<polygon fill="#ffffff" stroke="transparent" points="352,-348.2 352,-365.2 389,-365.2 389,-348.2 352,-348.2"/>
<text text-anchor="start" x="367.4431" y="-353.3" font-family="Helvetica,sans-Serif" font-size="11.00" fill="#000000"> &#160;</text>
<polygon fill="#ffffff" stroke="transparent" points="389,-348.2 389,-365.2 426,-365.2 426,-348.2 389,-348.2"/>
<text text-anchor="start" x="417.8862" y="-353.3" font-family="Helvetica,sans-Serif" font-size="11.00" fill="#000000"> &#160;</text>
<polygon fill="#000000" stroke="#000000" points="352,-348.2 352,-365.2 352,-365.2 352,-348.2 352,-348.2"/>
<polygon fill="#000000" stroke="#000000" points="389,-348.2 389,-365.2 389,-365.2 389,-348.2 389,-348.2"/>
</a>
</g>
</g>
<!-- epa_sync_log&#45;&gt;patients -->
<g id="edge2" class="edge">
<title>epa_sync_log:w&#45;&gt;patients:e</title>
<path fill="none" stroke="#000000" d="M290.2102,-375.2C256.0684,-375.2 242.4132,-375.2 202,-375.2"/>
<polygon fill="#000000" stroke="#000000" points="297,-375.2001 305,-378.8 301,-375.2 305,-375.2 305,-375.2 305,-375.2 301,-375.2 305,-371.6 297,-375.2001 297,-375.2001"/>
<ellipse fill="none" stroke="#000000" cx="293.8" cy="-375.2001" rx="3.2" ry="3.2"/>
</g>
<!-- medications -->
<g id="node4" class="node">
<title>medications</title>
<g id="a_node4"><a xlink:href="../../tables/medications.html" xlink:title="medications" target="_top">
<polygon fill="#ffffff" stroke="transparent" points="251,-38.2 251,-326.2 481,-326.2 481,-38.2 251,-38.2"/>
<polygon fill="#f5f5f5" stroke="transparent" points="253,-301.2 253,-324.2 479,-324.2 479,-301.2 253,-301.2"/>
<polygon fill="none" stroke="#000000" points="253,-301.2 253,-324.2 479,-324.2 479,-301.2 253,-301.2"/>
<text text-anchor="start" x="258" y="-309.8" font-family="Helvetica,sans-Serif" font-weight="bold" font-size="11.00" fill="#000000">medications</text>
<text text-anchor="start" x="444.0437" y="-309.3" font-family="Helvetica,sans-Serif" font-size="11.00" fill="#000000">[table]</text>
<polygon fill="none" stroke="#000000" points="253,-279.2 253,-301.2 389,-301.2 389,-279.2 253,-279.2"/>
<image xlink:href="../../images/primaryKeys.png" width="11px" height="12px" preserveAspectRatio="xMinYMin meet" x="258" y="-296.2"/>
<text text-anchor="start" x="273" y="-286.3" font-family="Helvetica,sans-Serif" font-size="11.00" fill="#000000">id</text>
<polygon fill="none" stroke="#000000" points="389,-279.2 389,-301.2 479,-301.2 479,-279.2 389,-279.2"/>
<text text-anchor="start" x="392" y="-286.9" font-family="Helvetica,sans-Serif" font-size="11.00" fill="#000000">bigserial[19]</text>
<polygon fill="#ffffff" stroke="transparent" points="253,-257.2 253,-279.2 389,-279.2 389,-257.2 253,-257.2"/>
<polygon fill="none" stroke="#000000" points="253,-257.2 253,-279.2 389,-279.2 389,-257.2 253,-257.2"/>
<image xlink:href="../../images/foreignKeys.png" width="11px" height="12px" preserveAspectRatio="xMinYMin meet" x="258" y="-274.2"/>
<text text-anchor="start" x="273" y="-264.3" font-family="Helvetica,sans-Serif" font-size="11.00" fill="#000000">patient_id</text>
<polygon fill="none" stroke="#000000" points="389,-257.2 389,-279.2 479,-279.2 479,-257.2 389,-257.2"/>
<text text-anchor="start" x="392" y="-264.9" font-family="Helvetica,sans-Serif" font-size="11.00" fill="#000000">int8[19]</text>
<polygon fill="none" stroke="#000000" points="253,-235.2 253,-257.2 389,-257.2 389,-235.2 253,-235.2"/>
<text text-anchor="start" x="273" y="-242.3" font-family="Helvetica,sans-Serif" font-size="11.00" fill="#000000">medication_name</text>
<polygon fill="none" stroke="#000000" points="389,-235.2 389,-257.2 479,-257.2 479,-235.2 389,-235.2"/>
<text text-anchor="start" x="392" y="-242.9" font-family="Helvetica,sans-Serif" font-size="11.00" fill="#000000">varchar[200]</text>
<polygon fill="none" stroke="#000000" points="253,-213.2 253,-235.2 389,-235.2 389,-213.2 253,-213.2"/>
<text text-anchor="start" x="273" y="-220.3" font-family="Helvetica,sans-Serif" font-size="11.00" fill="#000000">dosage</text>
<polygon fill="none" stroke="#000000" points="389,-213.2 389,-235.2 479,-235.2 479,-213.2 389,-213.2"/>
<text text-anchor="start" x="392" y="-220.9" font-family="Helvetica,sans-Serif" font-size="11.00" fill="#000000">varchar[100]</text>
<polygon fill="none" stroke="#000000" points="253,-191.2 253,-213.2 389,-213.2 389,-191.2 253,-191.2"/>
<text text-anchor="start" x="273" y="-198.3" font-family="Helvetica,sans-Serif" font-size="11.00" fill="#000000">frequency</text>
<polygon fill="none" stroke="#000000" points="389,-191.2 389,-213.2 479,-213.2 479,-191.2 389,-191.2"/>
<text text-anchor="start" x="392" y="-198.9" font-family="Helvetica,sans-Serif" font-size="11.00" fill="#000000">varchar[100]</text>
<polygon fill="none" stroke="#000000" points="253,-169.2 253,-191.2 389,-191.2 389,-169.2 253,-169.2"/>
<text text-anchor="start" x="273" y="-176.3" font-family="Helvetica,sans-Serif" font-size="11.00" fill="#000000">start_date</text>
<polygon fill="none" stroke="#000000" points="389,-169.2 389,-191.2 479,-191.2 479,-169.2 389,-169.2"/>
<text text-anchor="start" x="392" y="-176.9" font-family="Helvetica,sans-Serif" font-size="11.00" fill="#000000">date[13]</text>
<polygon fill="none" stroke="#000000" points="253,-147.2 253,-169.2 389,-169.2 389,-147.2 253,-147.2"/>
<text text-anchor="start" x="273" y="-154.3" font-family="Helvetica,sans-Serif" font-size="11.00" fill="#000000">end_date</text>
<polygon fill="none" stroke="#000000" points="389,-147.2 389,-169.2 479,-169.2 479,-147.2 389,-147.2"/>
<text text-anchor="start" x="392" y="-154.9" font-family="Helvetica,sans-Serif" font-size="11.00" fill="#000000">date[13]</text>
<polygon fill="none" stroke="#000000" points="253,-125.2 253,-147.2 389,-147.2 389,-125.2 253,-125.2"/>
<text text-anchor="start" x="273" y="-132.3" font-family="Helvetica,sans-Serif" font-size="11.00" fill="#000000">prescribed_by</text>
<polygon fill="none" stroke="#000000" points="389,-125.2 389,-147.2 479,-147.2 479,-125.2 389,-125.2"/>
<text text-anchor="start" x="392" y="-132.9" font-family="Helvetica,sans-Serif" font-size="11.00" fill="#000000">varchar[100]</text>
<polygon fill="none" stroke="#000000" points="253,-103.2 253,-125.2 389,-125.2 389,-103.2 253,-103.2"/>
<text text-anchor="start" x="273" y="-110.3" font-family="Helvetica,sans-Serif" font-size="11.00" fill="#000000">notes</text>
<polygon fill="none" stroke="#000000" points="389,-103.2 389,-125.2 479,-125.2 479,-103.2 389,-103.2"/>
<text text-anchor="start" x="391.5043" y="-110.9" font-family="Helvetica,sans-Serif" font-size="11.00" fill="#000000">text[2147483647]</text>
<polygon fill="none" stroke="#000000" points="253,-81.2 253,-103.2 389,-103.2 389,-81.2 253,-81.2"/>
<text text-anchor="start" x="273" y="-88.3" font-family="Helvetica,sans-Serif" font-size="11.00" fill="#000000">created_at</text>
<polygon fill="none" stroke="#000000" points="389,-81.2 389,-103.2 479,-103.2 479,-81.2 389,-81.2"/>
<text text-anchor="start" x="392" y="-88.9" font-family="Helvetica,sans-Serif" font-size="11.00" fill="#000000">timestamp[29,6]</text>
<polygon fill="none" stroke="#000000" points="253,-59.2 253,-81.2 389,-81.2 389,-59.2 253,-59.2"/>
<text text-anchor="start" x="273" y="-66.3" font-family="Helvetica,sans-Serif" font-size="11.00" fill="#000000">name</text>
<polygon fill="none" stroke="#000000" points="389,-59.2 389,-81.2 479,-81.2 479,-59.2 389,-59.2"/>
<text text-anchor="start" x="392" y="-66.9" font-family="Helvetica,sans-Serif" font-size="11.00" fill="#000000">varchar[200]</text>
<polygon fill="#ffffff" stroke="transparent" points="253,-40.2 253,-59.2 479,-59.2 479,-40.2 253,-40.2"/>
<polygon fill="none" stroke="#000000" points="253,-40.2 253,-59.2 479,-59.2 479,-40.2 253,-40.2"/>
<polygon fill="#ffffff" stroke="transparent" points="254,-41.2 254,-58.2 332,-58.2 332,-41.2 254,-41.2"/>
<text text-anchor="start" x="256" y="-46.3" font-family="Helvetica,sans-Serif" font-size="11.00" fill="#000000">&lt; 1</text>
<polygon fill="#ffffff" stroke="transparent" points="332,-41.2 332,-58.2 401,-58.2 401,-41.2 332,-41.2"/>
<text text-anchor="start" x="363.4431" y="-46.3" font-family="Helvetica,sans-Serif" font-size="11.00" fill="#000000"> &#160;</text>
<polygon fill="#ffffff" stroke="transparent" points="401,-41.2 401,-58.2 478,-58.2 478,-41.2 401,-41.2"/>
<text text-anchor="start" x="460.4053" y="-46.3" font-family="Helvetica,sans-Serif" font-size="11.00" fill="#000000">0 &gt;</text>
<polygon fill="#000000" stroke="#000000" points="332,-41.2 332,-58.2 332,-58.2 332,-41.2 332,-41.2"/>
<polygon fill="#000000" stroke="#000000" points="401,-41.2 401,-58.2 401,-58.2 401,-41.2 401,-41.2"/>
<polygon fill="none" stroke="#000000" stroke-width="2" points="252,-39.2 252,-325.2 480,-325.2 480,-39.2 252,-39.2"/>
</a>
</g>
</g>
<!-- medications&#45;&gt;patients -->
<g id="edge3" class="edge">
<title>medications:w&#45;&gt;patients:e</title>
<path fill="none" stroke="#000000" d="M238.9064,-272.0082C211.2616,-291.0691 248.7134,-375.2 202,-375.2"/>
<polygon fill="#000000" stroke="#000000" points="245.277,-270.2869 253.9391,-271.6754 249.1385,-269.2434 253,-268.2 253,-268.2 253,-268.2 249.1385,-269.2434 252.0609,-264.7246 245.277,-270.2869 245.277,-270.2869"/>
<ellipse fill="none" stroke="#000000" cx="242.1878" cy="-271.1216" rx="3.2" ry="3.2"/>
</g>
</g>
</svg>
