<?xml version="1.0" encoding="UTF-8" standalone="no"?>
<!DOCTYPE svg PUBLIC "-//W3C//DTD SVG 1.1//EN"
 "http://www.w3.org/Graphics/SVG/1.1/DTD/svg11.dtd">
<!-- Generated by graphviz version 2.40.1 (20161225.0304)
 -->
<!-- Title: oneDegreeRelationshipsDiagram Pages: 1 -->
<svg width="497pt" height="338pt"
 viewBox="0.00 0.00 497.00 338.20" xmlns="http://www.w3.org/2000/svg" xmlns:xlink="http://www.w3.org/1999/xlink">
<g id="graph0" class="graph" transform="scale(1 1) rotate(0) translate(4 334.2)">
<title>oneDegreeRelationshipsDiagram</title>
<polygon fill="#ffffff" stroke="transparent" points="-4,4 -4,-334.2 493,-334.2 493,4 -4,4"/>
<text text-anchor="middle" x="72.4936" y="-7.3" font-family="Helvetica,sans-Serif" font-size="11.00" fill="#000000">Generated by SchemaSpy</text>
<!-- medications -->
<g id="node1" class="node">
<title>medications</title>
<g id="a_node1"><a xlink:href="../../tables/medications.html" xlink:title="medications" target="_top">
<polygon fill="#ffffff" stroke="transparent" points="251,-38.2 251,-326.2 481,-326.2 481,-38.2 251,-38.2"/>
<polygon fill="#f5f5f5" stroke="transparent" points="253,-301.2 253,-324.2 479,-324.2 479,-301.2 253,-301.2"/>
<polygon fill="none" stroke="#000000" points="253,-301.2 253,-324.2 479,-324.2 479,-301.2 253,-301.2"/>
<text text-anchor="start" x="258" y="-309.8" font-family="Helvetica,sans-Serif" font-weight="bold" font-size="11.00" fill="#000000">medications</text>
<text text-anchor="start" x="444.0437" y="-309.3" font-family="Helvetica,sans-Serif" font-size="11.00" fill="#000000">[table]</text>
<polygon fill="none" stroke="#000000" points="253,-279.2 253,-301.2 389,-301.2 389,-279.2 253,-279.2"/>
<image xlink:href="../../images/primaryKeys.png" width="11px" height="12px" preserveAspectRatio="xMinYMin meet" x="258" y="-296.2"/>
<text text-anchor="start" x="273" y="-286.3" font-family="Helvetica,sans-Serif" font-size="11.00" fill="#000000">id</text>
<polygon fill="none" stroke="#000000" points="389,-279.2 389,-301.2 479,-301.2 479,-279.2 389,-279.2"/>
<text text-anchor="start" x="392" y="-286.9" font-family="Helvetica,sans-Serif" font-size="11.00" fill="#000000">bigserial[19]</text>
<polygon fill="#ffffff" stroke="transparent" points="253,-257.2 253,-279.2 389,-279.2 389,-257.2 253,-257.2"/>
<polygon fill="none" stroke="#000000" points="253,-257.2 253,-279.2 389,-279.2 389,-257.2 253,-257.2"/>
<image xlink:href="../../images/foreignKeys.png" width="11px" height="12px" preserveAspectRatio="xMinYMin meet" x="258" y="-274.2"/>
<text text-anchor="start" x="273" y="-264.3" font-family="Helvetica,sans-Serif" font-size="11.00" fill="#000000">patient_id</text>
<polygon fill="none" stroke="#000000" points="389,-257.2 389,-279.2 479,-279.2 479,-257.2 389,-257.2"/>
<text text-anchor="start" x="392" y="-264.9" font-family="Helvetica,sans-Serif" font-size="11.00" fill="#000000">int8[19]</text>
<polygon fill="none" stroke="#000000" points="253,-235.2 253,-257.2 389,-257.2 389,-235.2 253,-235.2"/>
<text text-anchor="start" x="273" y="-242.3" font-family="Helvetica,sans-Serif" font-size="11.00" fill="#000000">medication_name</text>
<polygon fill="none" stroke="#000000" points="389,-235.2 389,-257.2 479,-257.2 479,-235.2 389,-235.2"/>
<text text-anchor="start" x="392" y="-242.9" font-family="Helvetica,sans-Serif" font-size="11.00" fill="#000000">varchar[200]</text>
<polygon fill="none" stroke="#000000" points="253,-213.2 253,-235.2 389,-235.2 389,-213.2 253,-213.2"/>
<text text-anchor="start" x="273" y="-220.3" font-family="Helvetica,sans-Serif" font-size="11.00" fill="#000000">dosage</text>
<polygon fill="none" stroke="#000000" points="389,-213.2 389,-235.2 479,-235.2 479,-213.2 389,-213.2"/>
<text text-anchor="start" x="392" y="-220.9" font-family="Helvetica,sans-Serif" font-size="11.00" fill="#000000">varchar[100]</text>
<polygon fill="none" stroke="#000000" points="253,-191.2 253,-213.2 389,-213.2 389,-191.2 253,-191.2"/>
<text text-anchor="start" x="273" y="-198.3" font-family="Helvetica,sans-Serif" font-size="11.00" fill="#000000">frequency</text>
<polygon fill="none" stroke="#000000" points="389,-191.2 389,-213.2 479,-213.2 479,-191.2 389,-191.2"/>
<text text-anchor="start" x="392" y="-198.9" font-family="Helvetica,sans-Serif" font-size="11.00" fill="#000000">varchar[100]</text>
<polygon fill="none" stroke="#000000" points="253,-169.2 253,-191.2 389,-191.2 389,-169.2 253,-169.2"/>
<text text-anchor="start" x="273" y="-176.3" font-family="Helvetica,sans-Serif" font-size="11.00" fill="#000000">start_date</text>
<polygon fill="none" stroke="#000000" points="389,-169.2 389,-191.2 479,-191.2 479,-169.2 389,-169.2"/>
<text text-anchor="start" x="392" y="-176.9" font-family="Helvetica,sans-Serif" font-size="11.00" fill="#000000">date[13]</text>
<polygon fill="none" stroke="#000000" points="253,-147.2 253,-169.2 389,-169.2 389,-147.2 253,-147.2"/>
<text text-anchor="start" x="273" y="-154.3" font-family="Helvetica,sans-Serif" font-size="11.00" fill="#000000">end_date</text>
<polygon fill="none" stroke="#000000" points="389,-147.2 389,-169.2 479,-169.2 479,-147.2 389,-147.2"/>
<text text-anchor="start" x="392" y="-154.9" font-family="Helvetica,sans-Serif" font-size="11.00" fill="#000000">date[13]</text>
<polygon fill="none" stroke="#000000" points="253,-125.2 253,-147.2 389,-147.2 389,-125.2 253,-125.2"/>
<text text-anchor="start" x="273" y="-132.3" font-family="Helvetica,sans-Serif" font-size="11.00" fill="#000000">prescribed_by</text>
<polygon fill="none" stroke="#000000" points="389,-125.2 389,-147.2 479,-147.2 479,-125.2 389,-125.2"/>
<text text-anchor="start" x="392" y="-132.9" font-family="Helvetica,sans-Serif" font-size="11.00" fill="#000000">varchar[100]</text>
<polygon fill="none" stroke="#000000" points="253,-103.2 253,-125.2 389,-125.2 389,-103.2 253,-103.2"/>
<text text-anchor="start" x="273" y="-110.3" font-family="Helvetica,sans-Serif" font-size="11.00" fill="#000000">notes</text>
<polygon fill="none" stroke="#000000" points="389,-103.2 389,-125.2 479,-125.2 479,-103.2 389,-103.2"/>
<text text-anchor="start" x="391.5043" y="-110.9" font-family="Helvetica,sans-Serif" font-size="11.00" fill="#000000">text[2147483647]</text>
<polygon fill="none" stroke="#000000" points="253,-81.2 253,-103.2 389,-103.2 389,-81.2 253,-81.2"/>
<text text-anchor="start" x="273" y="-88.3" font-family="Helvetica,sans-Serif" font-size="11.00" fill="#000000">created_at</text>
<polygon fill="none" stroke="#000000" points="389,-81.2 389,-103.2 479,-103.2 479,-81.2 389,-81.2"/>
<text text-anchor="start" x="392" y="-88.9" font-family="Helvetica,sans-Serif" font-size="11.00" fill="#000000">timestamp[29,6]</text>
<polygon fill="none" stroke="#000000" points="253,-59.2 253,-81.2 389,-81.2 389,-59.2 253,-59.2"/>
<text text-anchor="start" x="273" y="-66.3" font-family="Helvetica,sans-Serif" font-size="11.00" fill="#000000">name</text>
<polygon fill="none" stroke="#000000" points="389,-59.2 389,-81.2 479,-81.2 479,-59.2 389,-59.2"/>
<text text-anchor="start" x="392" y="-66.9" font-family="Helvetica,sans-Serif" font-size="11.00" fill="#000000">varchar[200]</text>
<polygon fill="#ffffff" stroke="transparent" points="253,-40.2 253,-59.2 479,-59.2 479,-40.2 253,-40.2"/>
<polygon fill="none" stroke="#000000" points="253,-40.2 253,-59.2 479,-59.2 479,-40.2 253,-40.2"/>
<polygon fill="#ffffff" stroke="transparent" points="254,-41.2 254,-58.2 332,-58.2 332,-41.2 254,-41.2"/>
<text text-anchor="start" x="256" y="-46.3" font-family="Helvetica,sans-Serif" font-size="11.00" fill="#000000">&lt; 1</text>
<polygon fill="#ffffff" stroke="transparent" points="332,-41.2 332,-58.2 401,-58.2 401,-41.2 332,-41.2"/>
<text text-anchor="start" x="363.4431" y="-46.3" font-family="Helvetica,sans-Serif" font-size="11.00" fill="#000000"> &#160;</text>
<polygon fill="#ffffff" stroke="transparent" points="401,-41.2 401,-58.2 478,-58.2 478,-41.2 401,-41.2"/>
<text text-anchor="start" x="460.4053" y="-46.3" font-family="Helvetica,sans-Serif" font-size="11.00" fill="#000000">0 &gt;</text>
<polygon fill="#000000" stroke="#000000" points="332,-41.2 332,-58.2 332,-58.2 332,-41.2 332,-41.2"/>
<polygon fill="#000000" stroke="#000000" points="401,-41.2 401,-58.2 401,-58.2 401,-41.2 401,-41.2"/>
<polygon fill="none" stroke="#000000" stroke-width="2" points="252,-39.2 252,-325.2 480,-325.2 480,-39.2 252,-39.2"/>
</a>
</g>
</g>
<!-- patients -->
<g id="node2" class="node">
<title>patients</title>
<g id="a_node2"><a xlink:href="../../tables/patients.html" xlink:title="patients" target="_top">
<polygon fill="#ffffff" stroke="transparent" points="8,-109.7 8,-302.7 202,-302.7 202,-109.7 8,-109.7"/>
<polygon fill="#f5f5f5" stroke="transparent" points="8,-279.2 8,-302.2 202,-302.2 202,-279.2 8,-279.2"/>
<polygon fill="none" stroke="#000000" points="8,-279.2 8,-302.2 202,-302.2 202,-279.2 8,-279.2"/>
<text text-anchor="start" x="13" y="-287.8" font-family="Helvetica,sans-Serif" font-weight="bold" font-size="11.00" fill="#000000">patients</text>
<text text-anchor="start" x="167.0437" y="-287.3" font-family="Helvetica,sans-Serif" font-size="11.00" fill="#000000">[table]</text>
<polygon fill="none" stroke="#000000" points="8,-257.2 8,-279.2 202,-279.2 202,-257.2 8,-257.2"/>
<image xlink:href="../../images/primaryKeys.png" width="11px" height="12px" preserveAspectRatio="xMinYMin meet" x="13" y="-274.2"/>
<text text-anchor="start" x="28" y="-264.3" font-family="Helvetica,sans-Serif" font-size="11.00" fill="#000000">id</text>
<polygon fill="#ffffff" stroke="transparent" points="8,-235.2 8,-257.2 202,-257.2 202,-235.2 8,-235.2"/>
<polygon fill="none" stroke="#000000" points="8,-235.2 8,-257.2 202,-257.2 202,-235.2 8,-235.2"/>
<text text-anchor="start" x="28" y="-242.3" font-family="Helvetica,sans-Serif" font-size="11.00" fill="#000000">last_name</text>
<polygon fill="#ffffff" stroke="transparent" points="8,-213.2 8,-235.2 202,-235.2 202,-213.2 8,-213.2"/>
<polygon fill="none" stroke="#000000" points="8,-213.2 8,-235.2 202,-235.2 202,-213.2 8,-213.2"/>
<text text-anchor="start" x="28" y="-220.3" font-family="Helvetica,sans-Serif" font-size="11.00" fill="#000000">insurance_number</text>
<polygon fill="#ffffff" stroke="transparent" points="8,-191.2 8,-213.2 202,-213.2 202,-191.2 8,-191.2"/>
<polygon fill="none" stroke="#000000" points="8,-191.2 8,-213.2 202,-213.2 202,-191.2 8,-191.2"/>
<text text-anchor="start" x="28" y="-198.3" font-family="Helvetica,sans-Serif" font-size="11.00" fill="#000000">epa_id</text>
<polygon fill="#ffffff" stroke="transparent" points="8,-169.2 8,-191.2 202,-191.2 202,-169.2 8,-169.2"/>
<polygon fill="none" stroke="#000000" points="8,-169.2 8,-191.2 202,-191.2 202,-169.2 8,-169.2"/>
<text text-anchor="start" x="28" y="-176.3" font-family="Helvetica,sans-Serif" font-size="11.00" fill="#000000">epa_sync_status</text>
<polygon fill="#ffffff" stroke="transparent" points="8,-147.2 8,-169.2 202,-169.2 202,-147.2 8,-147.2"/>
<polygon fill="none" stroke="#000000" points="8,-147.2 8,-169.2 202,-169.2 202,-147.2 8,-147.2"/>
<text text-anchor="start" x="28" y="-154.3" font-family="Helvetica,sans-Serif" font-size="11.00" fill="#000000">epa_enabled</text>
<polygon fill="none" stroke="#000000" points="8,-128.2 8,-147.2 202,-147.2 202,-128.2 8,-128.2"/>
<text text-anchor="start" x="11" y="-134.3" font-family="Helvetica,sans-Serif" font-size="11.00" fill="#000000">...</text>
<polygon fill="#ffffff" stroke="transparent" points="8,-109.2 8,-128.2 202,-128.2 202,-109.2 8,-109.2"/>
<polygon fill="none" stroke="#000000" points="8,-109.2 8,-128.2 202,-128.2 202,-109.2 8,-109.2"/>
<polygon fill="#ffffff" stroke="transparent" points="9,-110.2 9,-127.2 62,-127.2 62,-110.2 9,-110.2"/>
<text text-anchor="start" x="11" y="-115.3" font-family="Helvetica,sans-Serif" font-size="11.00" fill="#000000"> &#160;</text>
<polygon fill="#ffffff" stroke="transparent" points="62,-110.2 62,-127.2 140,-127.2 140,-110.2 62,-110.2"/>
<text text-anchor="start" x="84.8053" y="-115.3" font-family="Helvetica,sans-Serif" font-size="11.00" fill="#000000">3 rows</text>
<polygon fill="#ffffff" stroke="transparent" points="140,-110.2 140,-127.2 201,-127.2 201,-110.2 140,-110.2"/>
<text text-anchor="start" x="183.4053" y="-115.3" font-family="Helvetica,sans-Serif" font-size="11.00" fill="#000000">3 &gt;</text>
<polygon fill="#000000" stroke="#000000" points="62,-110.2 62,-127.2 62,-127.2 62,-110.2 62,-110.2"/>
<polygon fill="#000000" stroke="#000000" points="140,-110.2 140,-127.2 140,-127.2 140,-110.2 140,-110.2"/>
</a>
</g>
</g>
<!-- medications&#45;&gt;patients -->
<g id="edge1" class="edge">
<title>medications:w&#45;&gt;patients:e</title>
<path fill="none" stroke="#000000" d="M238.276,-268.2C226.2815,-268.2 218.8229,-268.2 202,-268.2"/>
<polygon fill="#000000" stroke="#000000" points="245,-268.2001 253,-271.8 249,-268.2 253,-268.2 253,-268.2 253,-268.2 249,-268.2 253,-264.6 245,-268.2001 245,-268.2001"/>
<ellipse fill="none" stroke="#000000" cx="241.8" cy="-268.2001" rx="3.2" ry="3.2"/>
</g>
</g>
</svg>
