<?xml version="1.0" encoding="UTF-8" standalone="no"?>
<!DOCTYPE svg PUBLIC "-//W3C//DTD SVG 1.1//EN"
 "http://www.w3.org/Graphics/SVG/1.1/DTD/svg11.dtd">
<!-- Generated by graphviz version 2.40.1 (20161225.0304)
 -->
<!-- Title: oneDegreeRelationshipsDiagram Pages: 1 -->
<svg width="497pt" height="771pt"
 viewBox="0.00 0.00 497.00 770.70" xmlns="http://www.w3.org/2000/svg" xmlns:xlink="http://www.w3.org/1999/xlink">
<g id="graph0" class="graph" transform="scale(1 1) rotate(0) translate(4 766.7)">
<title>oneDegreeRelationshipsDiagram</title>
<polygon fill="#ffffff" stroke="transparent" points="-4,4 -4,-766.7 493,-766.7 493,4 -4,4"/>
<text text-anchor="middle" x="72.4936" y="-7.3" font-family="Helvetica,sans-Serif" font-size="11.00" fill="#000000">Generated by SchemaSpy</text>
<!-- diagnoses -->
<g id="node1" class="node">
<title>diagnoses</title>
<g id="a_node1"><a xlink:href="../../tables/diagnoses.html" xlink:title="diagnoses" target="_top">
<polygon fill="#ffffff" stroke="transparent" points="351,-653.7 351,-758.7 475,-758.7 475,-653.7 351,-653.7"/>
<polygon fill="#f5f5f5" stroke="transparent" points="351,-735.2 351,-758.2 475,-758.2 475,-735.2 351,-735.2"/>
<polygon fill="none" stroke="#000000" points="351,-735.2 351,-758.2 475,-758.2 475,-735.2 351,-735.2"/>
<text text-anchor="start" x="356" y="-743.8" font-family="Helvetica,sans-Serif" font-weight="bold" font-size="11.00" fill="#000000">diagnoses</text>
<text text-anchor="start" x="440.0437" y="-743.3" font-family="Helvetica,sans-Serif" font-size="11.00" fill="#000000">[table]</text>
<polygon fill="none" stroke="#000000" points="351,-713.2 351,-735.2 475,-735.2 475,-713.2 351,-713.2"/>
<image xlink:href="../../images/primaryKeys.png" width="11px" height="12px" preserveAspectRatio="xMinYMin meet" x="356" y="-730.2"/>
<text text-anchor="start" x="371" y="-720.3" font-family="Helvetica,sans-Serif" font-size="11.00" fill="#000000">id</text>
<polygon fill="#ffffff" stroke="transparent" points="351,-691.2 351,-713.2 475,-713.2 475,-691.2 351,-691.2"/>
<polygon fill="none" stroke="#000000" points="351,-691.2 351,-713.2 475,-713.2 475,-691.2 351,-691.2"/>
<image xlink:href="../../images/foreignKeys.png" width="11px" height="12px" preserveAspectRatio="xMinYMin meet" x="356" y="-708.2"/>
<text text-anchor="start" x="371" y="-698.3" font-family="Helvetica,sans-Serif" font-size="11.00" fill="#000000">patient_id</text>
<polygon fill="none" stroke="#000000" points="351,-672.2 351,-691.2 475,-691.2 475,-672.2 351,-672.2"/>
<text text-anchor="start" x="354" y="-678.3" font-family="Helvetica,sans-Serif" font-size="11.00" fill="#000000">...</text>
<polygon fill="#ffffff" stroke="transparent" points="351,-653.2 351,-672.2 475,-672.2 475,-653.2 351,-653.2"/>
<polygon fill="none" stroke="#000000" points="351,-653.2 351,-672.2 475,-672.2 475,-653.2 351,-653.2"/>
<polygon fill="#ffffff" stroke="transparent" points="352,-654.2 352,-671.2 399,-671.2 399,-654.2 352,-654.2"/>
<text text-anchor="start" x="354" y="-659.3" font-family="Helvetica,sans-Serif" font-size="11.00" fill="#000000">&lt; 1</text>
<polygon fill="#ffffff" stroke="transparent" points="399,-654.2 399,-671.2 437,-671.2 437,-654.2 399,-654.2"/>
<text text-anchor="start" x="414.9431" y="-659.3" font-family="Helvetica,sans-Serif" font-size="11.00" fill="#000000"> &#160;</text>
<polygon fill="#ffffff" stroke="transparent" points="437,-654.2 437,-671.2 474,-671.2 474,-654.2 437,-654.2"/>
<text text-anchor="start" x="465.8862" y="-659.3" font-family="Helvetica,sans-Serif" font-size="11.00" fill="#000000"> &#160;</text>
<polygon fill="#000000" stroke="#000000" points="399,-654.2 399,-671.2 399,-671.2 399,-654.2 399,-654.2"/>
<polygon fill="#000000" stroke="#000000" points="437,-654.2 437,-671.2 437,-671.2 437,-654.2 437,-654.2"/>
</a>
</g>
</g>
<!-- patients -->
<g id="node2" class="node">
<title>patients</title>
<g id="a_node2"><a xlink:href="../../tables/patients.html" xlink:title="patients" target="_top">
<polygon fill="#ffffff" stroke="transparent" points="8,-38.2 8,-612.2 296,-612.2 296,-38.2 8,-38.2"/>
<polygon fill="#f5f5f5" stroke="transparent" points="10,-587.2 10,-610.2 294,-610.2 294,-587.2 10,-587.2"/>
<polygon fill="none" stroke="#000000" points="10,-587.2 10,-610.2 294,-610.2 294,-587.2 10,-587.2"/>
<text text-anchor="start" x="15" y="-595.8" font-family="Helvetica,sans-Serif" font-weight="bold" font-size="11.00" fill="#000000">patients</text>
<text text-anchor="start" x="259.0437" y="-595.3" font-family="Helvetica,sans-Serif" font-size="11.00" fill="#000000">[table]</text>
<polygon fill="none" stroke="#000000" points="10,-565.2 10,-587.2 204,-587.2 204,-565.2 10,-565.2"/>
<image xlink:href="../../images/primaryKeys.png" width="11px" height="12px" preserveAspectRatio="xMinYMin meet" x="15" y="-582.2"/>
<text text-anchor="start" x="30" y="-572.3" font-family="Helvetica,sans-Serif" font-size="11.00" fill="#000000">id</text>
<polygon fill="none" stroke="#000000" points="204,-565.2 204,-587.2 294,-587.2 294,-565.2 204,-565.2"/>
<text text-anchor="start" x="207" y="-572.9" font-family="Helvetica,sans-Serif" font-size="11.00" fill="#000000">bigserial[19]</text>
<polygon fill="none" stroke="#000000" points="10,-543.2 10,-565.2 204,-565.2 204,-543.2 10,-543.2"/>
<text text-anchor="start" x="30" y="-550.3" font-family="Helvetica,sans-Serif" font-size="11.00" fill="#000000">first_name</text>
<polygon fill="none" stroke="#000000" points="204,-543.2 204,-565.2 294,-565.2 294,-543.2 204,-543.2"/>
<text text-anchor="start" x="207" y="-550.9" font-family="Helvetica,sans-Serif" font-size="11.00" fill="#000000">varchar[100]</text>
<polygon fill="#ffffff" stroke="transparent" points="10,-521.2 10,-543.2 204,-543.2 204,-521.2 10,-521.2"/>
<polygon fill="none" stroke="#000000" points="10,-521.2 10,-543.2 204,-543.2 204,-521.2 10,-521.2"/>
<text text-anchor="start" x="30" y="-528.3" font-family="Helvetica,sans-Serif" font-size="11.00" fill="#000000">last_name</text>
<polygon fill="none" stroke="#000000" points="204,-521.2 204,-543.2 294,-543.2 294,-521.2 204,-521.2"/>
<text text-anchor="start" x="207" y="-528.9" font-family="Helvetica,sans-Serif" font-size="11.00" fill="#000000">varchar[100]</text>
<polygon fill="none" stroke="#000000" points="10,-499.2 10,-521.2 204,-521.2 204,-499.2 10,-499.2"/>
<text text-anchor="start" x="30" y="-506.3" font-family="Helvetica,sans-Serif" font-size="11.00" fill="#000000">date_of_birth</text>
<polygon fill="none" stroke="#000000" points="204,-499.2 204,-521.2 294,-521.2 294,-499.2 204,-499.2"/>
<text text-anchor="start" x="207" y="-506.9" font-family="Helvetica,sans-Serif" font-size="11.00" fill="#000000">date[13]</text>
<polygon fill="none" stroke="#000000" points="10,-477.2 10,-499.2 204,-499.2 204,-477.2 10,-477.2"/>
<text text-anchor="start" x="30" y="-484.3" font-family="Helvetica,sans-Serif" font-size="11.00" fill="#000000">gender</text>
<polygon fill="none" stroke="#000000" points="204,-477.2 204,-499.2 294,-499.2 294,-477.2 204,-477.2"/>
<text text-anchor="start" x="207" y="-484.9" font-family="Helvetica,sans-Serif" font-size="11.00" fill="#000000">varchar[20]</text>
<polygon fill="none" stroke="#000000" points="10,-455.2 10,-477.2 204,-477.2 204,-455.2 10,-455.2"/>
<text text-anchor="start" x="30" y="-462.3" font-family="Helvetica,sans-Serif" font-size="11.00" fill="#000000">phone</text>
<polygon fill="none" stroke="#000000" points="204,-455.2 204,-477.2 294,-477.2 294,-455.2 204,-455.2"/>
<text text-anchor="start" x="207" y="-462.9" font-family="Helvetica,sans-Serif" font-size="11.00" fill="#000000">varchar[20]</text>
<polygon fill="none" stroke="#000000" points="10,-433.2 10,-455.2 204,-455.2 204,-433.2 10,-433.2"/>
<text text-anchor="start" x="30" y="-440.3" font-family="Helvetica,sans-Serif" font-size="11.00" fill="#000000">email</text>
<polygon fill="none" stroke="#000000" points="204,-433.2 204,-455.2 294,-455.2 294,-433.2 204,-433.2"/>
<text text-anchor="start" x="207" y="-440.9" font-family="Helvetica,sans-Serif" font-size="11.00" fill="#000000">varchar[100]</text>
<polygon fill="none" stroke="#000000" points="10,-411.2 10,-433.2 204,-433.2 204,-411.2 10,-411.2"/>
<text text-anchor="start" x="30" y="-418.3" font-family="Helvetica,sans-Serif" font-size="11.00" fill="#000000">address</text>
<polygon fill="none" stroke="#000000" points="204,-411.2 204,-433.2 294,-433.2 294,-411.2 204,-411.2"/>
<text text-anchor="start" x="206.5042" y="-418.9" font-family="Helvetica,sans-Serif" font-size="11.00" fill="#000000">text[2147483647]</text>
<polygon fill="#ffffff" stroke="transparent" points="10,-389.2 10,-411.2 204,-411.2 204,-389.2 10,-389.2"/>
<polygon fill="none" stroke="#000000" points="10,-389.2 10,-411.2 204,-411.2 204,-389.2 10,-389.2"/>
<text text-anchor="start" x="30" y="-396.3" font-family="Helvetica,sans-Serif" font-size="11.00" fill="#000000">insurance_number</text>
<polygon fill="none" stroke="#000000" points="204,-389.2 204,-411.2 294,-411.2 294,-389.2 204,-389.2"/>
<text text-anchor="start" x="207" y="-396.9" font-family="Helvetica,sans-Serif" font-size="11.00" fill="#000000">varchar[50]</text>
<polygon fill="none" stroke="#000000" points="10,-367.2 10,-389.2 204,-389.2 204,-367.2 10,-367.2"/>
<text text-anchor="start" x="30" y="-374.3" font-family="Helvetica,sans-Serif" font-size="11.00" fill="#000000">blood_type</text>
<polygon fill="none" stroke="#000000" points="204,-367.2 204,-389.2 294,-389.2 294,-367.2 204,-367.2"/>
<text text-anchor="start" x="207" y="-374.9" font-family="Helvetica,sans-Serif" font-size="11.00" fill="#000000">varchar[5]</text>
<polygon fill="none" stroke="#000000" points="10,-345.2 10,-367.2 204,-367.2 204,-345.2 10,-345.2"/>
<text text-anchor="start" x="30" y="-352.3" font-family="Helvetica,sans-Serif" font-size="11.00" fill="#000000">allergies</text>
<polygon fill="none" stroke="#000000" points="204,-345.2 204,-367.2 294,-367.2 294,-345.2 204,-345.2"/>
<text text-anchor="start" x="206.5042" y="-352.9" font-family="Helvetica,sans-Serif" font-size="11.00" fill="#000000">text[2147483647]</text>
<polygon fill="none" stroke="#000000" points="10,-323.2 10,-345.2 204,-345.2 204,-323.2 10,-323.2"/>
<text text-anchor="start" x="30" y="-330.3" font-family="Helvetica,sans-Serif" font-size="11.00" fill="#000000">emergency_contact_name</text>
<polygon fill="none" stroke="#000000" points="204,-323.2 204,-345.2 294,-345.2 294,-323.2 204,-323.2"/>
<text text-anchor="start" x="207" y="-330.9" font-family="Helvetica,sans-Serif" font-size="11.00" fill="#000000">varchar[100]</text>
<polygon fill="none" stroke="#000000" points="10,-301.2 10,-323.2 204,-323.2 204,-301.2 10,-301.2"/>
<text text-anchor="start" x="30" y="-308.3" font-family="Helvetica,sans-Serif" font-size="11.00" fill="#000000">emergency_contact_phone</text>
<polygon fill="none" stroke="#000000" points="204,-301.2 204,-323.2 294,-323.2 294,-301.2 204,-301.2"/>
<text text-anchor="start" x="207" y="-308.9" font-family="Helvetica,sans-Serif" font-size="11.00" fill="#000000">varchar[20]</text>
<polygon fill="none" stroke="#000000" points="10,-279.2 10,-301.2 204,-301.2 204,-279.2 10,-279.2"/>
<text text-anchor="start" x="30" y="-286.3" font-family="Helvetica,sans-Serif" font-size="11.00" fill="#000000">admission_date</text>
<polygon fill="none" stroke="#000000" points="204,-279.2 204,-301.2 294,-301.2 294,-279.2 204,-279.2"/>
<text text-anchor="start" x="207" y="-286.9" font-family="Helvetica,sans-Serif" font-size="11.00" fill="#000000">timestamp[29,6]</text>
<polygon fill="none" stroke="#000000" points="10,-257.2 10,-279.2 204,-279.2 204,-257.2 10,-257.2"/>
<text text-anchor="start" x="30" y="-264.3" font-family="Helvetica,sans-Serif" font-size="11.00" fill="#000000">discharge_date</text>
<polygon fill="none" stroke="#000000" points="204,-257.2 204,-279.2 294,-279.2 294,-257.2 204,-257.2"/>
<text text-anchor="start" x="207" y="-264.9" font-family="Helvetica,sans-Serif" font-size="11.00" fill="#000000">timestamp[29,6]</text>
<polygon fill="none" stroke="#000000" points="10,-235.2 10,-257.2 204,-257.2 204,-235.2 10,-235.2"/>
<text text-anchor="start" x="30" y="-242.3" font-family="Helvetica,sans-Serif" font-size="11.00" fill="#000000">status</text>
<polygon fill="none" stroke="#000000" points="204,-235.2 204,-257.2 294,-257.2 294,-235.2 204,-235.2"/>
<text text-anchor="start" x="207" y="-242.9" font-family="Helvetica,sans-Serif" font-size="11.00" fill="#000000">varchar[20]</text>
<polygon fill="none" stroke="#000000" points="10,-213.2 10,-235.2 204,-235.2 204,-213.2 10,-213.2"/>
<text text-anchor="start" x="30" y="-220.3" font-family="Helvetica,sans-Serif" font-size="11.00" fill="#000000">created_at</text>
<polygon fill="none" stroke="#000000" points="204,-213.2 204,-235.2 294,-235.2 294,-213.2 204,-213.2"/>
<text text-anchor="start" x="207" y="-220.9" font-family="Helvetica,sans-Serif" font-size="11.00" fill="#000000">timestamp[29,6]</text>
<polygon fill="none" stroke="#000000" points="10,-191.2 10,-213.2 204,-213.2 204,-191.2 10,-191.2"/>
<text text-anchor="start" x="30" y="-198.3" font-family="Helvetica,sans-Serif" font-size="11.00" fill="#000000">updated_at</text>
<polygon fill="none" stroke="#000000" points="204,-191.2 204,-213.2 294,-213.2 294,-191.2 204,-191.2"/>
<text text-anchor="start" x="207" y="-198.9" font-family="Helvetica,sans-Serif" font-size="11.00" fill="#000000">timestamp[29,6]</text>
<polygon fill="#ffffff" stroke="transparent" points="10,-169.2 10,-191.2 204,-191.2 204,-169.2 10,-169.2"/>
<polygon fill="none" stroke="#000000" points="10,-169.2 10,-191.2 204,-191.2 204,-169.2 10,-169.2"/>
<text text-anchor="start" x="30" y="-176.3" font-family="Helvetica,sans-Serif" font-size="11.00" fill="#000000">epa_id</text>
<polygon fill="none" stroke="#000000" points="204,-169.2 204,-191.2 294,-191.2 294,-169.2 204,-169.2"/>
<text text-anchor="start" x="207" y="-176.9" font-family="Helvetica,sans-Serif" font-size="11.00" fill="#000000">varchar[100]</text>
<polygon fill="#ffffff" stroke="transparent" points="10,-147.2 10,-169.2 204,-169.2 204,-147.2 10,-147.2"/>
<polygon fill="none" stroke="#000000" points="10,-147.2 10,-169.2 204,-169.2 204,-147.2 10,-147.2"/>
<text text-anchor="start" x="30" y="-154.3" font-family="Helvetica,sans-Serif" font-size="11.00" fill="#000000">epa_sync_status</text>
<polygon fill="none" stroke="#000000" points="204,-147.2 204,-169.2 294,-169.2 294,-147.2 204,-147.2"/>
<text text-anchor="start" x="207" y="-154.9" font-family="Helvetica,sans-Serif" font-size="11.00" fill="#000000">varchar[20]</text>
<polygon fill="none" stroke="#000000" points="10,-125.2 10,-147.2 204,-147.2 204,-125.2 10,-125.2"/>
<text text-anchor="start" x="30" y="-132.3" font-family="Helvetica,sans-Serif" font-size="11.00" fill="#000000">epa_last_sync</text>
<polygon fill="none" stroke="#000000" points="204,-125.2 204,-147.2 294,-147.2 294,-125.2 204,-125.2"/>
<text text-anchor="start" x="207" y="-132.9" font-family="Helvetica,sans-Serif" font-size="11.00" fill="#000000">timestamp[29,6]</text>
<polygon fill="none" stroke="#000000" points="10,-103.2 10,-125.2 204,-125.2 204,-103.2 10,-103.2"/>
<text text-anchor="start" x="30" y="-110.3" font-family="Helvetica,sans-Serif" font-size="11.00" fill="#000000">epa_sync_error</text>
<polygon fill="none" stroke="#000000" points="204,-103.2 204,-125.2 294,-125.2 294,-103.2 204,-103.2"/>
<text text-anchor="start" x="206.5042" y="-110.9" font-family="Helvetica,sans-Serif" font-size="11.00" fill="#000000">text[2147483647]</text>
<polygon fill="#ffffff" stroke="transparent" points="10,-81.2 10,-103.2 204,-103.2 204,-81.2 10,-81.2"/>
<polygon fill="none" stroke="#000000" points="10,-81.2 10,-103.2 204,-103.2 204,-81.2 10,-81.2"/>
<text text-anchor="start" x="30" y="-88.3" font-family="Helvetica,sans-Serif" font-size="11.00" fill="#000000">epa_enabled</text>
<polygon fill="none" stroke="#000000" points="204,-81.2 204,-103.2 294,-103.2 294,-81.2 204,-81.2"/>
<text text-anchor="start" x="207" y="-88.9" font-family="Helvetica,sans-Serif" font-size="11.00" fill="#000000">bool[1]</text>
<polygon fill="none" stroke="#000000" points="10,-59.2 10,-81.2 204,-81.2 204,-59.2 10,-59.2"/>
<text text-anchor="start" x="30" y="-66.3" font-family="Helvetica,sans-Serif" font-size="11.00" fill="#000000">epa_consent_date</text>
<polygon fill="none" stroke="#000000" points="204,-59.2 204,-81.2 294,-81.2 294,-59.2 204,-59.2"/>
<text text-anchor="start" x="207" y="-66.9" font-family="Helvetica,sans-Serif" font-size="11.00" fill="#000000">timestamp[29,6]</text>
<polygon fill="#ffffff" stroke="transparent" points="10,-40.2 10,-59.2 294,-59.2 294,-40.2 10,-40.2"/>
<polygon fill="none" stroke="#000000" points="10,-40.2 10,-59.2 294,-59.2 294,-40.2 10,-40.2"/>
<polygon fill="#ffffff" stroke="transparent" points="11,-41.2 11,-58.2 100,-58.2 100,-41.2 11,-41.2"/>
<text text-anchor="start" x="13" y="-46.3" font-family="Helvetica,sans-Serif" font-size="11.00" fill="#000000">&lt; 0</text>
<polygon fill="#ffffff" stroke="transparent" points="100,-41.2 100,-58.2 205,-58.2 205,-41.2 100,-41.2"/>
<text text-anchor="start" x="136.3053" y="-46.3" font-family="Helvetica,sans-Serif" font-size="11.00" fill="#000000">3 rows</text>
<polygon fill="#ffffff" stroke="transparent" points="205,-41.2 205,-58.2 293,-58.2 293,-41.2 205,-41.2"/>
<text text-anchor="start" x="275.4053" y="-46.3" font-family="Helvetica,sans-Serif" font-size="11.00" fill="#000000">3 &gt;</text>
<polygon fill="#000000" stroke="#000000" points="100,-41.2 100,-58.2 100,-58.2 100,-41.2 100,-41.2"/>
<polygon fill="#000000" stroke="#000000" points="205,-41.2 205,-58.2 205,-58.2 205,-41.2 205,-41.2"/>
<polygon fill="none" stroke="#000000" stroke-width="2" points="9,-39.2 9,-611.2 295,-611.2 295,-39.2 9,-39.2"/>
</a>
</g>
</g>
<!-- diagnoses&#45;&gt;patients -->
<g id="edge1" class="edge">
<title>diagnoses:w&#45;&gt;patients:e</title>
<path fill="none" stroke="#000000" d="M336.8624,-699.0854C300.7781,-679.6824 349.7014,-576.2 294,-576.2"/>
<polygon fill="#000000" stroke="#000000" points="343.1873,-700.4788 350.2254,-705.7157 347.0937,-701.3394 351,-702.2 351,-702.2 351,-702.2 347.0937,-701.3394 351.7746,-698.6843 343.1873,-700.4788 343.1873,-700.4788"/>
<ellipse fill="none" stroke="#000000" cx="340.0623" cy="-699.7903" rx="3.2" ry="3.2"/>
</g>
<!-- epa_sync_log -->
<g id="node3" class="node">
<title>epa_sync_log</title>
<g id="a_node3"><a xlink:href="../../tables/epa_sync_log.html" xlink:title="epa_sync_log" target="_top">
<polygon fill="#ffffff" stroke="transparent" points="345,-483.7 345,-632.7 481,-632.7 481,-483.7 345,-483.7"/>
<polygon fill="#f5f5f5" stroke="transparent" points="345,-609.2 345,-632.2 481,-632.2 481,-609.2 345,-609.2"/>
<polygon fill="none" stroke="#000000" points="345,-609.2 345,-632.2 481,-632.2 481,-609.2 345,-609.2"/>
<text text-anchor="start" x="350" y="-617.8" font-family="Helvetica,sans-Serif" font-weight="bold" font-size="11.00" fill="#000000">epa_sync_log</text>
<text text-anchor="start" x="446.0437" y="-617.3" font-family="Helvetica,sans-Serif" font-size="11.00" fill="#000000">[table]</text>
<polygon fill="none" stroke="#000000" points="345,-587.2 345,-609.2 481,-609.2 481,-587.2 345,-587.2"/>
<image xlink:href="../../images/primaryKeys.png" width="11px" height="12px" preserveAspectRatio="xMinYMin meet" x="350" y="-604.2"/>
<text text-anchor="start" x="365" y="-594.3" font-family="Helvetica,sans-Serif" font-size="11.00" fill="#000000">id</text>
<polygon fill="#ffffff" stroke="transparent" points="345,-565.2 345,-587.2 481,-587.2 481,-565.2 345,-565.2"/>
<polygon fill="none" stroke="#000000" points="345,-565.2 345,-587.2 481,-587.2 481,-565.2 345,-565.2"/>
<image xlink:href="../../images/foreignKeys.png" width="11px" height="12px" preserveAspectRatio="xMinYMin meet" x="350" y="-582.2"/>
<text text-anchor="start" x="365" y="-572.3" font-family="Helvetica,sans-Serif" font-size="11.00" fill="#000000">patient_id</text>
<polygon fill="#ffffff" stroke="transparent" points="345,-543.2 345,-565.2 481,-565.2 481,-543.2 345,-543.2"/>
<polygon fill="none" stroke="#000000" points="345,-543.2 345,-565.2 481,-565.2 481,-543.2 345,-543.2"/>
<text text-anchor="start" x="365" y="-550.3" font-family="Helvetica,sans-Serif" font-size="11.00" fill="#000000">sync_status</text>
<polygon fill="#ffffff" stroke="transparent" points="345,-521.2 345,-543.2 481,-543.2 481,-521.2 345,-521.2"/>
<polygon fill="none" stroke="#000000" points="345,-521.2 345,-543.2 481,-543.2 481,-521.2 345,-521.2"/>
<text text-anchor="start" x="365" y="-528.3" font-family="Helvetica,sans-Serif" font-size="11.00" fill="#000000">sync_timestamp</text>
<polygon fill="none" stroke="#000000" points="345,-502.2 345,-521.2 481,-521.2 481,-502.2 345,-502.2"/>
<text text-anchor="start" x="348" y="-508.3" font-family="Helvetica,sans-Serif" font-size="11.00" fill="#000000">...</text>
<polygon fill="#ffffff" stroke="transparent" points="345,-483.2 345,-502.2 481,-502.2 481,-483.2 345,-483.2"/>
<polygon fill="none" stroke="#000000" points="345,-483.2 345,-502.2 481,-502.2 481,-483.2 345,-483.2"/>
<polygon fill="#ffffff" stroke="transparent" points="346,-484.2 346,-501.2 397,-501.2 397,-484.2 346,-484.2"/>
<text text-anchor="start" x="348" y="-489.3" font-family="Helvetica,sans-Serif" font-size="11.00" fill="#000000">&lt; 1</text>
<polygon fill="#ffffff" stroke="transparent" points="397,-484.2 397,-501.2 439,-501.2 439,-484.2 397,-484.2"/>
<text text-anchor="start" x="414.9431" y="-489.3" font-family="Helvetica,sans-Serif" font-size="11.00" fill="#000000"> &#160;</text>
<polygon fill="#ffffff" stroke="transparent" points="439,-484.2 439,-501.2 480,-501.2 480,-484.2 439,-484.2"/>
<text text-anchor="start" x="471.8862" y="-489.3" font-family="Helvetica,sans-Serif" font-size="11.00" fill="#000000"> &#160;</text>
<polygon fill="#000000" stroke="#000000" points="397,-484.2 397,-501.2 397,-501.2 397,-484.2 397,-484.2"/>
<polygon fill="#000000" stroke="#000000" points="439,-484.2 439,-501.2 439,-501.2 439,-484.2 439,-484.2"/>
</a>
</g>
</g>
<!-- epa_sync_log&#45;&gt;patients -->
<g id="edge2" class="edge">
<title>epa_sync_log:w&#45;&gt;patients:e</title>
<path fill="none" stroke="#000000" d="M330.276,-576.2C318.2815,-576.2 310.8229,-576.2 294,-576.2"/>
<polygon fill="#000000" stroke="#000000" points="337,-576.2001 345,-579.8 341,-576.2 345,-576.2 345,-576.2 345,-576.2 341,-576.2 345,-572.6 337,-576.2001 337,-576.2001"/>
<ellipse fill="none" stroke="#000000" cx="333.8" cy="-576.2001" rx="3.2" ry="3.2"/>
</g>
<!-- medications -->
<g id="node4" class="node">
<title>medications</title>
<g id="a_node4"><a xlink:href="../../tables/medications.html" xlink:title="medications" target="_top">
<polygon fill="#ffffff" stroke="transparent" points="345,-357.7 345,-462.7 481,-462.7 481,-357.7 345,-357.7"/>
<polygon fill="#f5f5f5" stroke="transparent" points="345,-439.2 345,-462.2 481,-462.2 481,-439.2 345,-439.2"/>
<polygon fill="none" stroke="#000000" points="345,-439.2 345,-462.2 481,-462.2 481,-439.2 345,-439.2"/>
<text text-anchor="start" x="350" y="-447.8" font-family="Helvetica,sans-Serif" font-weight="bold" font-size="11.00" fill="#000000">medications</text>
<text text-anchor="start" x="446.0437" y="-447.3" font-family="Helvetica,sans-Serif" font-size="11.00" fill="#000000">[table]</text>
<polygon fill="none" stroke="#000000" points="345,-417.2 345,-439.2 481,-439.2 481,-417.2 345,-417.2"/>
<image xlink:href="../../images/primaryKeys.png" width="11px" height="12px" preserveAspectRatio="xMinYMin meet" x="350" y="-434.2"/>
<text text-anchor="start" x="365" y="-424.3" font-family="Helvetica,sans-Serif" font-size="11.00" fill="#000000">id</text>
<polygon fill="#ffffff" stroke="transparent" points="345,-395.2 345,-417.2 481,-417.2 481,-395.2 345,-395.2"/>
<polygon fill="none" stroke="#000000" points="345,-395.2 345,-417.2 481,-417.2 481,-395.2 345,-395.2"/>
<image xlink:href="../../images/foreignKeys.png" width="11px" height="12px" preserveAspectRatio="xMinYMin meet" x="350" y="-412.2"/>
<text text-anchor="start" x="365" y="-402.3" font-family="Helvetica,sans-Serif" font-size="11.00" fill="#000000">patient_id</text>
<polygon fill="none" stroke="#000000" points="345,-376.2 345,-395.2 481,-395.2 481,-376.2 345,-376.2"/>
<text text-anchor="start" x="348" y="-382.3" font-family="Helvetica,sans-Serif" font-size="11.00" fill="#000000">...</text>
<polygon fill="#ffffff" stroke="transparent" points="345,-357.2 345,-376.2 481,-376.2 481,-357.2 345,-357.2"/>
<polygon fill="none" stroke="#000000" points="345,-357.2 345,-376.2 481,-376.2 481,-357.2 345,-357.2"/>
<polygon fill="#ffffff" stroke="transparent" points="346,-358.2 346,-375.2 397,-375.2 397,-358.2 346,-358.2"/>
<text text-anchor="start" x="348" y="-363.3" font-family="Helvetica,sans-Serif" font-size="11.00" fill="#000000">&lt; 1</text>
<polygon fill="#ffffff" stroke="transparent" points="397,-358.2 397,-375.2 439,-375.2 439,-358.2 397,-358.2"/>
<text text-anchor="start" x="414.9431" y="-363.3" font-family="Helvetica,sans-Serif" font-size="11.00" fill="#000000"> &#160;</text>
<polygon fill="#ffffff" stroke="transparent" points="439,-358.2 439,-375.2 480,-375.2 480,-358.2 439,-358.2"/>
<text text-anchor="start" x="471.8862" y="-363.3" font-family="Helvetica,sans-Serif" font-size="11.00" fill="#000000"> &#160;</text>
<polygon fill="#000000" stroke="#000000" points="397,-358.2 397,-375.2 397,-375.2 397,-358.2 397,-358.2"/>
<polygon fill="#000000" stroke="#000000" points="439,-358.2 439,-375.2 439,-375.2 439,-358.2 439,-358.2"/>
</a>
</g>
</g>
<!-- medications&#45;&gt;patients -->
<g id="edge3" class="edge">
<title>medications:w&#45;&gt;patients:e</title>
<path fill="none" stroke="#000000" d="M330.667,-408.7351C280.579,-429.8825 367.1818,-576.2 294,-576.2"/>
<polygon fill="#000000" stroke="#000000" points="337.1223,-407.5934 345.627,-409.745 341.0611,-406.8967 345,-406.2 345,-406.2 345,-406.2 341.0611,-406.8967 344.373,-402.655 337.1223,-407.5934 337.1223,-407.5934"/>
<ellipse fill="none" stroke="#000000" cx="333.9712" cy="-408.1507" rx="3.2" ry="3.2"/>
</g>
</g>
</svg>
