<?xml version="1.0" encoding="UTF-8" standalone="no"?>
<!DOCTYPE svg PUBLIC "-//W3C//DTD SVG 1.1//EN"
 "http://www.w3.org/Graphics/SVG/1.1/DTD/svg11.dtd">
<!-- Generated by graphviz version 2.40.1 (20161225.0304)
 -->
<!-- Title: compactRelationshipsDiagram Pages: 1 -->
<svg width="431pt" height="603pt"
 viewBox="0.00 0.00 431.00 603.20" xmlns="http://www.w3.org/2000/svg" xmlns:xlink="http://www.w3.org/1999/xlink">
<g id="graph0" class="graph" transform="scale(1 1) rotate(0) translate(4 599.2)">
<title>compactRelationshipsDiagram</title>
<polygon fill="#ffffff" stroke="transparent" points="-4,4 -4,-599.2 427,-599.2 427,4 -4,4"/>
<text text-anchor="middle" x="72.4936" y="-7.3" font-family="Helvetica,sans-Serif" font-size="11.00" fill="#000000">Generated by SchemaSpy</text>
<!-- patients -->
<g id="node1" class="node">
<title>patients</title>
<g id="a_node1"><a xlink:href="../../tables/patients.html" xlink:title="patients" target="_top">
<polygon fill="#ffffff" stroke="transparent" points="36,-98.2 36,-291.2 230,-291.2 230,-98.2 36,-98.2"/>
<polygon fill="#f5f5f5" stroke="transparent" points="36,-267.7 36,-290.7 230,-290.7 230,-267.7 36,-267.7"/>
<polygon fill="none" stroke="#000000" points="36,-267.7 36,-290.7 230,-290.7 230,-267.7 36,-267.7"/>
<text text-anchor="start" x="41" y="-276.3" font-family="Helvetica,sans-Serif" font-weight="bold" font-size="11.00" fill="#000000">patients</text>
<text text-anchor="start" x="195.0437" y="-275.8" font-family="Helvetica,sans-Serif" font-size="11.00" fill="#000000">[table]</text>
<polygon fill="none" stroke="#000000" points="36,-245.7 36,-267.7 230,-267.7 230,-245.7 36,-245.7"/>
<image xlink:href="../../images/primaryKeys.png" width="11px" height="12px" preserveAspectRatio="xMinYMin meet" x="41" y="-262.7"/>
<text text-anchor="start" x="56" y="-252.8" font-family="Helvetica,sans-Serif" font-size="11.00" fill="#000000">id</text>
<polygon fill="#ffffff" stroke="transparent" points="36,-223.7 36,-245.7 230,-245.7 230,-223.7 36,-223.7"/>
<polygon fill="none" stroke="#000000" points="36,-223.7 36,-245.7 230,-245.7 230,-223.7 36,-223.7"/>
<text text-anchor="start" x="56" y="-230.8" font-family="Helvetica,sans-Serif" font-size="11.00" fill="#000000">last_name</text>
<polygon fill="#ffffff" stroke="transparent" points="36,-201.7 36,-223.7 230,-223.7 230,-201.7 36,-201.7"/>
<polygon fill="none" stroke="#000000" points="36,-201.7 36,-223.7 230,-223.7 230,-201.7 36,-201.7"/>
<text text-anchor="start" x="56" y="-208.8" font-family="Helvetica,sans-Serif" font-size="11.00" fill="#000000">insurance_number</text>
<polygon fill="#ffffff" stroke="transparent" points="36,-179.7 36,-201.7 230,-201.7 230,-179.7 36,-179.7"/>
<polygon fill="none" stroke="#000000" points="36,-179.7 36,-201.7 230,-201.7 230,-179.7 36,-179.7"/>
<text text-anchor="start" x="56" y="-186.8" font-family="Helvetica,sans-Serif" font-size="11.00" fill="#000000">epa_id</text>
<polygon fill="#ffffff" stroke="transparent" points="36,-157.7 36,-179.7 230,-179.7 230,-157.7 36,-157.7"/>
<polygon fill="none" stroke="#000000" points="36,-157.7 36,-179.7 230,-179.7 230,-157.7 36,-157.7"/>
<text text-anchor="start" x="56" y="-164.8" font-family="Helvetica,sans-Serif" font-size="11.00" fill="#000000">epa_sync_status</text>
<polygon fill="#ffffff" stroke="transparent" points="36,-135.7 36,-157.7 230,-157.7 230,-135.7 36,-135.7"/>
<polygon fill="none" stroke="#000000" points="36,-135.7 36,-157.7 230,-157.7 230,-135.7 36,-135.7"/>
<text text-anchor="start" x="56" y="-142.8" font-family="Helvetica,sans-Serif" font-size="11.00" fill="#000000">epa_enabled</text>
<polygon fill="none" stroke="#000000" points="36,-116.7 36,-135.7 230,-135.7 230,-116.7 36,-116.7"/>
<text text-anchor="start" x="39" y="-122.8" font-family="Helvetica,sans-Serif" font-size="11.00" fill="#000000">...</text>
<polygon fill="#ffffff" stroke="transparent" points="36,-97.7 36,-116.7 230,-116.7 230,-97.7 36,-97.7"/>
<polygon fill="none" stroke="#000000" points="36,-97.7 36,-116.7 230,-116.7 230,-97.7 36,-97.7"/>
<polygon fill="#ffffff" stroke="transparent" points="37,-98.7 37,-115.7 83,-115.7 83,-98.7 37,-98.7"/>
<text text-anchor="start" x="39" y="-103.8" font-family="Helvetica,sans-Serif" font-size="11.00" fill="#000000"> &#160;</text>
<polygon fill="#ffffff" stroke="transparent" points="83,-98.7 83,-115.7 175,-115.7 175,-98.7 83,-98.7"/>
<text text-anchor="start" x="102.1045" y="-103.8" font-family="Helvetica,sans-Serif" font-size="11.00" fill="#000000">1,003 rows</text>
<polygon fill="#ffffff" stroke="transparent" points="175,-98.7 175,-115.7 229,-115.7 229,-98.7 175,-98.7"/>
<text text-anchor="start" x="211.4053" y="-103.8" font-family="Helvetica,sans-Serif" font-size="11.00" fill="#000000">3 &gt;</text>
<polygon fill="#000000" stroke="#000000" points="83,-98.7 83,-115.7 83,-115.7 83,-98.7 83,-98.7"/>
<polygon fill="#000000" stroke="#000000" points="175,-98.7 175,-115.7 175,-115.7 175,-98.7 175,-98.7"/>
</a>
</g>
</g>
<!-- medications -->
<g id="node2" class="node">
<title>medications</title>
<g id="a_node2"><a xlink:href="../../tables/medications.html" xlink:title="medications" target="_top">
<polygon fill="#ffffff" stroke="transparent" points="279,-334.2 279,-439.2 415,-439.2 415,-334.2 279,-334.2"/>
<polygon fill="#f5f5f5" stroke="transparent" points="279,-415.7 279,-438.7 415,-438.7 415,-415.7 279,-415.7"/>
<polygon fill="none" stroke="#000000" points="279,-415.7 279,-438.7 415,-438.7 415,-415.7 279,-415.7"/>
<text text-anchor="start" x="284" y="-424.3" font-family="Helvetica,sans-Serif" font-weight="bold" font-size="11.00" fill="#000000">medications</text>
<text text-anchor="start" x="380.0437" y="-423.8" font-family="Helvetica,sans-Serif" font-size="11.00" fill="#000000">[table]</text>
<polygon fill="none" stroke="#000000" points="279,-393.7 279,-415.7 415,-415.7 415,-393.7 279,-393.7"/>
<image xlink:href="../../images/primaryKeys.png" width="11px" height="12px" preserveAspectRatio="xMinYMin meet" x="284" y="-410.7"/>
<text text-anchor="start" x="299" y="-400.8" font-family="Helvetica,sans-Serif" font-size="11.00" fill="#000000">id</text>
<polygon fill="#ffffff" stroke="transparent" points="279,-371.7 279,-393.7 415,-393.7 415,-371.7 279,-371.7"/>
<polygon fill="none" stroke="#000000" points="279,-371.7 279,-393.7 415,-393.7 415,-371.7 279,-371.7"/>
<image xlink:href="../../images/foreignKeys.png" width="11px" height="12px" preserveAspectRatio="xMinYMin meet" x="284" y="-388.7"/>
<text text-anchor="start" x="299" y="-378.8" font-family="Helvetica,sans-Serif" font-size="11.00" fill="#000000">patient_id</text>
<polygon fill="none" stroke="#000000" points="279,-352.7 279,-371.7 415,-371.7 415,-352.7 279,-352.7"/>
<text text-anchor="start" x="282" y="-358.8" font-family="Helvetica,sans-Serif" font-size="11.00" fill="#000000">...</text>
<polygon fill="#ffffff" stroke="transparent" points="279,-333.7 279,-352.7 415,-352.7 415,-333.7 279,-333.7"/>
<polygon fill="none" stroke="#000000" points="279,-333.7 279,-352.7 415,-352.7 415,-333.7 279,-333.7"/>
<polygon fill="#ffffff" stroke="transparent" points="280,-334.7 280,-351.7 331,-351.7 331,-334.7 280,-334.7"/>
<text text-anchor="start" x="282" y="-339.8" font-family="Helvetica,sans-Serif" font-size="11.00" fill="#000000">&lt; 1</text>
<polygon fill="#ffffff" stroke="transparent" points="331,-334.7 331,-351.7 373,-351.7 373,-334.7 331,-334.7"/>
<text text-anchor="start" x="348.9431" y="-339.8" font-family="Helvetica,sans-Serif" font-size="11.00" fill="#000000"> &#160;</text>
<polygon fill="#ffffff" stroke="transparent" points="373,-334.7 373,-351.7 414,-351.7 414,-334.7 373,-334.7"/>
<text text-anchor="start" x="405.8862" y="-339.8" font-family="Helvetica,sans-Serif" font-size="11.00" fill="#000000"> &#160;</text>
<polygon fill="#000000" stroke="#000000" points="331,-334.7 331,-351.7 331,-351.7 331,-334.7 331,-334.7"/>
<polygon fill="#000000" stroke="#000000" points="373,-334.7 373,-351.7 373,-351.7 373,-334.7 373,-334.7"/>
</a>
</g>
</g>
<!-- medications&#45;&gt;patients -->
<g id="edge3" class="edge">
<title>medications:w&#45;&gt;patients:e</title>
<path fill="none" stroke="#000000" d="M264.9076,-379.3298C231.5633,-359.2923 284.2178,-256.7 230,-256.7"/>
<polygon fill="#000000" stroke="#000000" points="271.2194,-380.8392 278.1627,-386.2013 275.1097,-381.7696 279,-382.7 279,-382.7 279,-382.7 275.1097,-381.7696 279.8373,-379.1987 271.2194,-380.8392 271.2194,-380.8392"/>
<ellipse fill="none" stroke="#000000" cx="268.1072" cy="-380.0949" rx="3.2" ry="3.2"/>
</g>
<!-- diagnoses -->
<g id="node3" class="node">
<title>diagnoses</title>
<g id="a_node3"><a xlink:href="../../tables/diagnoses.html" xlink:title="diagnoses" target="_top">
<polygon fill="#ffffff" stroke="transparent" points="285,-208.2 285,-313.2 409,-313.2 409,-208.2 285,-208.2"/>
<polygon fill="#f5f5f5" stroke="transparent" points="285,-289.7 285,-312.7 409,-312.7 409,-289.7 285,-289.7"/>
<polygon fill="none" stroke="#000000" points="285,-289.7 285,-312.7 409,-312.7 409,-289.7 285,-289.7"/>
<text text-anchor="start" x="290" y="-298.3" font-family="Helvetica,sans-Serif" font-weight="bold" font-size="11.00" fill="#000000">diagnoses</text>
<text text-anchor="start" x="374.0437" y="-297.8" font-family="Helvetica,sans-Serif" font-size="11.00" fill="#000000">[table]</text>
<polygon fill="none" stroke="#000000" points="285,-267.7 285,-289.7 409,-289.7 409,-267.7 285,-267.7"/>
<image xlink:href="../../images/primaryKeys.png" width="11px" height="12px" preserveAspectRatio="xMinYMin meet" x="290" y="-284.7"/>
<text text-anchor="start" x="305" y="-274.8" font-family="Helvetica,sans-Serif" font-size="11.00" fill="#000000">id</text>
<polygon fill="#ffffff" stroke="transparent" points="285,-245.7 285,-267.7 409,-267.7 409,-245.7 285,-245.7"/>
<polygon fill="none" stroke="#000000" points="285,-245.7 285,-267.7 409,-267.7 409,-245.7 285,-245.7"/>
<image xlink:href="../../images/foreignKeys.png" width="11px" height="12px" preserveAspectRatio="xMinYMin meet" x="290" y="-262.7"/>
<text text-anchor="start" x="305" y="-252.8" font-family="Helvetica,sans-Serif" font-size="11.00" fill="#000000">patient_id</text>
<polygon fill="none" stroke="#000000" points="285,-226.7 285,-245.7 409,-245.7 409,-226.7 285,-226.7"/>
<text text-anchor="start" x="288" y="-232.8" font-family="Helvetica,sans-Serif" font-size="11.00" fill="#000000">...</text>
<polygon fill="#ffffff" stroke="transparent" points="285,-207.7 285,-226.7 409,-226.7 409,-207.7 285,-207.7"/>
<polygon fill="none" stroke="#000000" points="285,-207.7 285,-226.7 409,-226.7 409,-207.7 285,-207.7"/>
<polygon fill="#ffffff" stroke="transparent" points="286,-208.7 286,-225.7 333,-225.7 333,-208.7 286,-208.7"/>
<text text-anchor="start" x="288" y="-213.8" font-family="Helvetica,sans-Serif" font-size="11.00" fill="#000000">&lt; 1</text>
<polygon fill="#ffffff" stroke="transparent" points="333,-208.7 333,-225.7 371,-225.7 371,-208.7 333,-208.7"/>
<text text-anchor="start" x="348.9431" y="-213.8" font-family="Helvetica,sans-Serif" font-size="11.00" fill="#000000"> &#160;</text>
<polygon fill="#ffffff" stroke="transparent" points="371,-208.7 371,-225.7 408,-225.7 408,-208.7 371,-208.7"/>
<text text-anchor="start" x="399.8862" y="-213.8" font-family="Helvetica,sans-Serif" font-size="11.00" fill="#000000"> &#160;</text>
<polygon fill="#000000" stroke="#000000" points="333,-208.7 333,-225.7 333,-225.7 333,-208.7 333,-208.7"/>
<polygon fill="#000000" stroke="#000000" points="371,-208.7 371,-225.7 371,-225.7 371,-208.7 371,-208.7"/>
</a>
</g>
</g>
<!-- diagnoses&#45;&gt;patients -->
<g id="edge1" class="edge">
<title>diagnoses:w&#45;&gt;patients:e</title>
<path fill="none" stroke="#000000" d="M270.3617,-256.7C256.6839,-256.7 248.7153,-256.7 230,-256.7"/>
<polygon fill="#000000" stroke="#000000" points="277,-256.7001 285,-260.3 281,-256.7 285,-256.7 285,-256.7 285,-256.7 281,-256.7 285,-253.1 277,-256.7001 277,-256.7001"/>
<ellipse fill="none" stroke="#000000" cx="273.8" cy="-256.7001" rx="3.2" ry="3.2"/>
</g>
<!-- epa_configuration -->
<g id="node4" class="node">
<title>epa_configuration</title>
<g id="a_node4"><a xlink:href="../../tables/epa_configuration.html" xlink:title="epa_configuration" target="_top">
<polygon fill="#ffffff" stroke="transparent" points="8,-486.2 8,-591.2 165,-591.2 165,-486.2 8,-486.2"/>
<polygon fill="#f5f5f5" stroke="transparent" points="8.5,-567.7 8.5,-590.7 165.5,-590.7 165.5,-567.7 8.5,-567.7"/>
<polygon fill="none" stroke="#000000" points="8.5,-567.7 8.5,-590.7 165.5,-590.7 165.5,-567.7 8.5,-567.7"/>
<text text-anchor="start" x="13.5" y="-576.3" font-family="Helvetica,sans-Serif" font-weight="bold" font-size="11.00" fill="#000000">epa_configuration</text>
<text text-anchor="start" x="131.0219" y="-575.8" font-family="Helvetica,sans-Serif" font-size="11.00" fill="#000000">[table]</text>
<polygon fill="none" stroke="#000000" points="8.5,-545.7 8.5,-567.7 165.5,-567.7 165.5,-545.7 8.5,-545.7"/>
<image xlink:href="../../images/primaryKeys.png" width="11px" height="12px" preserveAspectRatio="xMinYMin meet" x="13.5" y="-562.7"/>
<text text-anchor="start" x="37.5" y="-552.8" font-family="Helvetica,sans-Serif" font-size="11.00" fill="#000000">id</text>
<polygon fill="#ffffff" stroke="transparent" points="8.5,-523.7 8.5,-545.7 165.5,-545.7 165.5,-523.7 8.5,-523.7"/>
<polygon fill="none" stroke="#000000" points="8.5,-523.7 8.5,-545.7 165.5,-545.7 165.5,-523.7 8.5,-523.7"/>
<text text-anchor="start" x="37.5" y="-530.8" font-family="Helvetica,sans-Serif" font-size="11.00" fill="#000000">config_key</text>
<polygon fill="none" stroke="#000000" points="8.5,-504.7 8.5,-523.7 165.5,-523.7 165.5,-504.7 8.5,-504.7"/>
<text text-anchor="start" x="11.5" y="-510.8" font-family="Helvetica,sans-Serif" font-size="11.00" fill="#000000">...</text>
<polygon fill="#ffffff" stroke="transparent" points="8.5,-485.7 8.5,-504.7 165.5,-504.7 165.5,-485.7 8.5,-485.7"/>
<polygon fill="none" stroke="#000000" points="8.5,-485.7 8.5,-504.7 165.5,-504.7 165.5,-485.7 8.5,-485.7"/>
<polygon fill="#ffffff" stroke="transparent" points="9.5,-486.7 9.5,-503.7 61.5,-503.7 61.5,-486.7 9.5,-486.7"/>
<text text-anchor="start" x="11.5" y="-491.8" font-family="Helvetica,sans-Serif" font-size="11.00" fill="#000000"> &#160;</text>
<polygon fill="#ffffff" stroke="transparent" points="61.5,-486.7 61.5,-503.7 113.5,-503.7 113.5,-486.7 61.5,-486.7"/>
<text text-anchor="start" x="84.4431" y="-491.8" font-family="Helvetica,sans-Serif" font-size="11.00" fill="#000000"> &#160;</text>
<polygon fill="#ffffff" stroke="transparent" points="113.5,-486.7 113.5,-503.7 164.5,-503.7 164.5,-486.7 113.5,-486.7"/>
<text text-anchor="start" x="156.3862" y="-491.8" font-family="Helvetica,sans-Serif" font-size="11.00" fill="#000000"> &#160;</text>
<polygon fill="#000000" stroke="#000000" points="61.5,-486.7 61.5,-503.7 61.5,-503.7 61.5,-486.7 61.5,-486.7"/>
<polygon fill="#000000" stroke="#000000" points="113.5,-486.7 113.5,-503.7 113.5,-503.7 113.5,-486.7 113.5,-486.7"/>
</a>
</g>
</g>
<!-- epa_sync_log -->
<g id="node5" class="node">
<title>epa_sync_log</title>
<g id="a_node5"><a xlink:href="../../tables/epa_sync_log.html" xlink:title="epa_sync_log" target="_top">
<polygon fill="#ffffff" stroke="transparent" points="279,-38.2 279,-187.2 415,-187.2 415,-38.2 279,-38.2"/>
<polygon fill="#f5f5f5" stroke="transparent" points="279,-163.7 279,-186.7 415,-186.7 415,-163.7 279,-163.7"/>
<polygon fill="none" stroke="#000000" points="279,-163.7 279,-186.7 415,-186.7 415,-163.7 279,-163.7"/>
<text text-anchor="start" x="284" y="-172.3" font-family="Helvetica,sans-Serif" font-weight="bold" font-size="11.00" fill="#000000">epa_sync_log</text>
<text text-anchor="start" x="380.0437" y="-171.8" font-family="Helvetica,sans-Serif" font-size="11.00" fill="#000000">[table]</text>
<polygon fill="none" stroke="#000000" points="279,-141.7 279,-163.7 415,-163.7 415,-141.7 279,-141.7"/>
<image xlink:href="../../images/primaryKeys.png" width="11px" height="12px" preserveAspectRatio="xMinYMin meet" x="284" y="-158.7"/>
<text text-anchor="start" x="299" y="-148.8" font-family="Helvetica,sans-Serif" font-size="11.00" fill="#000000">id</text>
<polygon fill="#ffffff" stroke="transparent" points="279,-119.7 279,-141.7 415,-141.7 415,-119.7 279,-119.7"/>
<polygon fill="none" stroke="#000000" points="279,-119.7 279,-141.7 415,-141.7 415,-119.7 279,-119.7"/>
<image xlink:href="../../images/foreignKeys.png" width="11px" height="12px" preserveAspectRatio="xMinYMin meet" x="284" y="-136.7"/>
<text text-anchor="start" x="299" y="-126.8" font-family="Helvetica,sans-Serif" font-size="11.00" fill="#000000">patient_id</text>
<polygon fill="#ffffff" stroke="transparent" points="279,-97.7 279,-119.7 415,-119.7 415,-97.7 279,-97.7"/>
<polygon fill="none" stroke="#000000" points="279,-97.7 279,-119.7 415,-119.7 415,-97.7 279,-97.7"/>
<text text-anchor="start" x="299" y="-104.8" font-family="Helvetica,sans-Serif" font-size="11.00" fill="#000000">sync_status</text>
<polygon fill="#ffffff" stroke="transparent" points="279,-75.7 279,-97.7 415,-97.7 415,-75.7 279,-75.7"/>
<polygon fill="none" stroke="#000000" points="279,-75.7 279,-97.7 415,-97.7 415,-75.7 279,-75.7"/>
<text text-anchor="start" x="299" y="-82.8" font-family="Helvetica,sans-Serif" font-size="11.00" fill="#000000">sync_timestamp</text>
<polygon fill="none" stroke="#000000" points="279,-56.7 279,-75.7 415,-75.7 415,-56.7 279,-56.7"/>
<text text-anchor="start" x="282" y="-62.8" font-family="Helvetica,sans-Serif" font-size="11.00" fill="#000000">...</text>
<polygon fill="#ffffff" stroke="transparent" points="279,-37.7 279,-56.7 415,-56.7 415,-37.7 279,-37.7"/>
<polygon fill="none" stroke="#000000" points="279,-37.7 279,-56.7 415,-56.7 415,-37.7 279,-37.7"/>
<polygon fill="#ffffff" stroke="transparent" points="280,-38.7 280,-55.7 331,-55.7 331,-38.7 280,-38.7"/>
<text text-anchor="start" x="282" y="-43.8" font-family="Helvetica,sans-Serif" font-size="11.00" fill="#000000">&lt; 1</text>
<polygon fill="#ffffff" stroke="transparent" points="331,-38.7 331,-55.7 373,-55.7 373,-38.7 331,-38.7"/>
<text text-anchor="start" x="348.9431" y="-43.8" font-family="Helvetica,sans-Serif" font-size="11.00" fill="#000000"> &#160;</text>
<polygon fill="#ffffff" stroke="transparent" points="373,-38.7 373,-55.7 414,-55.7 414,-38.7 373,-38.7"/>
<text text-anchor="start" x="405.8862" y="-43.8" font-family="Helvetica,sans-Serif" font-size="11.00" fill="#000000"> &#160;</text>
<polygon fill="#000000" stroke="#000000" points="331,-38.7 331,-55.7 331,-55.7 331,-38.7 331,-38.7"/>
<polygon fill="#000000" stroke="#000000" points="373,-38.7 373,-55.7 373,-55.7 373,-38.7 373,-38.7"/>
</a>
</g>
</g>
<!-- epa_sync_log&#45;&gt;patients -->
<g id="edge2" class="edge">
<title>epa_sync_log:w&#45;&gt;patients:e</title>
<path fill="none" stroke="#000000" d="M264.9076,-134.0702C231.5633,-154.1077 284.2178,-256.7 230,-256.7"/>
<polygon fill="#000000" stroke="#000000" points="271.2194,-132.5608 279.8373,-134.2013 275.1097,-131.6304 279,-130.7 279,-130.7 279,-130.7 275.1097,-131.6304 278.1627,-127.1987 271.2194,-132.5608 271.2194,-132.5608"/>
<ellipse fill="none" stroke="#000000" cx="268.1072" cy="-133.3051" rx="3.2" ry="3.2"/>
</g>
<!-- epa_statistics -->
<g id="node6" class="node">
<title>epa_statistics</title>
<g id="a_node6"><a xlink:href="../../tables/epa_statistics.html" xlink:title="epa_statistics" target="_top">
<polygon fill="#ffffff" stroke="transparent" points="232,-485.7 232,-527.7 357,-527.7 357,-485.7 232,-485.7"/>
<polygon fill="#f5f5f5" stroke="transparent" points="232.5,-504.7 232.5,-527.7 357.5,-527.7 357.5,-504.7 232.5,-504.7"/>
<polygon fill="none" stroke="#000000" points="232.5,-504.7 232.5,-527.7 357.5,-527.7 357.5,-504.7 232.5,-504.7"/>
<text text-anchor="start" x="237.5" y="-513.3" font-family="Helvetica,sans-Serif" font-weight="bold" font-size="11.00" fill="#000000">epa_statistics</text>
<text text-anchor="start" x="324.4448" y="-512.8" font-family="Helvetica,sans-Serif" font-size="11.00" fill="#000000">[view]</text>
<polygon fill="none" stroke="#000000" points="232.5,-485.7 232.5,-504.7 357.5,-504.7 357.5,-485.7 232.5,-485.7"/>
<text text-anchor="start" x="235.5" y="-491.8" font-family="Helvetica,sans-Serif" font-size="11.00" fill="#000000">...</text>
</a>
</g>
</g>
</g>
</svg>
