<?xml version="1.0" encoding="UTF-8" standalone="no"?>
<!DOCTYPE svg PUBLIC "-//W3C//DTD SVG 1.1//EN"
 "http://www.w3.org/Graphics/SVG/1.1/DTD/svg11.dtd">
<!-- Generated by graphviz version 2.40.1 (20161225.0304)
 -->
<!-- Title: largeRelationshipsDiagram Pages: 1 -->
<svg width="643pt" height="969pt"
 viewBox="0.00 0.00 643.00 969.20" xmlns="http://www.w3.org/2000/svg" xmlns:xlink="http://www.w3.org/1999/xlink">
<g id="graph0" class="graph" transform="scale(1 1) rotate(0) translate(4 965.2)">
<title>largeRelationshipsDiagram</title>
<polygon fill="#ffffff" stroke="transparent" points="-4,4 -4,-965.2 639,-965.2 639,4 -4,4"/>
<text text-anchor="middle" x="72.4936" y="-7.3" font-family="Helvetica,sans-Serif" font-size="11.00" fill="#000000">Generated by SchemaSpy</text>
<!-- patients -->
<g id="node1" class="node">
<title>patients</title>
<g id="a_node1"><a xlink:href="../../tables/patients.html" xlink:title="patients" target="_top">
<polygon fill="#ffffff" stroke="transparent" points="8,-38.2 8,-630.2 202,-630.2 202,-38.2 8,-38.2"/>
<polygon fill="#f5f5f5" stroke="transparent" points="8,-607.2 8,-630.2 202,-630.2 202,-607.2 8,-607.2"/>
<polygon fill="none" stroke="#000000" points="8,-607.2 8,-630.2 202,-630.2 202,-607.2 8,-607.2"/>
<text text-anchor="start" x="13" y="-615.8" font-family="Helvetica,sans-Serif" font-weight="bold" font-size="11.00" fill="#000000">patients</text>
<text text-anchor="start" x="167.0437" y="-615.3" font-family="Helvetica,sans-Serif" font-size="11.00" fill="#000000">[table]</text>
<polygon fill="none" stroke="#000000" points="8,-585.2 8,-607.2 202,-607.2 202,-585.2 8,-585.2"/>
<image xlink:href="../../images/primaryKeys.png" width="11px" height="12px" preserveAspectRatio="xMinYMin meet" x="13" y="-602.2"/>
<text text-anchor="start" x="28" y="-592.3" font-family="Helvetica,sans-Serif" font-size="11.00" fill="#000000">id</text>
<polygon fill="none" stroke="#000000" points="8,-563.2 8,-585.2 202,-585.2 202,-563.2 8,-563.2"/>
<text text-anchor="start" x="28" y="-570.3" font-family="Helvetica,sans-Serif" font-size="11.00" fill="#000000">first_name</text>
<polygon fill="#ffffff" stroke="transparent" points="8,-541.2 8,-563.2 202,-563.2 202,-541.2 8,-541.2"/>
<polygon fill="none" stroke="#000000" points="8,-541.2 8,-563.2 202,-563.2 202,-541.2 8,-541.2"/>
<text text-anchor="start" x="28" y="-548.3" font-family="Helvetica,sans-Serif" font-size="11.00" fill="#000000">last_name</text>
<polygon fill="none" stroke="#000000" points="8,-519.2 8,-541.2 202,-541.2 202,-519.2 8,-519.2"/>
<text text-anchor="start" x="28" y="-526.3" font-family="Helvetica,sans-Serif" font-size="11.00" fill="#000000">date_of_birth</text>
<polygon fill="none" stroke="#000000" points="8,-497.2 8,-519.2 202,-519.2 202,-497.2 8,-497.2"/>
<text text-anchor="start" x="28" y="-504.3" font-family="Helvetica,sans-Serif" font-size="11.00" fill="#000000">gender</text>
<polygon fill="none" stroke="#000000" points="8,-475.2 8,-497.2 202,-497.2 202,-475.2 8,-475.2"/>
<text text-anchor="start" x="28" y="-482.3" font-family="Helvetica,sans-Serif" font-size="11.00" fill="#000000">phone</text>
<polygon fill="none" stroke="#000000" points="8,-453.2 8,-475.2 202,-475.2 202,-453.2 8,-453.2"/>
<text text-anchor="start" x="28" y="-460.3" font-family="Helvetica,sans-Serif" font-size="11.00" fill="#000000">email</text>
<polygon fill="none" stroke="#000000" points="8,-431.2 8,-453.2 202,-453.2 202,-431.2 8,-431.2"/>
<text text-anchor="start" x="28" y="-438.3" font-family="Helvetica,sans-Serif" font-size="11.00" fill="#000000">address</text>
<polygon fill="#ffffff" stroke="transparent" points="8,-409.2 8,-431.2 202,-431.2 202,-409.2 8,-409.2"/>
<polygon fill="none" stroke="#000000" points="8,-409.2 8,-431.2 202,-431.2 202,-409.2 8,-409.2"/>
<text text-anchor="start" x="28" y="-416.3" font-family="Helvetica,sans-Serif" font-size="11.00" fill="#000000">insurance_number</text>
<polygon fill="none" stroke="#000000" points="8,-387.2 8,-409.2 202,-409.2 202,-387.2 8,-387.2"/>
<text text-anchor="start" x="28" y="-394.3" font-family="Helvetica,sans-Serif" font-size="11.00" fill="#000000">blood_type</text>
<polygon fill="none" stroke="#000000" points="8,-365.2 8,-387.2 202,-387.2 202,-365.2 8,-365.2"/>
<text text-anchor="start" x="28" y="-372.3" font-family="Helvetica,sans-Serif" font-size="11.00" fill="#000000">allergies</text>
<polygon fill="none" stroke="#000000" points="8,-343.2 8,-365.2 202,-365.2 202,-343.2 8,-343.2"/>
<text text-anchor="start" x="28" y="-350.3" font-family="Helvetica,sans-Serif" font-size="11.00" fill="#000000">emergency_contact_name</text>
<polygon fill="none" stroke="#000000" points="8,-321.2 8,-343.2 202,-343.2 202,-321.2 8,-321.2"/>
<text text-anchor="start" x="28" y="-328.3" font-family="Helvetica,sans-Serif" font-size="11.00" fill="#000000">emergency_contact_phone</text>
<polygon fill="none" stroke="#000000" points="8,-299.2 8,-321.2 202,-321.2 202,-299.2 8,-299.2"/>
<text text-anchor="start" x="28" y="-306.3" font-family="Helvetica,sans-Serif" font-size="11.00" fill="#000000">admission_date</text>
<polygon fill="none" stroke="#000000" points="8,-277.2 8,-299.2 202,-299.2 202,-277.2 8,-277.2"/>
<text text-anchor="start" x="28" y="-284.3" font-family="Helvetica,sans-Serif" font-size="11.00" fill="#000000">discharge_date</text>
<polygon fill="none" stroke="#000000" points="8,-255.2 8,-277.2 202,-277.2 202,-255.2 8,-255.2"/>
<text text-anchor="start" x="28" y="-262.3" font-family="Helvetica,sans-Serif" font-size="11.00" fill="#000000">status</text>
<polygon fill="none" stroke="#000000" points="8,-233.2 8,-255.2 202,-255.2 202,-233.2 8,-233.2"/>
<text text-anchor="start" x="28" y="-240.3" font-family="Helvetica,sans-Serif" font-size="11.00" fill="#000000">created_at</text>
<polygon fill="none" stroke="#000000" points="8,-211.2 8,-233.2 202,-233.2 202,-211.2 8,-211.2"/>
<text text-anchor="start" x="28" y="-218.3" font-family="Helvetica,sans-Serif" font-size="11.00" fill="#000000">updated_at</text>
<polygon fill="#ffffff" stroke="transparent" points="8,-189.2 8,-211.2 202,-211.2 202,-189.2 8,-189.2"/>
<polygon fill="none" stroke="#000000" points="8,-189.2 8,-211.2 202,-211.2 202,-189.2 8,-189.2"/>
<text text-anchor="start" x="28" y="-196.3" font-family="Helvetica,sans-Serif" font-size="11.00" fill="#000000">epa_id</text>
<polygon fill="#ffffff" stroke="transparent" points="8,-167.2 8,-189.2 202,-189.2 202,-167.2 8,-167.2"/>
<polygon fill="none" stroke="#000000" points="8,-167.2 8,-189.2 202,-189.2 202,-167.2 8,-167.2"/>
<text text-anchor="start" x="28" y="-174.3" font-family="Helvetica,sans-Serif" font-size="11.00" fill="#000000">epa_sync_status</text>
<polygon fill="none" stroke="#000000" points="8,-145.2 8,-167.2 202,-167.2 202,-145.2 8,-145.2"/>
<text text-anchor="start" x="28" y="-152.3" font-family="Helvetica,sans-Serif" font-size="11.00" fill="#000000">epa_last_sync</text>
<polygon fill="none" stroke="#000000" points="8,-123.2 8,-145.2 202,-145.2 202,-123.2 8,-123.2"/>
<text text-anchor="start" x="28" y="-130.3" font-family="Helvetica,sans-Serif" font-size="11.00" fill="#000000">epa_sync_error</text>
<polygon fill="#ffffff" stroke="transparent" points="8,-101.2 8,-123.2 202,-123.2 202,-101.2 8,-101.2"/>
<polygon fill="none" stroke="#000000" points="8,-101.2 8,-123.2 202,-123.2 202,-101.2 8,-101.2"/>
<text text-anchor="start" x="28" y="-108.3" font-family="Helvetica,sans-Serif" font-size="11.00" fill="#000000">epa_enabled</text>
<polygon fill="none" stroke="#000000" points="8,-79.2 8,-101.2 202,-101.2 202,-79.2 8,-79.2"/>
<text text-anchor="start" x="28" y="-86.3" font-family="Helvetica,sans-Serif" font-size="11.00" fill="#000000">epa_consent_date</text>
<polygon fill="none" stroke="#000000" points="8,-57.2 8,-79.2 202,-79.2 202,-57.2 8,-57.2"/>
<text text-anchor="start" x="28" y="-64.3" font-family="Helvetica,sans-Serif" font-size="11.00" fill="#000000">search_key</text>
<polygon fill="#ffffff" stroke="transparent" points="8,-38.2 8,-57.2 202,-57.2 202,-38.2 8,-38.2"/>
<polygon fill="none" stroke="#000000" points="8,-38.2 8,-57.2 202,-57.2 202,-38.2 8,-38.2"/>
<polygon fill="#ffffff" stroke="transparent" points="9,-39.2 9,-56.2 55,-56.2 55,-39.2 9,-39.2"/>
<text text-anchor="start" x="11" y="-44.3" font-family="Helvetica,sans-Serif" font-size="11.00" fill="#000000"> &#160;</text>
<polygon fill="#ffffff" stroke="transparent" points="55,-39.2 55,-56.2 147,-56.2 147,-39.2 55,-39.2"/>
<text text-anchor="start" x="74.1045" y="-44.3" font-family="Helvetica,sans-Serif" font-size="11.00" fill="#000000">1,003 rows</text>
<polygon fill="#ffffff" stroke="transparent" points="147,-39.2 147,-56.2 201,-56.2 201,-39.2 147,-39.2"/>
<text text-anchor="start" x="183.4053" y="-44.3" font-family="Helvetica,sans-Serif" font-size="11.00" fill="#000000">3 &gt;</text>
<polygon fill="#000000" stroke="#000000" points="55,-39.2 55,-56.2 55,-56.2 55,-39.2 55,-39.2"/>
<polygon fill="#000000" stroke="#000000" points="147,-39.2 147,-56.2 147,-56.2 147,-39.2 147,-39.2"/>
</a>
</g>
</g>
<!-- medications -->
<g id="node2" class="node">
<title>medications</title>
<g id="a_node2"><a xlink:href="../../tables/medications.html" xlink:title="medications" target="_top">
<polygon fill="#ffffff" stroke="transparent" points="251,-673.2 251,-957.2 387,-957.2 387,-673.2 251,-673.2"/>
<polygon fill="#f5f5f5" stroke="transparent" points="251,-934.2 251,-957.2 387,-957.2 387,-934.2 251,-934.2"/>
<polygon fill="none" stroke="#000000" points="251,-934.2 251,-957.2 387,-957.2 387,-934.2 251,-934.2"/>
<text text-anchor="start" x="256" y="-942.8" font-family="Helvetica,sans-Serif" font-weight="bold" font-size="11.00" fill="#000000">medications</text>
<text text-anchor="start" x="352.0437" y="-942.3" font-family="Helvetica,sans-Serif" font-size="11.00" fill="#000000">[table]</text>
<polygon fill="none" stroke="#000000" points="251,-912.2 251,-934.2 387,-934.2 387,-912.2 251,-912.2"/>
<image xlink:href="../../images/primaryKeys.png" width="11px" height="12px" preserveAspectRatio="xMinYMin meet" x="256" y="-929.2"/>
<text text-anchor="start" x="271" y="-919.3" font-family="Helvetica,sans-Serif" font-size="11.00" fill="#000000">id</text>
<polygon fill="#ffffff" stroke="transparent" points="251,-890.2 251,-912.2 387,-912.2 387,-890.2 251,-890.2"/>
<polygon fill="none" stroke="#000000" points="251,-890.2 251,-912.2 387,-912.2 387,-890.2 251,-890.2"/>
<image xlink:href="../../images/foreignKeys.png" width="11px" height="12px" preserveAspectRatio="xMinYMin meet" x="256" y="-907.2"/>
<text text-anchor="start" x="271" y="-897.3" font-family="Helvetica,sans-Serif" font-size="11.00" fill="#000000">patient_id</text>
<polygon fill="none" stroke="#000000" points="251,-868.2 251,-890.2 387,-890.2 387,-868.2 251,-868.2"/>
<text text-anchor="start" x="271" y="-875.3" font-family="Helvetica,sans-Serif" font-size="11.00" fill="#000000">medication_name</text>
<polygon fill="none" stroke="#000000" points="251,-846.2 251,-868.2 387,-868.2 387,-846.2 251,-846.2"/>
<text text-anchor="start" x="271" y="-853.3" font-family="Helvetica,sans-Serif" font-size="11.00" fill="#000000">dosage</text>
<polygon fill="none" stroke="#000000" points="251,-824.2 251,-846.2 387,-846.2 387,-824.2 251,-824.2"/>
<text text-anchor="start" x="271" y="-831.3" font-family="Helvetica,sans-Serif" font-size="11.00" fill="#000000">frequency</text>
<polygon fill="none" stroke="#000000" points="251,-802.2 251,-824.2 387,-824.2 387,-802.2 251,-802.2"/>
<text text-anchor="start" x="271" y="-809.3" font-family="Helvetica,sans-Serif" font-size="11.00" fill="#000000">start_date</text>
<polygon fill="none" stroke="#000000" points="251,-780.2 251,-802.2 387,-802.2 387,-780.2 251,-780.2"/>
<text text-anchor="start" x="271" y="-787.3" font-family="Helvetica,sans-Serif" font-size="11.00" fill="#000000">end_date</text>
<polygon fill="none" stroke="#000000" points="251,-758.2 251,-780.2 387,-780.2 387,-758.2 251,-758.2"/>
<text text-anchor="start" x="271" y="-765.3" font-family="Helvetica,sans-Serif" font-size="11.00" fill="#000000">prescribed_by</text>
<polygon fill="none" stroke="#000000" points="251,-736.2 251,-758.2 387,-758.2 387,-736.2 251,-736.2"/>
<text text-anchor="start" x="271" y="-743.3" font-family="Helvetica,sans-Serif" font-size="11.00" fill="#000000">notes</text>
<polygon fill="none" stroke="#000000" points="251,-714.2 251,-736.2 387,-736.2 387,-714.2 251,-714.2"/>
<text text-anchor="start" x="271" y="-721.3" font-family="Helvetica,sans-Serif" font-size="11.00" fill="#000000">created_at</text>
<polygon fill="none" stroke="#000000" points="251,-692.2 251,-714.2 387,-714.2 387,-692.2 251,-692.2"/>
<text text-anchor="start" x="271" y="-699.3" font-family="Helvetica,sans-Serif" font-size="11.00" fill="#000000">name</text>
<polygon fill="#ffffff" stroke="transparent" points="251,-673.2 251,-692.2 387,-692.2 387,-673.2 251,-673.2"/>
<polygon fill="none" stroke="#000000" points="251,-673.2 251,-692.2 387,-692.2 387,-673.2 251,-673.2"/>
<polygon fill="#ffffff" stroke="transparent" points="252,-674.2 252,-691.2 303,-691.2 303,-674.2 252,-674.2"/>
<text text-anchor="start" x="254" y="-679.3" font-family="Helvetica,sans-Serif" font-size="11.00" fill="#000000">&lt; 1</text>
<polygon fill="#ffffff" stroke="transparent" points="303,-674.2 303,-691.2 345,-691.2 345,-674.2 303,-674.2"/>
<text text-anchor="start" x="320.9431" y="-679.3" font-family="Helvetica,sans-Serif" font-size="11.00" fill="#000000"> &#160;</text>
<polygon fill="#ffffff" stroke="transparent" points="345,-674.2 345,-691.2 386,-691.2 386,-674.2 345,-674.2"/>
<text text-anchor="start" x="377.8862" y="-679.3" font-family="Helvetica,sans-Serif" font-size="11.00" fill="#000000"> &#160;</text>
<polygon fill="#000000" stroke="#000000" points="303,-674.2 303,-691.2 303,-691.2 303,-674.2 303,-674.2"/>
<polygon fill="#000000" stroke="#000000" points="345,-674.2 345,-691.2 345,-691.2 345,-674.2 345,-674.2"/>
</a>
</g>
</g>
<!-- medications&#45;&gt;patients -->
<g id="edge3" class="edge">
<title>medications:w&#45;&gt;patients:e</title>
<path fill="none" stroke="#000000" d="M237.3666,-895.6458C195.4875,-854.3082 265.1498,-596.2 202,-596.2"/>
<polygon fill="#000000" stroke="#000000" points="243.5912,-898.1817 249.6417,-904.5339 247.2956,-899.6908 251,-901.2 251,-901.2 251,-901.2 247.2956,-899.6908 252.3583,-897.8661 243.5912,-898.1817 243.5912,-898.1817"/>
<ellipse fill="none" stroke="#000000" cx="240.6277" cy="-896.9743" rx="3.2" ry="3.2"/>
</g>
<!-- diagnoses -->
<g id="node3" class="node">
<title>diagnoses</title>
<g id="a_node3"><a xlink:href="../../tables/diagnoses.html" xlink:title="diagnoses" target="_top">
<polygon fill="#ffffff" stroke="transparent" points="257,-412.2 257,-652.2 381,-652.2 381,-412.2 257,-412.2"/>
<polygon fill="#f5f5f5" stroke="transparent" points="257,-629.2 257,-652.2 381,-652.2 381,-629.2 257,-629.2"/>
<polygon fill="none" stroke="#000000" points="257,-629.2 257,-652.2 381,-652.2 381,-629.2 257,-629.2"/>
<text text-anchor="start" x="262" y="-637.8" font-family="Helvetica,sans-Serif" font-weight="bold" font-size="11.00" fill="#000000">diagnoses</text>
<text text-anchor="start" x="346.0437" y="-637.3" font-family="Helvetica,sans-Serif" font-size="11.00" fill="#000000">[table]</text>
<polygon fill="none" stroke="#000000" points="257,-607.2 257,-629.2 381,-629.2 381,-607.2 257,-607.2"/>
<image xlink:href="../../images/primaryKeys.png" width="11px" height="12px" preserveAspectRatio="xMinYMin meet" x="262" y="-624.2"/>
<text text-anchor="start" x="277" y="-614.3" font-family="Helvetica,sans-Serif" font-size="11.00" fill="#000000">id</text>
<polygon fill="#ffffff" stroke="transparent" points="257,-585.2 257,-607.2 381,-607.2 381,-585.2 257,-585.2"/>
<polygon fill="none" stroke="#000000" points="257,-585.2 257,-607.2 381,-607.2 381,-585.2 257,-585.2"/>
<image xlink:href="../../images/foreignKeys.png" width="11px" height="12px" preserveAspectRatio="xMinYMin meet" x="262" y="-602.2"/>
<text text-anchor="start" x="277" y="-592.3" font-family="Helvetica,sans-Serif" font-size="11.00" fill="#000000">patient_id</text>
<polygon fill="none" stroke="#000000" points="257,-563.2 257,-585.2 381,-585.2 381,-563.2 257,-563.2"/>
<text text-anchor="start" x="277" y="-570.3" font-family="Helvetica,sans-Serif" font-size="11.00" fill="#000000">diagnosis_code</text>
<polygon fill="none" stroke="#000000" points="257,-541.2 257,-563.2 381,-563.2 381,-541.2 257,-541.2"/>
<text text-anchor="start" x="277" y="-548.3" font-family="Helvetica,sans-Serif" font-size="11.00" fill="#000000">diagnosis_name</text>
<polygon fill="none" stroke="#000000" points="257,-519.2 257,-541.2 381,-541.2 381,-519.2 257,-519.2"/>
<text text-anchor="start" x="277" y="-526.3" font-family="Helvetica,sans-Serif" font-size="11.00" fill="#000000">diagnosis_date</text>
<polygon fill="none" stroke="#000000" points="257,-497.2 257,-519.2 381,-519.2 381,-497.2 257,-497.2"/>
<text text-anchor="start" x="277" y="-504.3" font-family="Helvetica,sans-Serif" font-size="11.00" fill="#000000">doctor_name</text>
<polygon fill="none" stroke="#000000" points="257,-475.2 257,-497.2 381,-497.2 381,-475.2 257,-475.2"/>
<text text-anchor="start" x="277" y="-482.3" font-family="Helvetica,sans-Serif" font-size="11.00" fill="#000000">notes</text>
<polygon fill="none" stroke="#000000" points="257,-453.2 257,-475.2 381,-475.2 381,-453.2 257,-453.2"/>
<text text-anchor="start" x="277" y="-460.3" font-family="Helvetica,sans-Serif" font-size="11.00" fill="#000000">created_at</text>
<polygon fill="none" stroke="#000000" points="257,-431.2 257,-453.2 381,-453.2 381,-431.2 257,-431.2"/>
<text text-anchor="start" x="277" y="-438.3" font-family="Helvetica,sans-Serif" font-size="11.00" fill="#000000">description</text>
<polygon fill="#ffffff" stroke="transparent" points="257,-412.2 257,-431.2 381,-431.2 381,-412.2 257,-412.2"/>
<polygon fill="none" stroke="#000000" points="257,-412.2 257,-431.2 381,-431.2 381,-412.2 257,-412.2"/>
<polygon fill="#ffffff" stroke="transparent" points="258,-413.2 258,-430.2 305,-430.2 305,-413.2 258,-413.2"/>
<text text-anchor="start" x="260" y="-418.3" font-family="Helvetica,sans-Serif" font-size="11.00" fill="#000000">&lt; 1</text>
<polygon fill="#ffffff" stroke="transparent" points="305,-413.2 305,-430.2 343,-430.2 343,-413.2 305,-413.2"/>
<text text-anchor="start" x="320.9431" y="-418.3" font-family="Helvetica,sans-Serif" font-size="11.00" fill="#000000"> &#160;</text>
<polygon fill="#ffffff" stroke="transparent" points="343,-413.2 343,-430.2 380,-430.2 380,-413.2 343,-413.2"/>
<text text-anchor="start" x="371.8862" y="-418.3" font-family="Helvetica,sans-Serif" font-size="11.00" fill="#000000"> &#160;</text>
<polygon fill="#000000" stroke="#000000" points="305,-413.2 305,-430.2 305,-430.2 305,-413.2 305,-413.2"/>
<polygon fill="#000000" stroke="#000000" points="343,-413.2 343,-430.2 343,-430.2 343,-413.2 343,-413.2"/>
</a>
</g>
</g>
<!-- diagnoses&#45;&gt;patients -->
<g id="edge1" class="edge">
<title>diagnoses:w&#45;&gt;patients:e</title>
<path fill="none" stroke="#000000" d="M242.3617,-596.2C228.6839,-596.2 220.7153,-596.2 202,-596.2"/>
<polygon fill="#000000" stroke="#000000" points="249,-596.2001 257,-599.8 253,-596.2 257,-596.2 257,-596.2 257,-596.2 253,-596.2 257,-592.6 249,-596.2001 249,-596.2001"/>
<ellipse fill="none" stroke="#000000" cx="245.8" cy="-596.2001" rx="3.2" ry="3.2"/>
</g>
<!-- epa_configuration -->
<g id="node4" class="node">
<title>epa_configuration</title>
<g id="a_node4"><a xlink:href="../../tables/epa_configuration.html" xlink:title="epa_configuration" target="_top">
<polygon fill="#ffffff" stroke="transparent" points="470,-752.2 470,-926.2 627,-926.2 627,-752.2 470,-752.2"/>
<polygon fill="#f5f5f5" stroke="transparent" points="470.5,-903.2 470.5,-926.2 627.5,-926.2 627.5,-903.2 470.5,-903.2"/>
<polygon fill="none" stroke="#000000" points="470.5,-903.2 470.5,-926.2 627.5,-926.2 627.5,-903.2 470.5,-903.2"/>
<text text-anchor="start" x="475.5" y="-911.8" font-family="Helvetica,sans-Serif" font-weight="bold" font-size="11.00" fill="#000000">epa_configuration</text>
<text text-anchor="start" x="593.0219" y="-911.3" font-family="Helvetica,sans-Serif" font-size="11.00" fill="#000000">[table]</text>
<polygon fill="none" stroke="#000000" points="470.5,-881.2 470.5,-903.2 627.5,-903.2 627.5,-881.2 470.5,-881.2"/>
<image xlink:href="../../images/primaryKeys.png" width="11px" height="12px" preserveAspectRatio="xMinYMin meet" x="475.5" y="-898.2"/>
<text text-anchor="start" x="499.5" y="-888.3" font-family="Helvetica,sans-Serif" font-size="11.00" fill="#000000">id</text>
<polygon fill="#ffffff" stroke="transparent" points="470.5,-859.2 470.5,-881.2 627.5,-881.2 627.5,-859.2 470.5,-859.2"/>
<polygon fill="none" stroke="#000000" points="470.5,-859.2 470.5,-881.2 627.5,-881.2 627.5,-859.2 470.5,-859.2"/>
<text text-anchor="start" x="499.5" y="-866.3" font-family="Helvetica,sans-Serif" font-size="11.00" fill="#000000">config_key</text>
<polygon fill="none" stroke="#000000" points="470.5,-837.2 470.5,-859.2 627.5,-859.2 627.5,-837.2 470.5,-837.2"/>
<text text-anchor="start" x="499.5" y="-844.3" font-family="Helvetica,sans-Serif" font-size="11.00" fill="#000000">config_value</text>
<polygon fill="none" stroke="#000000" points="470.5,-815.2 470.5,-837.2 627.5,-837.2 627.5,-815.2 470.5,-815.2"/>
<text text-anchor="start" x="499.5" y="-822.3" font-family="Helvetica,sans-Serif" font-size="11.00" fill="#000000">description</text>
<polygon fill="none" stroke="#000000" points="470.5,-793.2 470.5,-815.2 627.5,-815.2 627.5,-793.2 470.5,-793.2"/>
<text text-anchor="start" x="499.5" y="-800.3" font-family="Helvetica,sans-Serif" font-size="11.00" fill="#000000">last_updated</text>
<polygon fill="none" stroke="#000000" points="470.5,-771.2 470.5,-793.2 627.5,-793.2 627.5,-771.2 470.5,-771.2"/>
<text text-anchor="start" x="499.5" y="-778.3" font-family="Helvetica,sans-Serif" font-size="11.00" fill="#000000">updated_by</text>
<polygon fill="#ffffff" stroke="transparent" points="470.5,-752.2 470.5,-771.2 627.5,-771.2 627.5,-752.2 470.5,-752.2"/>
<polygon fill="none" stroke="#000000" points="470.5,-752.2 470.5,-771.2 627.5,-771.2 627.5,-752.2 470.5,-752.2"/>
<polygon fill="#ffffff" stroke="transparent" points="471.5,-753.2 471.5,-770.2 523.5,-770.2 523.5,-753.2 471.5,-753.2"/>
<text text-anchor="start" x="473.5" y="-758.3" font-family="Helvetica,sans-Serif" font-size="11.00" fill="#000000"> &#160;</text>
<polygon fill="#ffffff" stroke="transparent" points="523.5,-753.2 523.5,-770.2 575.5,-770.2 575.5,-753.2 523.5,-753.2"/>
<text text-anchor="start" x="546.4431" y="-758.3" font-family="Helvetica,sans-Serif" font-size="11.00" fill="#000000"> &#160;</text>
<polygon fill="#ffffff" stroke="transparent" points="575.5,-753.2 575.5,-770.2 626.5,-770.2 626.5,-753.2 575.5,-753.2"/>
<text text-anchor="start" x="618.3862" y="-758.3" font-family="Helvetica,sans-Serif" font-size="11.00" fill="#000000"> &#160;</text>
<polygon fill="#000000" stroke="#000000" points="523.5,-753.2 523.5,-770.2 523.5,-770.2 523.5,-753.2 523.5,-753.2"/>
<polygon fill="#000000" stroke="#000000" points="575.5,-753.2 575.5,-770.2 575.5,-770.2 575.5,-753.2 575.5,-753.2"/>
</a>
</g>
</g>
<!-- epa_sync_log -->
<g id="node5" class="node">
<title>epa_sync_log</title>
<g id="a_node5"><a xlink:href="../../tables/epa_sync_log.html" xlink:title="epa_sync_log" target="_top">
<polygon fill="#ffffff" stroke="transparent" points="251,-129.2 251,-391.2 387,-391.2 387,-129.2 251,-129.2"/>
<polygon fill="#f5f5f5" stroke="transparent" points="251,-368.2 251,-391.2 387,-391.2 387,-368.2 251,-368.2"/>
<polygon fill="none" stroke="#000000" points="251,-368.2 251,-391.2 387,-391.2 387,-368.2 251,-368.2"/>
<text text-anchor="start" x="256" y="-376.8" font-family="Helvetica,sans-Serif" font-weight="bold" font-size="11.00" fill="#000000">epa_sync_log</text>
<text text-anchor="start" x="352.0437" y="-376.3" font-family="Helvetica,sans-Serif" font-size="11.00" fill="#000000">[table]</text>
<polygon fill="none" stroke="#000000" points="251,-346.2 251,-368.2 387,-368.2 387,-346.2 251,-346.2"/>
<image xlink:href="../../images/primaryKeys.png" width="11px" height="12px" preserveAspectRatio="xMinYMin meet" x="256" y="-363.2"/>
<text text-anchor="start" x="271" y="-353.3" font-family="Helvetica,sans-Serif" font-size="11.00" fill="#000000">id</text>
<polygon fill="#ffffff" stroke="transparent" points="251,-324.2 251,-346.2 387,-346.2 387,-324.2 251,-324.2"/>
<polygon fill="none" stroke="#000000" points="251,-324.2 251,-346.2 387,-346.2 387,-324.2 251,-324.2"/>
<image xlink:href="../../images/foreignKeys.png" width="11px" height="12px" preserveAspectRatio="xMinYMin meet" x="256" y="-341.2"/>
<text text-anchor="start" x="271" y="-331.3" font-family="Helvetica,sans-Serif" font-size="11.00" fill="#000000">patient_id</text>
<polygon fill="none" stroke="#000000" points="251,-302.2 251,-324.2 387,-324.2 387,-302.2 251,-302.2"/>
<text text-anchor="start" x="271" y="-309.3" font-family="Helvetica,sans-Serif" font-size="11.00" fill="#000000">sync_type</text>
<polygon fill="#ffffff" stroke="transparent" points="251,-280.2 251,-302.2 387,-302.2 387,-280.2 251,-280.2"/>
<polygon fill="none" stroke="#000000" points="251,-280.2 251,-302.2 387,-302.2 387,-280.2 251,-280.2"/>
<text text-anchor="start" x="271" y="-287.3" font-family="Helvetica,sans-Serif" font-size="11.00" fill="#000000">sync_status</text>
<polygon fill="none" stroke="#000000" points="251,-258.2 251,-280.2 387,-280.2 387,-258.2 251,-258.2"/>
<text text-anchor="start" x="271" y="-265.3" font-family="Helvetica,sans-Serif" font-size="11.00" fill="#000000">epa_id</text>
<polygon fill="none" stroke="#000000" points="251,-236.2 251,-258.2 387,-258.2 387,-236.2 251,-236.2"/>
<text text-anchor="start" x="271" y="-243.3" font-family="Helvetica,sans-Serif" font-size="11.00" fill="#000000">fhir_payload</text>
<polygon fill="none" stroke="#000000" points="251,-214.2 251,-236.2 387,-236.2 387,-214.2 251,-214.2"/>
<text text-anchor="start" x="271" y="-221.3" font-family="Helvetica,sans-Serif" font-size="11.00" fill="#000000">error_message</text>
<polygon fill="#ffffff" stroke="transparent" points="251,-192.2 251,-214.2 387,-214.2 387,-192.2 251,-192.2"/>
<polygon fill="none" stroke="#000000" points="251,-192.2 251,-214.2 387,-214.2 387,-192.2 251,-192.2"/>
<text text-anchor="start" x="271" y="-199.3" font-family="Helvetica,sans-Serif" font-size="11.00" fill="#000000">sync_timestamp</text>
<polygon fill="none" stroke="#000000" points="251,-170.2 251,-192.2 387,-192.2 387,-170.2 251,-170.2"/>
<text text-anchor="start" x="271" y="-177.3" font-family="Helvetica,sans-Serif" font-size="11.00" fill="#000000">sync_duration_ms</text>
<polygon fill="none" stroke="#000000" points="251,-148.2 251,-170.2 387,-170.2 387,-148.2 251,-148.2"/>
<text text-anchor="start" x="271" y="-155.3" font-family="Helvetica,sans-Serif" font-size="11.00" fill="#000000">user_id</text>
<polygon fill="#ffffff" stroke="transparent" points="251,-129.2 251,-148.2 387,-148.2 387,-129.2 251,-129.2"/>
<polygon fill="none" stroke="#000000" points="251,-129.2 251,-148.2 387,-148.2 387,-129.2 251,-129.2"/>
<polygon fill="#ffffff" stroke="transparent" points="252,-130.2 252,-147.2 303,-147.2 303,-130.2 252,-130.2"/>
<text text-anchor="start" x="254" y="-135.3" font-family="Helvetica,sans-Serif" font-size="11.00" fill="#000000">&lt; 1</text>
<polygon fill="#ffffff" stroke="transparent" points="303,-130.2 303,-147.2 345,-147.2 345,-130.2 303,-130.2"/>
<text text-anchor="start" x="320.9431" y="-135.3" font-family="Helvetica,sans-Serif" font-size="11.00" fill="#000000"> &#160;</text>
<polygon fill="#ffffff" stroke="transparent" points="345,-130.2 345,-147.2 386,-147.2 386,-130.2 345,-130.2"/>
<text text-anchor="start" x="377.8862" y="-135.3" font-family="Helvetica,sans-Serif" font-size="11.00" fill="#000000"> &#160;</text>
<polygon fill="#000000" stroke="#000000" points="303,-130.2 303,-147.2 303,-147.2 303,-130.2 303,-130.2"/>
<polygon fill="#000000" stroke="#000000" points="345,-130.2 345,-147.2 345,-147.2 345,-130.2 345,-130.2"/>
</a>
</g>
</g>
<!-- epa_sync_log&#45;&gt;patients -->
<g id="edge2" class="edge">
<title>epa_sync_log:w&#45;&gt;patients:e</title>
<path fill="none" stroke="#000000" d="M236.6174,-336.799C149.5016,-358.6091 314.6093,-596.2 202,-596.2"/>
<polygon fill="#000000" stroke="#000000" points="243.049,-336.084 251.3978,-338.778 247.0245,-335.642 251,-335.2 251,-335.2 251,-335.2 247.0245,-335.642 250.6022,-331.622 243.049,-336.084 243.049,-336.084"/>
<ellipse fill="none" stroke="#000000" cx="239.8686" cy="-336.4377" rx="3.2" ry="3.2"/>
</g>
<!-- epa_statistics -->
<g id="node6" class="node">
<title>epa_statistics</title>
<g id="a_node6"><a xlink:href="../../tables/epa_statistics.html" xlink:title="epa_statistics" target="_top">
<polygon fill="#ffffff" stroke="transparent" points="470,-500.7 470,-655.7 621,-655.7 621,-500.7 470,-500.7"/>
<polygon fill="#f5f5f5" stroke="transparent" points="470.5,-632.2 470.5,-655.2 621.5,-655.2 621.5,-632.2 470.5,-632.2"/>
<polygon fill="none" stroke="#000000" points="470.5,-632.2 470.5,-655.2 621.5,-655.2 621.5,-632.2 470.5,-632.2"/>
<text text-anchor="start" x="475.5" y="-640.8" font-family="Helvetica,sans-Serif" font-weight="bold" font-size="11.00" fill="#000000">epa_statistics</text>
<text text-anchor="start" x="588.3895" y="-640.3" font-family="Helvetica,sans-Serif" font-size="11.00" fill="#000000">[view]</text>
<polygon fill="none" stroke="#000000" points="470.5,-610.2 470.5,-632.2 621.5,-632.2 621.5,-610.2 470.5,-610.2"/>
<text text-anchor="start" x="490.5" y="-617.3" font-family="Helvetica,sans-Serif" font-size="11.00" fill="#000000">total_patients</text>
<polygon fill="none" stroke="#000000" points="470.5,-588.2 470.5,-610.2 621.5,-610.2 621.5,-588.2 470.5,-588.2"/>
<text text-anchor="start" x="490.5" y="-595.3" font-family="Helvetica,sans-Serif" font-size="11.00" fill="#000000">epa_enabled_count</text>
<polygon fill="none" stroke="#000000" points="470.5,-566.2 470.5,-588.2 621.5,-588.2 621.5,-566.2 470.5,-566.2"/>
<text text-anchor="start" x="490.5" y="-573.3" font-family="Helvetica,sans-Serif" font-size="11.00" fill="#000000">synced_count</text>
<polygon fill="none" stroke="#000000" points="470.5,-544.2 470.5,-566.2 621.5,-566.2 621.5,-544.2 470.5,-544.2"/>
<text text-anchor="start" x="490.5" y="-551.3" font-family="Helvetica,sans-Serif" font-size="11.00" fill="#000000">pending_count</text>
<polygon fill="none" stroke="#000000" points="470.5,-522.2 470.5,-544.2 621.5,-544.2 621.5,-522.2 470.5,-522.2"/>
<text text-anchor="start" x="490.5" y="-529.3" font-family="Helvetica,sans-Serif" font-size="11.00" fill="#000000">error_count</text>
<polygon fill="none" stroke="#000000" points="470.5,-500.2 470.5,-522.2 621.5,-522.2 621.5,-500.2 470.5,-500.2"/>
<text text-anchor="start" x="490.5" y="-507.3" font-family="Helvetica,sans-Serif" font-size="11.00" fill="#000000">last_successful_sync</text>
</a>
</g>
</g>
</g>
</svg>
