<?xml version="1.0" encoding="UTF-8" standalone="no"?>
<!DOCTYPE svg PUBLIC "-//W3C//DTD SVG 1.1//EN"
 "http://www.w3.org/Graphics/SVG/1.1/DTD/svg11.dtd">
<!-- Generated by graphviz version 2.40.1 (20161225.0304)
 -->
<!-- Title: orphans Pages: 1 -->
<svg width="257pt" height="194pt"
 viewBox="0.00 0.00 257.00 194.00" xmlns="http://www.w3.org/2000/svg" xmlns:xlink="http://www.w3.org/1999/xlink">
<g id="graph0" class="graph" transform="scale(1 1) rotate(0) translate(4 190)">
<title>orphans</title>
<polygon fill="#ffffff" stroke="transparent" points="-4,4 -4,-190 253,-190 253,4 -4,4"/>
<!-- epa_configuration -->
<g id="node1" class="node">
<title>epa_configuration</title>
<g id="a_node1"><a xlink:href="../../tables/epa_configuration.html" xlink:title="epa_configuration" target="_top">
<polygon fill="#ffffff" stroke="transparent" points="8,-4 8,-182 241,-182 241,-4 8,-4"/>
<polygon fill="#f5f5f5" stroke="transparent" points="10.5,-157 10.5,-180 239.5,-180 239.5,-157 10.5,-157"/>
<polygon fill="none" stroke="#000000" points="10.5,-157 10.5,-180 239.5,-180 239.5,-157 10.5,-157"/>
<text text-anchor="start" x="15.5" y="-165.6" font-family="Helvetica,sans-Serif" font-weight="bold" font-size="11.00" fill="#000000">epa_configuration</text>
<text text-anchor="start" x="204.5437" y="-165.1" font-family="Helvetica,sans-Serif" font-size="11.00" fill="#000000">[table]</text>
<polygon fill="none" stroke="#000000" points="10.5,-135 10.5,-157 149.5,-157 149.5,-135 10.5,-135"/>
<image xlink:href="../../images/primaryKeys.png" width="11px" height="12px" preserveAspectRatio="xMinYMin meet" x="15.5" y="-152"/>
<text text-anchor="start" x="30.5" y="-142.1" font-family="Helvetica,sans-Serif" font-size="11.00" fill="#000000">id</text>
<polygon fill="none" stroke="#000000" points="149.5,-135 149.5,-157 239.5,-157 239.5,-135 149.5,-135"/>
<text text-anchor="start" x="152.5" y="-142.7" font-family="Helvetica,sans-Serif" font-size="11.00" fill="#000000">serial[10]</text>
<polygon fill="#ffffff" stroke="transparent" points="10.5,-113 10.5,-135 149.5,-135 149.5,-113 10.5,-113"/>
<polygon fill="none" stroke="#000000" points="10.5,-113 10.5,-135 149.5,-135 149.5,-113 10.5,-113"/>
<text text-anchor="start" x="30.5" y="-120.1" font-family="Helvetica,sans-Serif" font-size="11.00" fill="#000000">config_key</text>
<polygon fill="none" stroke="#000000" points="149.5,-113 149.5,-135 239.5,-135 239.5,-113 149.5,-113"/>
<text text-anchor="start" x="152.5" y="-120.7" font-family="Helvetica,sans-Serif" font-size="11.00" fill="#000000">varchar[100]</text>
<polygon fill="none" stroke="#000000" points="10.5,-91 10.5,-113 149.5,-113 149.5,-91 10.5,-91"/>
<text text-anchor="start" x="30.5" y="-98.1" font-family="Helvetica,sans-Serif" font-size="11.00" fill="#000000">config_value</text>
<polygon fill="none" stroke="#000000" points="149.5,-91 149.5,-113 239.5,-113 239.5,-91 149.5,-91"/>
<text text-anchor="start" x="152.0042" y="-98.7" font-family="Helvetica,sans-Serif" font-size="11.00" fill="#000000">text[2147483647]</text>
<polygon fill="none" stroke="#000000" points="10.5,-69 10.5,-91 149.5,-91 149.5,-69 10.5,-69"/>
<text text-anchor="start" x="30.5" y="-76.1" font-family="Helvetica,sans-Serif" font-size="11.00" fill="#000000">description</text>
<polygon fill="none" stroke="#000000" points="149.5,-69 149.5,-91 239.5,-91 239.5,-69 149.5,-69"/>
<text text-anchor="start" x="152.0042" y="-76.7" font-family="Helvetica,sans-Serif" font-size="11.00" fill="#000000">text[2147483647]</text>
<polygon fill="none" stroke="#000000" points="10.5,-47 10.5,-69 149.5,-69 149.5,-47 10.5,-47"/>
<text text-anchor="start" x="30.5" y="-54.1" font-family="Helvetica,sans-Serif" font-size="11.00" fill="#000000">last_updated</text>
<polygon fill="none" stroke="#000000" points="149.5,-47 149.5,-69 239.5,-69 239.5,-47 149.5,-47"/>
<text text-anchor="start" x="152.5" y="-54.7" font-family="Helvetica,sans-Serif" font-size="11.00" fill="#000000">timestamp[29,6]</text>
<polygon fill="none" stroke="#000000" points="10.5,-25 10.5,-47 149.5,-47 149.5,-25 10.5,-25"/>
<text text-anchor="start" x="30.5" y="-32.1" font-family="Helvetica,sans-Serif" font-size="11.00" fill="#000000">updated_by</text>
<polygon fill="none" stroke="#000000" points="149.5,-25 149.5,-47 239.5,-47 239.5,-25 149.5,-25"/>
<text text-anchor="start" x="152.5" y="-32.7" font-family="Helvetica,sans-Serif" font-size="11.00" fill="#000000">varchar[100]</text>
<polygon fill="#ffffff" stroke="transparent" points="10.5,-6 10.5,-25 239.5,-25 239.5,-6 10.5,-6"/>
<polygon fill="none" stroke="#000000" points="10.5,-6 10.5,-25 239.5,-25 239.5,-6 10.5,-6"/>
<polygon fill="#ffffff" stroke="transparent" points="11.5,-7 11.5,-24 90.5,-24 90.5,-7 11.5,-7"/>
<text text-anchor="start" x="13.5" y="-12.1" font-family="Helvetica,sans-Serif" font-size="11.00" fill="#000000">&lt; 0</text>
<polygon fill="#ffffff" stroke="transparent" points="90.5,-7 90.5,-24 160.5,-24 160.5,-7 90.5,-7"/>
<text text-anchor="start" x="122.4431" y="-12.1" font-family="Helvetica,sans-Serif" font-size="11.00" fill="#000000"> &#160;</text>
<polygon fill="#ffffff" stroke="transparent" points="160.5,-7 160.5,-24 238.5,-24 238.5,-7 160.5,-7"/>
<text text-anchor="start" x="220.9053" y="-12.1" font-family="Helvetica,sans-Serif" font-size="11.00" fill="#000000">0 &gt;</text>
<polygon fill="#000000" stroke="#000000" points="90.5,-7 90.5,-24 90.5,-24 90.5,-7 90.5,-7"/>
<polygon fill="#000000" stroke="#000000" points="160.5,-7 160.5,-24 160.5,-24 160.5,-7 160.5,-7"/>
<polygon fill="none" stroke="#000000" stroke-width="2" points="9,-5 9,-181 240,-181 240,-5 9,-5"/>
</a>
</g>
</g>
</g>
</svg>
